0
SECTION
2
HEADER
0
ENDSEC
0
SECTION
2
BLOCKS
0
BLOCK
2
Circle
8
Meshes
70
64
10
0.0
20
0.0
30
0.0
3
Circle
0
POLYLINE
66
1
8
Meshes
62
250
70
64
71
1290
72
1288
0
VERTEX
8
Meshes
10
0.296041
20
0.012459
30
-0.000000
70
192
0
VERTEX
8
Meshes
10
0.303080
20
-0.009473
30
-0.000000
70
192
0
VERTEX
8
Meshes
10
0.296041
20
-0.031405
30
-0.000000
70
192
0
VERTEX
8
Meshes
10
0.276809
20
-0.051298
30
-0.000000
70
192
0
VERTEX
8
Meshes
10
-0.112019
20
-0.252409
30
-0.000000
70
192
0
VERTEX
8
Meshes
10
-0.131251
20
-0.233177
30
-0.000000
70
192
0
VERTEX
8
Meshes
10
-0.131251
20
0.216400
30
0.000000
70
192
0
VERTEX
8
Meshes
10
-0.112019
20
0.235632
30
0.000000
70
192
0
VERTEX
8
Meshes
10
0.276809
20
0.032352
30
-0.000000
70
192
0
VERTEX
8
Meshes
10
-0.085736
20
-0.259633
30
-0.000000
70
192
0
VERTEX
8
Meshes
10
-0.085737
20
0.242314
30
0.000000
70
192
0
VERTEX
8
Meshes
10
0.202143
20
0.003936
30
-0.000000
70
192
0
VERTEX
8
Meshes
10
0.206377
20
-0.009257
30
-0.000000
70
192
0
VERTEX
8
Meshes
10
0.202143
20
-0.022450
30
-0.000000
70
192
0
VERTEX
8
Meshes
10
0.190574
20
-0.034417
30
-0.000000
70
192
0
VERTEX
8
Meshes
10
-0.043321
20
-0.155392
30
-0.000000
70
192
0
VERTEX
8
Meshes
10
-0.054890
20
-0.143824
30
-0.000000
70
192
0
VERTEX
8
Meshes
10
-0.054890
20
0.126614
30
0.000000
70
192
0
VERTEX
8
Meshes
10
-0.043321
20
0.138183
30
0.000000
70
192
0
VERTEX
8
Meshes
10
0.190574
20
0.015902
30
-0.000000
70
192
0
VERTEX
8
Meshes
10
-0.027511
20
-0.159738
30
-0.000000
70
192
0
VERTEX
8
Meshes
10
-0.027511
20
0.142203
30
0.000000
70
192
0
VERTEX
8
Meshes
10
0.247803
20
0.050148
30
-0.000000
70
192
0
VERTEX
8
Meshes
10
0.173126
20
0.026607
30
-0.000000
70
192
0
VERTEX
8
Meshes
10
0.089508
20
0.145195
30
0.000000
70
192
0
VERTEX
8
Meshes
10
-0.061810
20
0.236051
30
0.000000
70
192
0
VERTEX
8
Meshes
10
0.077905
20
0.083782
30
-0.000000
70
192
0
VERTEX
8
Meshes
10
-0.013119
20
0.138435
30
0.000000
70
192
0
VERTEX
8
Meshes
10
-0.138290
20
0.179759
30
0.000000
70
192
0
VERTEX
8
Meshes
10
-0.059124
20
0.104573
30
0.000000
70
192
0
VERTEX
8
Meshes
10
-0.138290
20
-0.010259
30
-0.000000
70
192
0
VERTEX
8
Meshes
10
-0.138290
20
-0.198407
30
-0.000000
70
192
0
VERTEX
8
Meshes
10
-0.059124
20
-0.009730
30
-0.000000
70
192
0
VERTEX
8
Meshes
10
-0.059124
20
-0.122908
30
-0.000000
70
192
0
VERTEX
8
Meshes
10
-0.056514
20
-0.250782
30
-0.000000
70
192
0
VERTEX
8
Meshes
10
-0.009933
20
-0.154414
30
-0.000000
70
192
0
VERTEX
8
Meshes
10
0.097082
20
-0.159053
30
-0.000000
70
192
0
VERTEX
8
Meshes
10
0.250081
20
-0.067680
30
-0.000000
70
192
0
VERTEX
8
Meshes
10
0.082461
20
-0.099235
30
-0.000000
70
192
0
VERTEX
8
Meshes
10
0.174496
20
-0.044271
30
-0.000000
70
192
0
VERTEX
8
Meshes
10
0.587670
20
0.392668
30
0.000000
70
192
0
VERTEX
8
Meshes
10
0.693204
20
0.137887
30
0.000000
70
192
0
VERTEX
8
Meshes
10
0.693204
20
-0.137887
30
-0.000000
70
192
0
VERTEX
8
Meshes
10
0.587670
20
-0.392668
30
-0.000000
70
192
0
VERTEX
8
Meshes
10
0.392668
20
-0.587670
30
-0.000000
70
192
0
VERTEX
8
Meshes
10
0.137887
20
-0.693204
30
-0.000000
70
192
0
VERTEX
8
Meshes
10
-0.137887
20
-0.693204
30
-0.000000
70
192
0
VERTEX
8
Meshes
10
-0.392668
20
-0.587670
30
-0.000000
70
192
0
VERTEX
8
Meshes
10
-0.587670
20
-0.392668
30
-0.000000
70
192
0
VERTEX
8
Meshes
10
-0.693204
20
-0.137887
30
-0.000000
70
192
0
VERTEX
8
Meshes
10
-0.693204
20
0.137887
30
0.000000
70
192
0
VERTEX
8
Meshes
10
-0.587669
20
0.392668
30
0.000000
70
192
0
VERTEX
8
Meshes
10
-0.392668
20
0.587670
30
0.000000
70
192
0
VERTEX
8
Meshes
10
-0.137886
20
0.693204
30
0.000000
70
192
0
VERTEX
8
Meshes
10
0.137887
20
0.693204
30
0.000000
70
192
0
VERTEX
8
Meshes
10
0.392669
20
0.587670
30
0.000000
70
192
0
VERTEX
8
Meshes
10
0.529017
20
0.353478
30
0.000000
70
192
0
VERTEX
8
Meshes
10
0.559075
20
0.373562
30
0.000000
70
192
0
VERTEX
8
Meshes
10
0.624019
20
0.124125
30
0.000000
70
192
0
VERTEX
8
Meshes
10
0.659473
20
0.131177
30
0.000000
70
192
0
VERTEX
8
Meshes
10
0.624018
20
-0.124125
30
-0.000000
70
192
0
VERTEX
8
Meshes
10
0.659473
20
-0.131177
30
-0.000000
70
192
0
VERTEX
8
Meshes
10
0.529017
20
-0.353478
30
-0.000000
70
192
0
VERTEX
8
Meshes
10
0.559075
20
-0.373562
30
-0.000000
70
192
0
VERTEX
8
Meshes
10
0.353478
20
-0.529017
30
-0.000000
70
192
0
VERTEX
8
Meshes
10
0.373562
20
-0.559075
30
-0.000000
70
192
0
VERTEX
8
Meshes
10
0.124125
20
-0.624018
30
-0.000000
70
192
0
VERTEX
8
Meshes
10
0.131178
20
-0.659473
30
-0.000000
70
192
0
VERTEX
8
Meshes
10
-0.124125
20
-0.624018
30
-0.000000
70
192
0
VERTEX
8
Meshes
10
-0.131177
20
-0.659473
30
-0.000000
70
192
0
VERTEX
8
Meshes
10
-0.353478
20
-0.529017
30
-0.000000
70
192
0
VERTEX
8
Meshes
10
-0.373562
20
-0.559075
30
-0.000000
70
192
0
VERTEX
8
Meshes
10
-0.529017
20
-0.353478
30
-0.000000
70
192
0
VERTEX
8
Meshes
10
-0.559075
20
-0.373562
30
-0.000000
70
192
0
VERTEX
8
Meshes
10
-0.624018
20
-0.124125
30
-0.000000
70
192
0
VERTEX
8
Meshes
10
-0.659473
20
-0.131177
30
-0.000000
70
192
0
VERTEX
8
Meshes
10
-0.624018
20
0.124125
30
0.000000
70
192
0
VERTEX
8
Meshes
10
-0.659473
20
0.131177
30
0.000000
70
192
0
VERTEX
8
Meshes
10
-0.529017
20
0.353478
30
0.000000
70
192
0
VERTEX
8
Meshes
10
-0.559074
20
0.373562
30
0.000000
70
192
0
VERTEX
8
Meshes
10
-0.353478
20
0.529017
30
0.000000
70
192
0
VERTEX
8
Meshes
10
-0.373561
20
0.559075
30
0.000000
70
192
0
VERTEX
8
Meshes
10
-0.124125
20
0.624019
30
0.000000
70
192
0
VERTEX
8
Meshes
10
-0.131177
20
0.659474
30
0.000000
70
192
0
VERTEX
8
Meshes
10
0.124125
20
0.624018
30
0.000000
70
192
0
VERTEX
8
Meshes
10
0.131178
20
0.659473
30
0.000000
70
192
0
VERTEX
8
Meshes
10
0.353478
20
0.529017
30
0.000000
70
192
0
VERTEX
8
Meshes
10
0.373562
20
0.559074
30
0.000000
70
192
0
VERTEX
8
Meshes
10
0.268613
20
-0.073419
30
0.006935
70
192
0
VERTEX
8
Meshes
10
0.100667
20
-0.173718
30
0.006935
70
192
0
VERTEX
8
Meshes
10
-0.067935
20
-0.274409
30
0.006935
70
192
0
VERTEX
8
Meshes
10
-0.157700
20
-0.216917
30
0.006935
70
192
0
VERTEX
8
Meshes
10
-0.157700
20
-0.010389
30
0.006935
70
192
0
VERTEX
8
Meshes
10
-0.157700
20
0.198192
30
0.006935
70
192
0
VERTEX
8
Meshes
10
-0.073748
20
0.259984
30
0.006935
70
192
0
VERTEX
8
Meshes
10
0.092352
20
0.160251
30
0.006935
70
192
0
VERTEX
8
Meshes
10
0.266112
20
0.055920
30
0.006935
70
192
0
VERTEX
8
Meshes
10
-0.100012
20
0.266858
30
0.006935
70
192
0
VERTEX
8
Meshes
10
-0.100012
20
-0.284125
30
0.006935
70
192
0
VERTEX
8
Meshes
10
0.297951
20
0.036385
30
0.006935
70
192
0
VERTEX
8
Meshes
10
-0.128862
20
0.259523
30
0.006935
70
192
0
VERTEX
8
Meshes
10
-0.149973
20
0.238413
30
0.006935
70
192
0
VERTEX
8
Meshes
10
-0.149973
20
-0.255084
30
0.006935
70
192
0
VERTEX
8
Meshes
10
-0.128862
20
-0.276194
30
0.006935
70
192
0
VERTEX
8
Meshes
10
0.297951
20
-0.055437
30
0.006935
70
192
0
VERTEX
8
Meshes
10
0.319062
20
-0.033601
30
0.006935
70
192
0
VERTEX
8
Meshes
10
0.326789
20
-0.009526
30
0.006935
70
192
0
VERTEX
8
Meshes
10
0.319062
20
0.014548
30
0.006935
70
192
0
VERTEX
8
Meshes
10
0.399725
20
0.598230
30
0.006935
70
192
0
VERTEX
8
Meshes
10
0.140365
20
0.705661
30
0.006935
70
192
0
VERTEX
8
Meshes
10
-0.140364
20
0.705661
30
0.006935
70
192
0
VERTEX
8
Meshes
10
-0.399724
20
0.598230
30
0.006935
70
192
0
VERTEX
8
Meshes
10
-0.598230
20
0.399725
30
0.006935
70
192
0
VERTEX
8
Meshes
10
-0.705661
20
0.140365
30
0.006935
70
192
0
VERTEX
8
Meshes
10
-0.705661
20
-0.140365
30
0.006935
70
192
0
VERTEX
8
Meshes
10
-0.598230
20
-0.399725
30
0.006935
70
192
0
VERTEX
8
Meshes
10
-0.399725
20
-0.598230
30
0.006935
70
192
0
VERTEX
8
Meshes
10
-0.140364
20
-0.705661
30
0.006935
70
192
0
VERTEX
8
Meshes
10
0.140365
20
-0.705661
30
0.006935
70
192
0
VERTEX
8
Meshes
10
0.399725
20
-0.598230
30
0.006935
70
192
0
VERTEX
8
Meshes
10
0.598230
20
-0.399725
30
0.006935
70
192
0
VERTEX
8
Meshes
10
0.705661
20
-0.140365
30
0.006935
70
192
0
VERTEX
8
Meshes
10
0.705661
20
0.140365
30
0.006935
70
192
0
VERTEX
8
Meshes
10
0.598230
20
0.399725
30
0.006935
70
192
0
VERTEX
8
Meshes
10
0.345445
20
0.516994
30
0.006935
70
192
0
VERTEX
8
Meshes
10
0.121305
20
0.609836
30
0.006935
70
192
0
VERTEX
8
Meshes
10
-0.121304
20
0.609837
30
0.006935
70
192
0
VERTEX
8
Meshes
10
-0.345444
20
0.516994
30
0.006935
70
192
0
VERTEX
8
Meshes
10
-0.516994
20
0.345445
30
0.006935
70
192
0
VERTEX
8
Meshes
10
-0.609836
20
0.121304
30
0.006935
70
192
0
VERTEX
8
Meshes
10
-0.609836
20
-0.121304
30
0.006935
70
192
0
VERTEX
8
Meshes
10
-0.516994
20
-0.345445
30
0.006935
70
192
0
VERTEX
8
Meshes
10
-0.345444
20
-0.516994
30
0.006935
70
192
0
VERTEX
8
Meshes
10
-0.121304
20
-0.609836
30
0.006935
70
192
0
VERTEX
8
Meshes
10
0.121304
20
-0.609836
30
0.006935
70
192
0
VERTEX
8
Meshes
10
0.345445
20
-0.516994
30
0.006935
70
192
0
VERTEX
8
Meshes
10
0.516994
20
-0.345445
30
0.006935
70
192
0
VERTEX
8
Meshes
10
0.609836
20
-0.121304
30
0.006935
70
192
0
VERTEX
8
Meshes
10
0.609836
20
0.121304
30
0.006935
70
192
0
VERTEX
8
Meshes
10
0.516994
20
0.345445
30
0.006935
70
192
0
VERTEX
8
Meshes
10
0.516994
20
0.345445
30
0.046222
70
192
0
VERTEX
8
Meshes
10
0.609836
20
0.121304
30
0.046222
70
192
0
VERTEX
8
Meshes
10
0.609836
20
-0.121304
30
0.046222
70
192
0
VERTEX
8
Meshes
10
0.516994
20
-0.345445
30
0.046222
70
192
0
VERTEX
8
Meshes
10
0.345445
20
-0.516994
30
0.046222
70
192
0
VERTEX
8
Meshes
10
0.121304
20
-0.609836
30
0.046222
70
192
0
VERTEX
8
Meshes
10
-0.121304
20
-0.609836
30
0.046222
70
192
0
VERTEX
8
Meshes
10
-0.345444
20
-0.516994
30
0.046222
70
192
0
VERTEX
8
Meshes
10
-0.516994
20
-0.345445
30
0.046222
70
192
0
VERTEX
8
Meshes
10
-0.609836
20
-0.121304
30
0.046222
70
192
0
VERTEX
8
Meshes
10
-0.609836
20
0.121304
30
0.046222
70
192
0
VERTEX
8
Meshes
10
-0.516994
20
0.345445
30
0.046222
70
192
0
VERTEX
8
Meshes
10
-0.345444
20
0.516994
30
0.046222
70
192
0
VERTEX
8
Meshes
10
-0.121304
20
0.609837
30
0.046222
70
192
0
VERTEX
8
Meshes
10
0.121305
20
0.609836
30
0.046222
70
192
0
VERTEX
8
Meshes
10
0.345445
20
0.516994
30
0.046222
70
192
0
VERTEX
8
Meshes
10
0.598230
20
0.399725
30
0.046222
70
192
0
VERTEX
8
Meshes
10
0.705661
20
0.140365
30
0.046222
70
192
0
VERTEX
8
Meshes
10
0.705661
20
-0.140365
30
0.046222
70
192
0
VERTEX
8
Meshes
10
0.598230
20
-0.399725
30
0.046222
70
192
0
VERTEX
8
Meshes
10
0.399725
20
-0.598230
30
0.046222
70
192
0
VERTEX
8
Meshes
10
0.140365
20
-0.705661
30
0.046222
70
192
0
VERTEX
8
Meshes
10
-0.140364
20
-0.705661
30
0.046222
70
192
0
VERTEX
8
Meshes
10
-0.399725
20
-0.598230
30
0.046222
70
192
0
VERTEX
8
Meshes
10
-0.598230
20
-0.399725
30
0.046222
70
192
0
VERTEX
8
Meshes
10
-0.705661
20
-0.140365
30
0.046222
70
192
0
VERTEX
8
Meshes
10
-0.705661
20
0.140365
30
0.046222
70
192
0
VERTEX
8
Meshes
10
-0.598230
20
0.399725
30
0.046222
70
192
0
VERTEX
8
Meshes
10
-0.399724
20
0.598230
30
0.046222
70
192
0
VERTEX
8
Meshes
10
-0.140364
20
0.705661
30
0.046222
70
192
0
VERTEX
8
Meshes
10
0.140365
20
0.705661
30
0.046222
70
192
0
VERTEX
8
Meshes
10
0.399725
20
0.598230
30
0.046222
70
192
0
VERTEX
8
Meshes
10
0.319062
20
0.014548
30
0.046222
70
192
0
VERTEX
8
Meshes
10
0.326789
20
-0.009526
30
0.046222
70
192
0
VERTEX
8
Meshes
10
0.319062
20
-0.033601
30
0.046222
70
192
0
VERTEX
8
Meshes
10
0.297951
20
-0.055437
30
0.046222
70
192
0
VERTEX
8
Meshes
10
-0.128862
20
-0.276194
30
0.046222
70
192
0
VERTEX
8
Meshes
10
-0.149973
20
-0.255084
30
0.046222
70
192
0
VERTEX
8
Meshes
10
-0.149973
20
0.238413
30
0.046222
70
192
0
VERTEX
8
Meshes
10
-0.128862
20
0.259523
30
0.046222
70
192
0
VERTEX
8
Meshes
10
0.297951
20
0.036385
30
0.046222
70
192
0
VERTEX
8
Meshes
10
-0.100012
20
-0.284125
30
0.046222
70
192
0
VERTEX
8
Meshes
10
-0.100012
20
0.266858
30
0.046222
70
192
0
VERTEX
8
Meshes
10
0.266112
20
0.055920
30
0.046222
70
192
0
VERTEX
8
Meshes
10
0.092352
20
0.160251
30
0.046222
70
192
0
VERTEX
8
Meshes
10
-0.073748
20
0.259984
30
0.046222
70
192
0
VERTEX
8
Meshes
10
-0.157700
20
0.198192
30
0.046222
70
192
0
VERTEX
8
Meshes
10
-0.157700
20
-0.010389
30
0.046222
70
192
0
VERTEX
8
Meshes
10
-0.157700
20
-0.216917
30
0.046222
70
192
0
VERTEX
8
Meshes
10
-0.067935
20
-0.274409
30
0.046222
70
192
0
VERTEX
8
Meshes
10
0.100667
20
-0.173718
30
0.046222
70
192
0
VERTEX
8
Meshes
10
0.268613
20
-0.073419
30
0.046222
70
192
0
VERTEX
8
Meshes
10
0.268613
20
-0.073419
30
0.086922
70
192
0
VERTEX
8
Meshes
10
0.100667
20
-0.173718
30
0.086922
70
192
0
VERTEX
8
Meshes
10
-0.067935
20
-0.274409
30
0.086922
70
192
0
VERTEX
8
Meshes
10
-0.157700
20
-0.216917
30
0.086922
70
192
0
VERTEX
8
Meshes
10
-0.157700
20
-0.010389
30
0.086922
70
192
0
VERTEX
8
Meshes
10
-0.157700
20
0.198192
30
0.086922
70
192
0
VERTEX
8
Meshes
10
-0.073748
20
0.259984
30
0.086922
70
192
0
VERTEX
8
Meshes
10
0.092352
20
0.160251
30
0.086922
70
192
0
VERTEX
8
Meshes
10
0.266112
20
0.055920
30
0.086922
70
192
0
VERTEX
8
Meshes
10
-0.100012
20
0.266858
30
0.086922
70
192
0
VERTEX
8
Meshes
10
-0.100012
20
-0.284125
30
0.086922
70
192
0
VERTEX
8
Meshes
10
0.297951
20
0.036385
30
0.086922
70
192
0
VERTEX
8
Meshes
10
-0.128862
20
0.259523
30
0.086922
70
192
0
VERTEX
8
Meshes
10
-0.149973
20
0.238413
30
0.086922
70
192
0
VERTEX
8
Meshes
10
-0.149973
20
-0.255084
30
0.086922
70
192
0
VERTEX
8
Meshes
10
-0.128862
20
-0.276194
30
0.086922
70
192
0
VERTEX
8
Meshes
10
0.297951
20
-0.055437
30
0.086922
70
192
0
VERTEX
8
Meshes
10
0.319062
20
-0.033601
30
0.086922
70
192
0
VERTEX
8
Meshes
10
0.326789
20
-0.009526
30
0.086922
70
192
0
VERTEX
8
Meshes
10
0.319062
20
0.014548
30
0.086922
70
192
0
VERTEX
8
Meshes
10
0.399725
20
0.598230
30
0.086922
70
192
0
VERTEX
8
Meshes
10
0.140365
20
0.705661
30
0.086922
70
192
0
VERTEX
8
Meshes
10
-0.140364
20
0.705661
30
0.086922
70
192
0
VERTEX
8
Meshes
10
-0.399724
20
0.598230
30
0.086922
70
192
0
VERTEX
8
Meshes
10
-0.598230
20
0.399725
30
0.086922
70
192
0
VERTEX
8
Meshes
10
-0.705661
20
0.140365
30
0.086922
70
192
0
VERTEX
8
Meshes
10
-0.705661
20
-0.140365
30
0.086922
70
192
0
VERTEX
8
Meshes
10
-0.598230
20
-0.399725
30
0.086922
70
192
0
VERTEX
8
Meshes
10
-0.399725
20
-0.598230
30
0.086922
70
192
0
VERTEX
8
Meshes
10
-0.140364
20
-0.705661
30
0.086922
70
192
0
VERTEX
8
Meshes
10
0.140365
20
-0.705661
30
0.086922
70
192
0
VERTEX
8
Meshes
10
0.399725
20
-0.598230
30
0.086922
70
192
0
VERTEX
8
Meshes
10
0.598230
20
-0.399725
30
0.086922
70
192
0
VERTEX
8
Meshes
10
0.705661
20
-0.140365
30
0.086922
70
192
0
VERTEX
8
Meshes
10
0.705661
20
0.140365
30
0.086922
70
192
0
VERTEX
8
Meshes
10
0.598230
20
0.399725
30
0.086922
70
192
0
VERTEX
8
Meshes
10
0.345445
20
0.516994
30
0.086922
70
192
0
VERTEX
8
Meshes
10
0.121305
20
0.609836
30
0.086922
70
192
0
VERTEX
8
Meshes
10
-0.121304
20
0.609837
30
0.086922
70
192
0
VERTEX
8
Meshes
10
-0.345444
20
0.516994
30
0.086922
70
192
0
VERTEX
8
Meshes
10
-0.516994
20
0.345445
30
0.086922
70
192
0
VERTEX
8
Meshes
10
-0.609836
20
0.121304
30
0.086922
70
192
0
VERTEX
8
Meshes
10
-0.609836
20
-0.121304
30
0.086922
70
192
0
VERTEX
8
Meshes
10
-0.516994
20
-0.345445
30
0.086922
70
192
0
VERTEX
8
Meshes
10
-0.345444
20
-0.516994
30
0.086922
70
192
0
VERTEX
8
Meshes
10
-0.121304
20
-0.609836
30
0.086922
70
192
0
VERTEX
8
Meshes
10
0.121304
20
-0.609836
30
0.086922
70
192
0
VERTEX
8
Meshes
10
0.345445
20
-0.516994
30
0.086922
70
192
0
VERTEX
8
Meshes
10
0.516994
20
-0.345445
30
0.086922
70
192
0
VERTEX
8
Meshes
10
0.609836
20
-0.121304
30
0.086922
70
192
0
VERTEX
8
Meshes
10
0.609836
20
0.121304
30
0.086922
70
192
0
VERTEX
8
Meshes
10
0.516994
20
0.345445
30
0.086922
70
192
0
VERTEX
8
Meshes
10
0.296041
20
0.012459
30
0.095270
70
192
0
VERTEX
8
Meshes
10
0.303080
20
-0.009473
30
0.095270
70
192
0
VERTEX
8
Meshes
10
0.296041
20
-0.031405
30
0.095270
70
192
0
VERTEX
8
Meshes
10
0.276809
20
-0.051299
30
0.095270
70
192
0
VERTEX
8
Meshes
10
-0.112019
20
-0.252409
30
0.095270
70
192
0
VERTEX
8
Meshes
10
-0.131251
20
-0.233177
30
0.095270
70
192
0
VERTEX
8
Meshes
10
-0.131251
20
0.216400
30
0.095271
70
192
0
VERTEX
8
Meshes
10
-0.112019
20
0.235632
30
0.095271
70
192
0
VERTEX
8
Meshes
10
0.276809
20
0.032352
30
0.095270
70
192
0
VERTEX
8
Meshes
10
-0.085736
20
-0.259633
30
0.095270
70
192
0
VERTEX
8
Meshes
10
-0.085737
20
0.242314
30
0.095271
70
192
0
VERTEX
8
Meshes
10
0.202143
20
0.003936
30
0.095270
70
192
0
VERTEX
8
Meshes
10
0.206377
20
-0.009257
30
0.095270
70
192
0
VERTEX
8
Meshes
10
0.202143
20
-0.022450
30
0.095270
70
192
0
VERTEX
8
Meshes
10
0.190574
20
-0.034417
30
0.095270
70
192
0
VERTEX
8
Meshes
10
-0.043321
20
-0.155392
30
0.095270
70
192
0
VERTEX
8
Meshes
10
-0.054890
20
-0.143824
30
0.095270
70
192
0
VERTEX
8
Meshes
10
-0.054890
20
0.126614
30
0.095271
70
192
0
VERTEX
8
Meshes
10
-0.043321
20
0.138183
30
0.095271
70
192
0
VERTEX
8
Meshes
10
0.190574
20
0.015902
30
0.095270
70
192
0
VERTEX
8
Meshes
10
-0.027511
20
-0.159738
30
0.095270
70
192
0
VERTEX
8
Meshes
10
-0.027511
20
0.142203
30
0.095271
70
192
0
VERTEX
8
Meshes
10
0.247803
20
0.050148
30
0.095270
70
192
0
VERTEX
8
Meshes
10
0.173126
20
0.026607
30
0.095270
70
192
0
VERTEX
8
Meshes
10
0.089508
20
0.145195
30
0.095270
70
192
0
VERTEX
8
Meshes
10
-0.061810
20
0.236051
30
0.095271
70
192
0
VERTEX
8
Meshes
10
0.077905
20
0.083782
30
0.095270
70
192
0
VERTEX
8
Meshes
10
-0.013119
20
0.138435
30
0.095271
70
192
0
VERTEX
8
Meshes
10
-0.138290
20
0.179759
30
0.095271
70
192
0
VERTEX
8
Meshes
10
-0.059124
20
0.104573
30
0.095271
70
192
0
VERTEX
8
Meshes
10
-0.138290
20
-0.010259
30
0.095270
70
192
0
VERTEX
8
Meshes
10
-0.138290
20
-0.198407
30
0.095270
70
192
0
VERTEX
8
Meshes
10
-0.059124
20
-0.009730
30
0.095270
70
192
0
VERTEX
8
Meshes
10
-0.059124
20
-0.122908
30
0.095270
70
192
0
VERTEX
8
Meshes
10
-0.056514
20
-0.250782
30
0.095270
70
192
0
VERTEX
8
Meshes
10
-0.009933
20
-0.154414
30
0.095270
70
192
0
VERTEX
8
Meshes
10
0.097082
20
-0.159053
30
0.095270
70
192
0
VERTEX
8
Meshes
10
0.250081
20
-0.067680
30
0.095270
70
192
0
VERTEX
8
Meshes
10
0.082461
20
-0.099235
30
0.095270
70
192
0
VERTEX
8
Meshes
10
0.174496
20
-0.044271
30
0.095270
70
192
0
VERTEX
8
Meshes
10
0.587670
20
0.392668
30
0.095271
70
192
0
VERTEX
8
Meshes
10
0.693204
20
0.137887
30
0.095271
70
192
0
VERTEX
8
Meshes
10
0.693204
20
-0.137887
30
0.095270
70
192
0
VERTEX
8
Meshes
10
0.587670
20
-0.392668
30
0.095270
70
192
0
VERTEX
8
Meshes
10
0.392668
20
-0.587670
30
0.095270
70
192
0
VERTEX
8
Meshes
10
0.137887
20
-0.693204
30
0.095270
70
192
0
VERTEX
8
Meshes
10
-0.137887
20
-0.693204
30
0.095270
70
192
0
VERTEX
8
Meshes
10
-0.392668
20
-0.587670
30
0.095270
70
192
0
VERTEX
8
Meshes
10
-0.587670
20
-0.392668
30
0.095270
70
192
0
VERTEX
8
Meshes
10
-0.693204
20
-0.137887
30
0.095270
70
192
0
VERTEX
8
Meshes
10
-0.693204
20
0.137887
30
0.095271
70
192
0
VERTEX
8
Meshes
10
-0.587669
20
0.392668
30
0.095271
70
192
0
VERTEX
8
Meshes
10
-0.392668
20
0.587670
30
0.095271
70
192
0
VERTEX
8
Meshes
10
-0.137886
20
0.693204
30
0.095271
70
192
0
VERTEX
8
Meshes
10
0.137887
20
0.693204
30
0.095271
70
192
0
VERTEX
8
Meshes
10
0.392669
20
0.587670
30
0.095271
70
192
0
VERTEX
8
Meshes
10
0.529017
20
0.353478
30
0.095271
70
192
0
VERTEX
8
Meshes
10
0.559075
20
0.373562
30
0.095271
70
192
0
VERTEX
8
Meshes
10
0.624019
20
0.124125
30
0.095270
70
192
0
VERTEX
8
Meshes
10
0.659473
20
0.131177
30
0.095270
70
192
0
VERTEX
8
Meshes
10
0.624018
20
-0.124125
30
0.095270
70
192
0
VERTEX
8
Meshes
10
0.659473
20
-0.131177
30
0.095270
70
192
0
VERTEX
8
Meshes
10
0.529017
20
-0.353478
30
0.095270
70
192
0
VERTEX
8
Meshes
10
0.559075
20
-0.373562
30
0.095270
70
192
0
VERTEX
8
Meshes
10
0.353478
20
-0.529017
30
0.095270
70
192
0
VERTEX
8
Meshes
10
0.373562
20
-0.559075
30
0.095270
70
192
0
VERTEX
8
Meshes
10
0.124125
20
-0.624018
30
0.095270
70
192
0
VERTEX
8
Meshes
10
0.131178
20
-0.659473
30
0.095270
70
192
0
VERTEX
8
Meshes
10
-0.124125
20
-0.624018
30
0.095270
70
192
0
VERTEX
8
Meshes
10
-0.131177
20
-0.659473
30
0.095270
70
192
0
VERTEX
8
Meshes
10
-0.353478
20
-0.529017
30
0.095270
70
192
0
VERTEX
8
Meshes
10
-0.373562
20
-0.559075
30
0.095270
70
192
0
VERTEX
8
Meshes
10
-0.529017
20
-0.353478
30
0.095270
70
192
0
VERTEX
8
Meshes
10
-0.559075
20
-0.373562
30
0.095270
70
192
0
VERTEX
8
Meshes
10
-0.624018
20
-0.124125
30
0.095270
70
192
0
VERTEX
8
Meshes
10
-0.659473
20
-0.131177
30
0.095270
70
192
0
VERTEX
8
Meshes
10
-0.624018
20
0.124125
30
0.095270
70
192
0
VERTEX
8
Meshes
10
-0.659473
20
0.131177
30
0.095271
70
192
0
VERTEX
8
Meshes
10
-0.529017
20
0.353478
30
0.095271
70
192
0
VERTEX
8
Meshes
10
-0.559074
20
0.373562
30
0.095271
70
192
0
VERTEX
8
Meshes
10
-0.353478
20
0.529017
30
0.095271
70
192
0
VERTEX
8
Meshes
10
-0.373561
20
0.559075
30
0.095271
70
192
0
VERTEX
8
Meshes
10
-0.124125
20
0.624018
30
0.095271
70
192
0
VERTEX
8
Meshes
10
-0.131177
20
0.659474
30
0.095271
70
192
0
VERTEX
8
Meshes
10
0.353478
20
0.529017
30
0.095271
70
192
0
VERTEX
8
Meshes
10
0.124125
20
0.624018
30
0.095271
70
192
0
VERTEX
8
Meshes
10
0.373562
20
0.559074
30
0.095271
70
192
0
VERTEX
8
Meshes
10
0.131178
20
0.659473
30
0.095271
70
192
0
VERTEX
8
Meshes
10
0.520000
20
0.347453
30
0.001734
70
192
0
VERTEX
8
Meshes
10
0.613382
20
0.122009
30
0.001734
70
192
0
VERTEX
8
Meshes
10
0.613382
20
-0.122009
30
0.001734
70
192
0
VERTEX
8
Meshes
10
0.520000
20
-0.347453
30
0.001734
70
192
0
VERTEX
8
Meshes
10
0.347453
20
-0.520000
30
0.001734
70
192
0
VERTEX
8
Meshes
10
0.122009
20
-0.613382
30
0.001734
70
192
0
VERTEX
8
Meshes
10
-0.122009
20
-0.613382
30
0.001734
70
192
0
VERTEX
8
Meshes
10
-0.347453
20
-0.520000
30
0.001734
70
192
0
VERTEX
8
Meshes
10
-0.520000
20
-0.347453
30
0.001734
70
192
0
VERTEX
8
Meshes
10
-0.613382
20
-0.122009
30
0.001734
70
192
0
VERTEX
8
Meshes
10
-0.613382
20
0.122009
30
0.001734
70
192
0
VERTEX
8
Meshes
10
-0.520000
20
0.347453
30
0.001734
70
192
0
VERTEX
8
Meshes
10
-0.347453
20
0.520000
30
0.001734
70
192
0
VERTEX
8
Meshes
10
-0.122009
20
0.613382
30
0.001734
70
192
0
VERTEX
8
Meshes
10
0.122010
20
0.613382
30
0.001734
70
192
0
VERTEX
8
Meshes
10
0.347453
20
0.520000
30
0.001734
70
192
0
VERTEX
8
Meshes
10
0.595590
20
0.397961
30
0.001734
70
192
0
VERTEX
8
Meshes
10
0.702547
20
0.139745
30
0.001734
70
192
0
VERTEX
8
Meshes
10
0.702547
20
-0.139745
30
0.001734
70
192
0
VERTEX
8
Meshes
10
0.595590
20
-0.397961
30
0.001734
70
192
0
VERTEX
8
Meshes
10
0.397961
20
-0.595590
30
0.001734
70
192
0
VERTEX
8
Meshes
10
0.139745
20
-0.702547
30
0.001734
70
192
0
VERTEX
8
Meshes
10
-0.139745
20
-0.702547
30
0.001734
70
192
0
VERTEX
8
Meshes
10
-0.397960
20
-0.595590
30
0.001734
70
192
0
VERTEX
8
Meshes
10
-0.595590
20
-0.397961
30
0.001734
70
192
0
VERTEX
8
Meshes
10
-0.702546
20
-0.139745
30
0.001734
70
192
0
VERTEX
8
Meshes
10
-0.702546
20
0.139745
30
0.001734
70
192
0
VERTEX
8
Meshes
10
-0.595590
20
0.397961
30
0.001734
70
192
0
VERTEX
8
Meshes
10
-0.397960
20
0.595590
30
0.001734
70
192
0
VERTEX
8
Meshes
10
-0.139745
20
0.702547
30
0.001734
70
192
0
VERTEX
8
Meshes
10
0.139746
20
0.702546
30
0.001734
70
192
0
VERTEX
8
Meshes
10
0.397961
20
0.595590
30
0.001734
70
192
0
VERTEX
8
Meshes
10
0.313306
20
0.014026
30
0.001734
70
192
0
VERTEX
8
Meshes
10
0.320861
20
-0.009513
30
0.001734
70
192
0
VERTEX
8
Meshes
10
0.313306
20
-0.033052
30
0.001734
70
192
0
VERTEX
8
Meshes
10
0.292666
20
-0.054403
30
0.001734
70
192
0
VERTEX
8
Meshes
10
-0.124651
20
-0.270248
30
0.001734
70
192
0
VERTEX
8
Meshes
10
-0.145292
20
-0.249607
30
0.001734
70
192
0
VERTEX
8
Meshes
10
-0.145292
20
0.232909
30
0.001734
70
192
0
VERTEX
8
Meshes
10
-0.124652
20
0.253550
30
0.001734
70
192
0
VERTEX
8
Meshes
10
0.292666
20
0.035377
30
0.001734
70
192
0
VERTEX
8
Meshes
10
-0.096443
20
-0.278002
30
0.001734
70
192
0
VERTEX
8
Meshes
10
-0.096443
20
0.260722
30
0.001734
70
192
0
VERTEX
8
Meshes
10
0.287713
20
0.023528
30
-0.000000
70
192
0
VERTEX
8
Meshes
10
0.261055
20
0.009283
30
-0.000000
70
192
0
VERTEX
8
Meshes
10
0.301320
20
0.000879
30
-0.000000
70
192
0
VERTEX
8
Meshes
10
0.267050
20
-0.009393
30
-0.000000
70
192
0
VERTEX
8
Meshes
10
0.301320
20
-0.019826
30
-0.000000
70
192
0
VERTEX
8
Meshes
10
0.261055
20
-0.028069
30
-0.000000
70
192
0
VERTEX
8
Meshes
10
0.287713
20
-0.042475
30
-0.000000
70
192
0
VERTEX
8
Meshes
10
0.244679
20
-0.045009
30
-0.000000
70
192
0
VERTEX
8
Meshes
10
0.264031
20
-0.059244
30
-0.000000
70
192
0
VERTEX
8
Meshes
10
-0.099352
20
-0.257734
30
-0.000000
70
192
0
VERTEX
8
Meshes
10
-0.086423
20
-0.216262
30
-0.000000
70
192
0
VERTEX
8
Meshes
10
-0.122924
20
-0.244081
30
-0.000000
70
192
0
VERTEX
8
Meshes
10
-0.102800
20
-0.199885
30
-0.000000
70
192
0
VERTEX
8
Meshes
10
-0.136531
20
-0.218388
30
-0.000000
70
192
0
VERTEX
8
Meshes
10
-0.136531
20
0.201143
30
0.000000
70
192
0
VERTEX
8
Meshes
10
-0.122924
20
0.227304
30
0.000000
70
192
0
VERTEX
8
Meshes
10
-0.102800
20
0.182947
30
0.000000
70
192
0
VERTEX
8
Meshes
10
-0.086424
20
0.199324
30
0.000000
70
192
0
VERTEX
8
Meshes
10
-0.099352
20
0.240822
30
0.000000
70
192
0
VERTEX
8
Meshes
10
0.263461
20
0.040651
30
-0.000000
70
192
0
VERTEX
8
Meshes
10
0.244679
20
0.026223
30
-0.000000
70
192
0
VERTEX
8
Meshes
10
-0.071386
20
-0.257513
30
-0.000000
70
192
0
VERTEX
8
Meshes
10
-0.064043
20
-0.222414
30
-0.000000
70
192
0
VERTEX
8
Meshes
10
-0.064043
20
0.205014
30
0.000000
70
192
0
VERTEX
8
Meshes
10
-0.072710
20
0.240570
30
0.000000
70
192
0
VERTEX
8
Meshes
10
0.187070
20
-0.003721
30
-0.000000
70
192
0
VERTEX
8
Meshes
10
-0.009747
20
0.122289
30
0.000000
70
192
0
VERTEX
8
Meshes
10
-0.008951
20
-0.139598
30
-0.000000
70
192
0
VERTEX
8
Meshes
10
0.167188
20
0.017212
30
-0.000000
70
192
0
VERTEX
8
Meshes
10
-0.023655
20
0.122387
30
0.000000
70
192
0
VERTEX
8
Meshes
10
-0.036000
20
0.115314
30
0.000000
70
192
0
VERTEX
8
Meshes
10
-0.043127
20
0.101411
30
0.000000
70
192
0
VERTEX
8
Meshes
10
-0.043127
20
-0.118983
30
-0.000000
70
192
0
VERTEX
8
Meshes
10
-0.036000
20
-0.132604
30
-0.000000
70
192
0
VERTEX
8
Meshes
10
-0.023655
20
-0.139759
30
-0.000000
70
192
0
VERTEX
8
Meshes
10
0.167531
20
-0.035432
30
-0.000000
70
192
0
VERTEX
8
Meshes
10
0.179943
20
-0.026502
30
-0.000000
70
192
0
VERTEX
8
Meshes
10
0.187070
20
-0.014712
30
-0.000000
70
192
0
VERTEX
8
Meshes
10
0.179943
20
0.008069
30
-0.000000
70
192
0
VERTEX
8
Meshes
10
0.261535
20
0.054477
30
0.001734
70
192
0
VERTEX
8
Meshes
10
0.219979
20
0.041377
30
-0.000000
70
192
0
VERTEX
8
Meshes
10
0.199823
20
0.078957
30
-0.000000
70
192
0
VERTEX
8
Meshes
10
0.131436
20
0.038736
30
-0.000000
70
192
0
VERTEX
8
Meshes
10
0.091641
20
0.156487
30
0.001734
70
192
0
VERTEX
8
Meshes
10
-0.070764
20
0.254001
30
0.001734
70
192
0
VERTEX
8
Meshes
10
0.085185
20
0.122313
30
-0.000000
70
192
0
VERTEX
8
Meshes
10
-0.043669
20
0.199681
30
0.000000
70
192
0
VERTEX
8
Meshes
10
-0.019063
20
0.210384
30
0.000000
70
192
0
VERTEX
8
Meshes
10
0.021044
20
0.105019
30
-0.000000
70
192
0
VERTEX
8
Meshes
10
-0.152847
20
0.193584
30
0.001734
70
192
0
VERTEX
8
Meshes
10
-0.108794
20
0.151746
30
0.000000
70
192
0
VERTEX
8
Meshes
10
-0.138290
20
0.120030
30
0.000000
70
192
0
VERTEX
8
Meshes
10
-0.044185
20
0.056294
30
-0.000000
70
192
0
VERTEX
8
Meshes
10
-0.152847
20
-0.010357
30
0.001734
70
192
0
VERTEX
8
Meshes
10
-0.152847
20
-0.212289
30
0.001734
70
192
0
VERTEX
8
Meshes
10
-0.108794
20
-0.010062
30
-0.000000
70
192
0
VERTEX
8
Meshes
10
-0.108794
20
-0.170277
30
-0.000000
70
192
0
VERTEX
8
Meshes
10
-0.138290
20
-0.140081
30
-0.000000
70
192
0
VERTEX
8
Meshes
10
-0.044185
20
-0.075273
30
-0.000000
70
192
0
VERTEX
8
Meshes
10
-0.065080
20
-0.268502
30
0.001734
70
192
0
VERTEX
8
Meshes
10
-0.039159
20
-0.214877
30
-0.000000
70
192
0
VERTEX
8
Meshes
10
-0.010549
20
-0.223331
30
-0.000000
70
192
0
VERTEX
8
Meshes
10
0.025369
20
-0.120395
30
-0.000000
70
192
0
VERTEX
8
Meshes
10
0.099771
20
-0.170052
30
0.001734
70
192
0
VERTEX
8
Meshes
10
0.263980
20
-0.071984
30
0.001734
70
192
0
VERTEX
8
Meshes
10
0.091635
20
-0.136765
30
-0.000000
70
192
0
VERTEX
8
Meshes
10
0.221919
20
-0.058958
30
-0.000000
70
192
0
VERTEX
8
Meshes
10
0.204564
20
-0.094863
30
-0.000000
70
192
0
VERTEX
8
Meshes
10
0.133945
20
-0.055552
30
-0.000000
70
192
0
VERTEX
8
Meshes
10
0.499866
20
0.499866
30
0.000000
70
192
0
VERTEX
8
Meshes
10
0.653106
20
0.270526
30
0.000000
70
192
0
VERTEX
8
Meshes
10
0.706917
20
-0.000000
30
-0.000000
70
192
0
VERTEX
8
Meshes
10
0.653106
20
-0.270526
30
-0.000000
70
192
0
VERTEX
8
Meshes
10
0.499866
20
-0.499866
30
-0.000000
70
192
0
VERTEX
8
Meshes
10
0.270526
20
-0.653106
30
-0.000000
70
192
0
VERTEX
8
Meshes
10
0.000000
20
-0.706917
30
-0.000000
70
192
0
VERTEX
8
Meshes
10
-0.270525
20
-0.653107
30
-0.000000
70
192
0
VERTEX
8
Meshes
10
-0.499866
20
-0.499866
30
-0.000000
70
192
0
VERTEX
8
Meshes
10
-0.653106
20
-0.270526
30
-0.000000
70
192
0
VERTEX
8
Meshes
10
-0.706917
20
0.000000
30
0.000000
70
192
0
VERTEX
8
Meshes
10
-0.653106
20
0.270526
30
0.000000
70
192
0
VERTEX
8
Meshes
10
-0.499866
20
0.499866
30
0.000000
70
192
0
VERTEX
8
Meshes
10
-0.270525
20
0.653107
30
0.000000
70
192
0
VERTEX
8
Meshes
10
0.000000
20
0.706917
30
0.000000
70
192
0
VERTEX
8
Meshes
10
0.270526
20
0.653106
30
0.000000
70
192
0
VERTEX
8
Meshes
10
0.575241
20
0.384363
30
0.000000
70
192
0
VERTEX
8
Meshes
10
0.678542
20
0.134970
30
0.000000
70
192
0
VERTEX
8
Meshes
10
0.678542
20
-0.134971
30
-0.000000
70
192
0
VERTEX
8
Meshes
10
0.575241
20
-0.384364
30
-0.000000
70
192
0
VERTEX
8
Meshes
10
0.384364
20
-0.575241
30
-0.000000
70
192
0
VERTEX
8
Meshes
10
0.134971
20
-0.678542
30
-0.000000
70
192
0
VERTEX
8
Meshes
10
-0.134970
20
-0.678542
30
-0.000000
70
192
0
VERTEX
8
Meshes
10
-0.384363
20
-0.575241
30
-0.000000
70
192
0
VERTEX
8
Meshes
10
-0.575240
20
-0.384364
30
-0.000000
70
192
0
VERTEX
8
Meshes
10
-0.678542
20
-0.134971
30
-0.000000
70
192
0
VERTEX
8
Meshes
10
-0.678542
20
0.134971
30
0.000000
70
192
0
VERTEX
8
Meshes
10
-0.575240
20
0.384364
30
0.000000
70
192
0
VERTEX
8
Meshes
10
-0.384363
20
0.575241
30
0.000000
70
192
0
VERTEX
8
Meshes
10
-0.134970
20
0.678543
30
0.000000
70
192
0
VERTEX
8
Meshes
10
0.134971
20
0.678542
30
0.000000
70
192
0
VERTEX
8
Meshes
10
0.384364
20
0.575240
30
0.000000
70
192
0
VERTEX
8
Meshes
10
0.475543
20
0.475543
30
0.000000
70
192
0
VERTEX
8
Meshes
10
0.449977
20
0.449977
30
0.000000
70
192
0
VERTEX
8
Meshes
10
0.621327
20
0.257362
30
0.000000
70
192
0
VERTEX
8
Meshes
10
0.587923
20
0.243526
30
0.000000
70
192
0
VERTEX
8
Meshes
10
0.672520
20
-0.000000
30
-0.000000
70
192
0
VERTEX
8
Meshes
10
0.636364
20
-0.000000
30
-0.000000
70
192
0
VERTEX
8
Meshes
10
0.621327
20
-0.257362
30
-0.000000
70
192
0
VERTEX
8
Meshes
10
0.587923
20
-0.243526
30
-0.000000
70
192
0
VERTEX
8
Meshes
10
0.475543
20
-0.475543
30
-0.000000
70
192
0
VERTEX
8
Meshes
10
0.449977
20
-0.449977
30
-0.000000
70
192
0
VERTEX
8
Meshes
10
0.257362
20
-0.621327
30
-0.000000
70
192
0
VERTEX
8
Meshes
10
0.243526
20
-0.587923
30
-0.000000
70
192
0
VERTEX
8
Meshes
10
0.000000
20
-0.672520
30
-0.000000
70
192
0
VERTEX
8
Meshes
10
0.000000
20
-0.636363
30
-0.000000
70
192
0
VERTEX
8
Meshes
10
-0.257362
20
-0.621327
30
-0.000000
70
192
0
VERTEX
8
Meshes
10
-0.243526
20
-0.587923
30
-0.000000
70
192
0
VERTEX
8
Meshes
10
-0.475543
20
-0.475544
30
-0.000000
70
192
0
VERTEX
8
Meshes
10
-0.449977
20
-0.449977
30
-0.000000
70
192
0
VERTEX
8
Meshes
10
-0.621327
20
-0.257362
30
-0.000000
70
192
0
VERTEX
8
Meshes
10
-0.587923
20
-0.243526
30
-0.000000
70
192
0
VERTEX
8
Meshes
10
-0.672520
20
0.000000
30
0.000000
70
192
0
VERTEX
8
Meshes
10
-0.636363
20
0.000000
30
0.000000
70
192
0
VERTEX
8
Meshes
10
-0.621327
20
0.257362
30
0.000000
70
192
0
VERTEX
8
Meshes
10
-0.587923
20
0.243526
30
0.000000
70
192
0
VERTEX
8
Meshes
10
-0.475543
20
0.475543
30
0.000000
70
192
0
VERTEX
8
Meshes
10
-0.449977
20
0.449977
30
0.000000
70
192
0
VERTEX
8
Meshes
10
-0.257362
20
0.621327
30
0.000000
70
192
0
VERTEX
8
Meshes
10
-0.243525
20
0.587923
30
0.000000
70
192
0
VERTEX
8
Meshes
10
0.000000
20
0.672520
30
0.000000
70
192
0
VERTEX
8
Meshes
10
0.000000
20
0.636363
30
0.000000
70
192
0
VERTEX
8
Meshes
10
0.257363
20
0.621327
30
0.000000
70
192
0
VERTEX
8
Meshes
10
0.243526
20
0.587923
30
0.000000
70
192
0
VERTEX
8
Meshes
10
0.542543
20
0.362516
30
0.000000
70
192
0
VERTEX
8
Meshes
10
0.639973
20
0.127299
30
0.000000
70
192
0
VERTEX
8
Meshes
10
0.639973
20
-0.127299
30
-0.000000
70
192
0
VERTEX
8
Meshes
10
0.542543
20
-0.362516
30
-0.000000
70
192
0
VERTEX
8
Meshes
10
0.362516
20
-0.542543
30
-0.000000
70
192
0
VERTEX
8
Meshes
10
0.127299
20
-0.639973
30
-0.000000
70
192
0
VERTEX
8
Meshes
10
-0.127298
20
-0.639973
30
-0.000000
70
192
0
VERTEX
8
Meshes
10
-0.362516
20
-0.542543
30
-0.000000
70
192
0
VERTEX
8
Meshes
10
-0.542543
20
-0.362516
30
-0.000000
70
192
0
VERTEX
8
Meshes
10
-0.639973
20
-0.127299
30
-0.000000
70
192
0
VERTEX
8
Meshes
10
-0.639973
20
0.127299
30
0.000000
70
192
0
VERTEX
8
Meshes
10
-0.542543
20
0.362516
30
0.000000
70
192
0
VERTEX
8
Meshes
10
-0.362515
20
0.542543
30
0.000000
70
192
0
VERTEX
8
Meshes
10
-0.127298
20
0.639973
30
0.000000
70
192
0
VERTEX
8
Meshes
10
0.127299
20
0.639973
30
0.000000
70
192
0
VERTEX
8
Meshes
10
0.362516
20
0.542543
30
0.000000
70
192
0
VERTEX
8
Meshes
10
0.218649
20
-0.103258
30
0.006935
70
192
0
VERTEX
8
Meshes
10
0.268613
20
-0.073419
30
0.020225
70
192
0
VERTEX
8
Meshes
10
0.283925
20
-0.064159
30
0.006935
70
192
0
VERTEX
8
Meshes
10
-0.017479
20
-0.244276
30
0.006935
70
192
0
VERTEX
8
Meshes
10
0.100667
20
-0.173718
30
0.020225
70
192
0
VERTEX
8
Meshes
10
-0.084259
20
-0.281798
30
0.006935
70
192
0
VERTEX
8
Meshes
10
-0.067935
20
-0.274409
30
0.020225
70
192
0
VERTEX
8
Meshes
10
-0.157700
20
-0.152893
30
0.006935
70
192
0
VERTEX
8
Meshes
10
-0.157700
20
-0.216917
30
0.020225
70
192
0
VERTEX
8
Meshes
10
-0.155768
20
-0.238850
30
0.006935
70
192
0
VERTEX
8
Meshes
10
-0.157700
20
0.132628
30
0.006935
70
192
0
VERTEX
8
Meshes
10
-0.157700
20
-0.010389
30
0.020225
70
192
0
VERTEX
8
Meshes
10
-0.155768
20
0.221666
30
0.006935
70
192
0
VERTEX
8
Meshes
10
-0.157700
20
0.198192
30
0.020225
70
192
0
VERTEX
8
Meshes
10
-0.026825
20
0.231810
30
0.006935
70
192
0
VERTEX
8
Meshes
10
-0.073748
20
0.259984
30
0.020225
70
192
0
VERTEX
8
Meshes
10
-0.085712
20
0.264944
30
0.006935
70
192
0
VERTEX
8
Meshes
10
0.213444
20
0.087543
30
0.006935
70
192
0
VERTEX
8
Meshes
10
0.092352
20
0.160251
30
0.020225
70
192
0
VERTEX
8
Meshes
10
0.283300
20
0.045495
30
0.006935
70
192
0
VERTEX
8
Meshes
10
0.266112
20
0.055920
30
0.020225
70
192
0
VERTEX
8
Meshes
10
-0.100012
20
0.266858
30
0.020225
70
192
0
VERTEX
8
Meshes
10
-0.114958
20
0.265221
30
0.006935
70
192
0
VERTEX
8
Meshes
10
-0.114958
20
-0.282040
30
0.006935
70
192
0
VERTEX
8
Meshes
10
-0.100012
20
-0.284125
30
0.020225
70
192
0
VERTEX
8
Meshes
10
0.309921
20
0.026699
30
0.006935
70
192
0
VERTEX
8
Meshes
10
0.297951
20
0.036385
30
0.020225
70
192
0
VERTEX
8
Meshes
10
-0.128862
20
0.259523
30
0.020225
70
192
0
VERTEX
8
Meshes
10
-0.140832
20
0.250382
30
0.006935
70
192
0
VERTEX
8
Meshes
10
-0.149973
20
0.238413
30
0.020225
70
192
0
VERTEX
8
Meshes
10
-0.149973
20
-0.255084
30
0.020225
70
192
0
VERTEX
8
Meshes
10
-0.140832
20
-0.267053
30
0.006935
70
192
0
VERTEX
8
Meshes
10
-0.128862
20
-0.276194
30
0.020225
70
192
0
VERTEX
8
Meshes
10
0.297951
20
-0.055437
30
0.020225
70
192
0
VERTEX
8
Meshes
10
0.309921
20
-0.045752
30
0.006935
70
192
0
VERTEX
8
Meshes
10
0.319062
20
-0.033601
30
0.020225
70
192
0
VERTEX
8
Meshes
10
0.324857
20
-0.020890
30
0.006935
70
192
0
VERTEX
8
Meshes
10
0.326789
20
-0.009526
30
0.020225
70
192
0
VERTEX
8
Meshes
10
0.324857
20
0.001838
30
0.006935
70
192
0
VERTEX
8
Meshes
10
0.319062
20
0.014548
30
0.020225
70
192
0
VERTEX
8
Meshes
10
0.275387
20
0.664843
30
0.006935
70
192
0
VERTEX
8
Meshes
10
0.399725
20
0.598230
30
0.020225
70
192
0
VERTEX
8
Meshes
10
0.508849
20
0.508849
30
0.006935
70
192
0
VERTEX
8
Meshes
10
0.000000
20
0.719621
30
0.006935
70
192
0
VERTEX
8
Meshes
10
0.140365
20
0.705661
30
0.020225
70
192
0
VERTEX
8
Meshes
10
-0.275387
20
0.664843
30
0.006935
70
192
0
VERTEX
8
Meshes
10
-0.140364
20
0.705661
30
0.020225
70
192
0
VERTEX
8
Meshes
10
-0.508849
20
0.508849
30
0.006935
70
192
0
VERTEX
8
Meshes
10
-0.399724
20
0.598230
30
0.020225
70
192
0
VERTEX
8
Meshes
10
-0.664843
20
0.275387
30
0.006935
70
192
0
VERTEX
8
Meshes
10
-0.598230
20
0.399725
30
0.020225
70
192
0
VERTEX
8
Meshes
10
-0.719621
20
0.000000
30
0.006935
70
192
0
VERTEX
8
Meshes
10
-0.705661
20
0.140365
30
0.020225
70
192
0
VERTEX
8
Meshes
10
-0.664843
20
-0.275387
30
0.006935
70
192
0
VERTEX
8
Meshes
10
-0.705661
20
-0.140365
30
0.020225
70
192
0
VERTEX
8
Meshes
10
-0.508849
20
-0.508849
30
0.006935
70
192
0
VERTEX
8
Meshes
10
-0.598230
20
-0.399725
30
0.020225
70
192
0
VERTEX
8
Meshes
10
-0.275387
20
-0.664843
30
0.006935
70
192
0
VERTEX
8
Meshes
10
-0.399725
20
-0.598230
30
0.020225
70
192
0
VERTEX
8
Meshes
10
0.000000
20
-0.719621
30
0.006935
70
192
0
VERTEX
8
Meshes
10
-0.140364
20
-0.705661
30
0.020225
70
192
0
VERTEX
8
Meshes
10
0.275387
20
-0.664843
30
0.006935
70
192
0
VERTEX
8
Meshes
10
0.140365
20
-0.705661
30
0.020225
70
192
0
VERTEX
8
Meshes
10
0.508849
20
-0.508849
30
0.006935
70
192
0
VERTEX
8
Meshes
10
0.399725
20
-0.598230
30
0.020225
70
192
0
VERTEX
8
Meshes
10
0.664843
20
-0.275387
30
0.006935
70
192
0
VERTEX
8
Meshes
10
0.598230
20
-0.399725
30
0.020225
70
192
0
VERTEX
8
Meshes
10
0.719621
20
-0.000000
30
0.006935
70
192
0
VERTEX
8
Meshes
10
0.705661
20
-0.140365
30
0.020225
70
192
0
VERTEX
8
Meshes
10
0.664843
20
0.275387
30
0.006935
70
192
0
VERTEX
8
Meshes
10
0.705661
20
0.140365
30
0.020225
70
192
0
VERTEX
8
Meshes
10
0.598230
20
0.399725
30
0.020225
70
192
0
VERTEX
8
Meshes
10
0.439750
20
0.439750
30
0.006935
70
192
0
VERTEX
8
Meshes
10
0.345445
20
0.516994
30
0.020225
70
192
0
VERTEX
8
Meshes
10
0.237992
20
0.574561
30
0.006935
70
192
0
VERTEX
8
Meshes
10
0.121305
20
0.609836
30
0.020225
70
192
0
VERTEX
8
Meshes
10
0.000000
20
0.621901
30
0.006935
70
192
0
VERTEX
8
Meshes
10
-0.121304
20
0.609837
30
0.020225
70
192
0
VERTEX
8
Meshes
10
-0.237991
20
0.574562
30
0.006935
70
192
0
VERTEX
8
Meshes
10
-0.345444
20
0.516994
30
0.020225
70
192
0
VERTEX
8
Meshes
10
-0.439750
20
0.439750
30
0.006935
70
192
0
VERTEX
8
Meshes
10
-0.516994
20
0.345445
30
0.020225
70
192
0
VERTEX
8
Meshes
10
-0.574561
20
0.237991
30
0.006935
70
192
0
VERTEX
8
Meshes
10
-0.609836
20
0.121304
30
0.020225
70
192
0
VERTEX
8
Meshes
10
-0.621901
20
0.000000
30
0.006935
70
192
0
VERTEX
8
Meshes
10
-0.609836
20
-0.121304
30
0.020225
70
192
0
VERTEX
8
Meshes
10
-0.574561
20
-0.237991
30
0.006935
70
192
0
VERTEX
8
Meshes
10
-0.516994
20
-0.345445
30
0.020225
70
192
0
VERTEX
8
Meshes
10
-0.439750
20
-0.439750
30
0.006935
70
192
0
VERTEX
8
Meshes
10
-0.345444
20
-0.516994
30
0.020225
70
192
0
VERTEX
8
Meshes
10
-0.237991
20
-0.574562
30
0.006935
70
192
0
VERTEX
8
Meshes
10
-0.121304
20
-0.609836
30
0.020225
70
192
0
VERTEX
8
Meshes
10
0.000000
20
-0.621901
30
0.006935
70
192
0
VERTEX
8
Meshes
10
0.121304
20
-0.609836
30
0.020225
70
192
0
VERTEX
8
Meshes
10
0.237991
20
-0.574561
30
0.006935
70
192
0
VERTEX
8
Meshes
10
0.345445
20
-0.516994
30
0.020225
70
192
0
VERTEX
8
Meshes
10
0.439750
20
-0.439750
30
0.006935
70
192
0
VERTEX
8
Meshes
10
0.516994
20
-0.345445
30
0.020225
70
192
0
VERTEX
8
Meshes
10
0.574561
20
-0.237991
30
0.006935
70
192
0
VERTEX
8
Meshes
10
0.609836
20
-0.121304
30
0.020225
70
192
0
VERTEX
8
Meshes
10
0.621901
20
-0.000000
30
0.006935
70
192
0
VERTEX
8
Meshes
10
0.609836
20
0.121304
30
0.020225
70
192
0
VERTEX
8
Meshes
10
0.574562
20
0.237991
30
0.006935
70
192
0
VERTEX
8
Meshes
10
0.516994
20
0.345445
30
0.020225
70
192
0
VERTEX
8
Meshes
10
0.574561
20
0.237991
30
0.046222
70
192
0
VERTEX
8
Meshes
10
0.516994
20
0.345445
30
0.072573
70
192
0
VERTEX
8
Meshes
10
0.439750
20
0.439750
30
0.046222
70
192
0
VERTEX
8
Meshes
10
0.621901
20
-0.000000
30
0.046222
70
192
0
VERTEX
8
Meshes
10
0.609836
20
0.121304
30
0.072573
70
192
0
VERTEX
8
Meshes
10
0.574562
20
-0.237991
30
0.046222
70
192
0
VERTEX
8
Meshes
10
0.609836
20
-0.121304
30
0.072573
70
192
0
VERTEX
8
Meshes
10
0.439750
20
-0.439750
30
0.046222
70
192
0
VERTEX
8
Meshes
10
0.516994
20
-0.345445
30
0.072573
70
192
0
VERTEX
8
Meshes
10
0.237991
20
-0.574561
30
0.046222
70
192
0
VERTEX
8
Meshes
10
0.345445
20
-0.516994
30
0.072573
70
192
0
VERTEX
8
Meshes
10
0.000000
20
-0.621901
30
0.046222
70
192
0
VERTEX
8
Meshes
10
0.121304
20
-0.609836
30
0.072573
70
192
0
VERTEX
8
Meshes
10
-0.237991
20
-0.574562
30
0.046222
70
192
0
VERTEX
8
Meshes
10
-0.121304
20
-0.609836
30
0.072573
70
192
0
VERTEX
8
Meshes
10
-0.439750
20
-0.439750
30
0.046222
70
192
0
VERTEX
8
Meshes
10
-0.345444
20
-0.516994
30
0.072573
70
192
0
VERTEX
8
Meshes
10
-0.574561
20
-0.237991
30
0.046222
70
192
0
VERTEX
8
Meshes
10
-0.516994
20
-0.345445
30
0.072573
70
192
0
VERTEX
8
Meshes
10
-0.621901
20
0.000000
30
0.046222
70
192
0
VERTEX
8
Meshes
10
-0.609836
20
-0.121304
30
0.072573
70
192
0
VERTEX
8
Meshes
10
-0.574561
20
0.237991
30
0.046222
70
192
0
VERTEX
8
Meshes
10
-0.609836
20
0.121304
30
0.072573
70
192
0
VERTEX
8
Meshes
10
-0.439750
20
0.439750
30
0.046222
70
192
0
VERTEX
8
Meshes
10
-0.516994
20
0.345445
30
0.072573
70
192
0
VERTEX
8
Meshes
10
-0.237991
20
0.574562
30
0.046222
70
192
0
VERTEX
8
Meshes
10
-0.345444
20
0.516994
30
0.072573
70
192
0
VERTEX
8
Meshes
10
0.000000
20
0.621901
30
0.046222
70
192
0
VERTEX
8
Meshes
10
-0.121304
20
0.609837
30
0.072573
70
192
0
VERTEX
8
Meshes
10
0.237992
20
0.574561
30
0.046222
70
192
0
VERTEX
8
Meshes
10
0.121305
20
0.609836
30
0.072573
70
192
0
VERTEX
8
Meshes
10
0.345445
20
0.516994
30
0.072573
70
192
0
VERTEX
8
Meshes
10
0.508849
20
0.508849
30
0.046222
70
192
0
VERTEX
8
Meshes
10
0.598230
20
0.399725
30
0.072573
70
192
0
VERTEX
8
Meshes
10
0.664843
20
0.275387
30
0.046222
70
192
0
VERTEX
8
Meshes
10
0.705661
20
0.140365
30
0.072573
70
192
0
VERTEX
8
Meshes
10
0.719621
20
-0.000000
30
0.046222
70
192
0
VERTEX
8
Meshes
10
0.705661
20
-0.140365
30
0.072573
70
192
0
VERTEX
8
Meshes
10
0.664843
20
-0.275387
30
0.046222
70
192
0
VERTEX
8
Meshes
10
0.598230
20
-0.399725
30
0.072573
70
192
0
VERTEX
8
Meshes
10
0.508849
20
-0.508849
30
0.046222
70
192
0
VERTEX
8
Meshes
10
0.399725
20
-0.598230
30
0.072573
70
192
0
VERTEX
8
Meshes
10
0.275387
20
-0.664843
30
0.046222
70
192
0
VERTEX
8
Meshes
10
0.140365
20
-0.705661
30
0.072572
70
192
0
VERTEX
8
Meshes
10
0.000000
20
-0.719621
30
0.046222
70
192
0
VERTEX
8
Meshes
10
-0.140364
20
-0.705661
30
0.072572
70
192
0
VERTEX
8
Meshes
10
-0.275387
20
-0.664843
30
0.046222
70
192
0
VERTEX
8
Meshes
10
-0.399725
20
-0.598230
30
0.072573
70
192
0
VERTEX
8
Meshes
10
-0.508849
20
-0.508849
30
0.046222
70
192
0
VERTEX
8
Meshes
10
-0.598230
20
-0.399725
30
0.072573
70
192
0
VERTEX
8
Meshes
10
-0.664843
20
-0.275387
30
0.046222
70
192
0
VERTEX
8
Meshes
10
-0.705661
20
-0.140365
30
0.072573
70
192
0
VERTEX
8
Meshes
10
-0.719621
20
0.000000
30
0.046222
70
192
0
VERTEX
8
Meshes
10
-0.705661
20
0.140365
30
0.072573
70
192
0
VERTEX
8
Meshes
10
-0.664843
20
0.275387
30
0.046222
70
192
0
VERTEX
8
Meshes
10
-0.598230
20
0.399725
30
0.072573
70
192
0
VERTEX
8
Meshes
10
-0.508849
20
0.508849
30
0.046222
70
192
0
VERTEX
8
Meshes
10
-0.399724
20
0.598230
30
0.072573
70
192
0
VERTEX
8
Meshes
10
-0.275387
20
0.664843
30
0.046222
70
192
0
VERTEX
8
Meshes
10
-0.140364
20
0.705661
30
0.072573
70
192
0
VERTEX
8
Meshes
10
0.000000
20
0.719621
30
0.046222
70
192
0
VERTEX
8
Meshes
10
0.140365
20
0.705661
30
0.072573
70
192
0
VERTEX
8
Meshes
10
0.275387
20
0.664843
30
0.046222
70
192
0
VERTEX
8
Meshes
10
0.399725
20
0.598230
30
0.072573
70
192
0
VERTEX
8
Meshes
10
0.324857
20
0.001838
30
0.046222
70
192
0
VERTEX
8
Meshes
10
0.319062
20
0.014548
30
0.072573
70
192
0
VERTEX
8
Meshes
10
0.309921
20
0.026699
30
0.046222
70
192
0
VERTEX
8
Meshes
10
0.324857
20
-0.020890
30
0.046222
70
192
0
VERTEX
8
Meshes
10
0.326789
20
-0.009526
30
0.072573
70
192
0
VERTEX
8
Meshes
10
0.309921
20
-0.045752
30
0.046222
70
192
0
VERTEX
8
Meshes
10
0.319062
20
-0.033601
30
0.072573
70
192
0
VERTEX
8
Meshes
10
0.283925
20
-0.064159
30
0.046222
70
192
0
VERTEX
8
Meshes
10
0.297951
20
-0.055437
30
0.072573
70
192
0
VERTEX
8
Meshes
10
-0.140832
20
-0.267053
30
0.046222
70
192
0
VERTEX
8
Meshes
10
-0.128862
20
-0.276194
30
0.072573
70
192
0
VERTEX
8
Meshes
10
-0.114958
20
-0.282040
30
0.046222
70
192
0
VERTEX
8
Meshes
10
-0.155768
20
-0.238850
30
0.046222
70
192
0
VERTEX
8
Meshes
10
-0.149973
20
-0.255084
30
0.072573
70
192
0
VERTEX
8
Meshes
10
-0.155768
20
0.221666
30
0.046222
70
192
0
VERTEX
8
Meshes
10
-0.149973
20
0.238413
30
0.072573
70
192
0
VERTEX
8
Meshes
10
-0.140832
20
0.250382
30
0.046222
70
192
0
VERTEX
8
Meshes
10
-0.114958
20
0.265221
30
0.046222
70
192
0
VERTEX
8
Meshes
10
-0.128862
20
0.259523
30
0.072573
70
192
0
VERTEX
8
Meshes
10
0.297951
20
0.036385
30
0.072573
70
192
0
VERTEX
8
Meshes
10
0.283300
20
0.045495
30
0.046222
70
192
0
VERTEX
8
Meshes
10
-0.100012
20
-0.284125
30
0.072573
70
192
0
VERTEX
8
Meshes
10
-0.084259
20
-0.281798
30
0.046222
70
192
0
VERTEX
8
Meshes
10
-0.085712
20
0.264944
30
0.046222
70
192
0
VERTEX
8
Meshes
10
-0.100012
20
0.266858
30
0.072573
70
192
0
VERTEX
8
Meshes
10
0.266112
20
0.055920
30
0.072573
70
192
0
VERTEX
8
Meshes
10
0.213444
20
0.087543
30
0.046222
70
192
0
VERTEX
8
Meshes
10
0.092352
20
0.160251
30
0.072573
70
192
0
VERTEX
8
Meshes
10
-0.026825
20
0.231810
30
0.046222
70
192
0
VERTEX
8
Meshes
10
-0.073748
20
0.259984
30
0.072573
70
192
0
VERTEX
8
Meshes
10
-0.157700
20
0.198192
30
0.072573
70
192
0
VERTEX
8
Meshes
10
-0.157700
20
0.132628
30
0.046222
70
192
0
VERTEX
8
Meshes
10
-0.157700
20
-0.010389
30
0.072573
70
192
0
VERTEX
8
Meshes
10
-0.157700
20
-0.152893
30
0.046222
70
192
0
VERTEX
8
Meshes
10
-0.157700
20
-0.216917
30
0.072573
70
192
0
VERTEX
8
Meshes
10
-0.067935
20
-0.274409
30
0.072573
70
192
0
VERTEX
8
Meshes
10
-0.017479
20
-0.244276
30
0.046222
70
192
0
VERTEX
8
Meshes
10
0.100667
20
-0.173718
30
0.072573
70
192
0
VERTEX
8
Meshes
10
0.218649
20
-0.103258
30
0.046222
70
192
0
VERTEX
8
Meshes
10
0.268613
20
-0.073419
30
0.072573
70
192
0
VERTEX
8
Meshes
10
0.218649
20
-0.103258
30
0.086922
70
192
0
VERTEX
8
Meshes
10
0.263980
20
-0.071984
30
0.093183
70
192
0
VERTEX
8
Meshes
10
0.283925
20
-0.064159
30
0.086922
70
192
0
VERTEX
8
Meshes
10
-0.017479
20
-0.244276
30
0.086922
70
192
0
VERTEX
8
Meshes
10
0.099771
20
-0.170052
30
0.093183
70
192
0
VERTEX
8
Meshes
10
-0.084259
20
-0.281798
30
0.086922
70
192
0
VERTEX
8
Meshes
10
-0.065080
20
-0.268502
30
0.093183
70
192
0
VERTEX
8
Meshes
10
-0.157700
20
-0.152893
30
0.086922
70
192
0
VERTEX
8
Meshes
10
-0.152847
20
-0.212289
30
0.093183
70
192
0
VERTEX
8
Meshes
10
-0.155768
20
-0.238850
30
0.086922
70
192
0
VERTEX
8
Meshes
10
-0.157700
20
0.132628
30
0.086922
70
192
0
VERTEX
8
Meshes
10
-0.152847
20
-0.010357
30
0.093183
70
192
0
VERTEX
8
Meshes
10
-0.155768
20
0.221666
30
0.086922
70
192
0
VERTEX
8
Meshes
10
-0.152847
20
0.193584
30
0.093183
70
192
0
VERTEX
8
Meshes
10
-0.026825
20
0.231810
30
0.086922
70
192
0
VERTEX
8
Meshes
10
-0.070764
20
0.254001
30
0.093183
70
192
0
VERTEX
8
Meshes
10
-0.085712
20
0.264944
30
0.086922
70
192
0
VERTEX
8
Meshes
10
0.213444
20
0.087543
30
0.086922
70
192
0
VERTEX
8
Meshes
10
0.091641
20
0.156487
30
0.093183
70
192
0
VERTEX
8
Meshes
10
0.283300
20
0.045495
30
0.086922
70
192
0
VERTEX
8
Meshes
10
0.261535
20
0.054477
30
0.093183
70
192
0
VERTEX
8
Meshes
10
-0.096443
20
0.260722
30
0.093183
70
192
0
VERTEX
8
Meshes
10
-0.114958
20
0.265221
30
0.086922
70
192
0
VERTEX
8
Meshes
10
-0.114958
20
-0.282040
30
0.086922
70
192
0
VERTEX
8
Meshes
10
-0.096443
20
-0.278002
30
0.093183
70
192
0
VERTEX
8
Meshes
10
0.309921
20
0.026699
30
0.086922
70
192
0
VERTEX
8
Meshes
10
0.292666
20
0.035377
30
0.093183
70
192
0
VERTEX
8
Meshes
10
-0.124652
20
0.253550
30
0.093183
70
192
0
VERTEX
8
Meshes
10
-0.140832
20
0.250382
30
0.086922
70
192
0
VERTEX
8
Meshes
10
-0.145292
20
0.232909
30
0.093183
70
192
0
VERTEX
8
Meshes
10
-0.145292
20
-0.249607
30
0.093183
70
192
0
VERTEX
8
Meshes
10
-0.140832
20
-0.267053
30
0.086922
70
192
0
VERTEX
8
Meshes
10
-0.124651
20
-0.270248
30
0.093183
70
192
0
VERTEX
8
Meshes
10
0.292666
20
-0.054403
30
0.093183
70
192
0
VERTEX
8
Meshes
10
0.309921
20
-0.045752
30
0.086922
70
192
0
VERTEX
8
Meshes
10
0.313306
20
-0.033052
30
0.093183
70
192
0
VERTEX
8
Meshes
10
0.324857
20
-0.020890
30
0.086922
70
192
0
VERTEX
8
Meshes
10
0.320861
20
-0.009513
30
0.093183
70
192
0
VERTEX
8
Meshes
10
0.324857
20
0.001838
30
0.086922
70
192
0
VERTEX
8
Meshes
10
0.313306
20
0.014026
30
0.093183
70
192
0
VERTEX
8
Meshes
10
0.275387
20
0.664843
30
0.086922
70
192
0
VERTEX
8
Meshes
10
0.397961
20
0.595590
30
0.093183
70
192
0
VERTEX
8
Meshes
10
0.508849
20
0.508849
30
0.086922
70
192
0
VERTEX
8
Meshes
10
0.000000
20
0.719621
30
0.086922
70
192
0
VERTEX
8
Meshes
10
0.139746
20
0.702546
30
0.093183
70
192
0
VERTEX
8
Meshes
10
-0.275387
20
0.664843
30
0.086922
70
192
0
VERTEX
8
Meshes
10
-0.139745
20
0.702547
30
0.093183
70
192
0
VERTEX
8
Meshes
10
-0.508849
20
0.508849
30
0.086922
70
192
0
VERTEX
8
Meshes
10
-0.397960
20
0.595590
30
0.093183
70
192
0
VERTEX
8
Meshes
10
-0.664843
20
0.275387
30
0.086922
70
192
0
VERTEX
8
Meshes
10
-0.595590
20
0.397961
30
0.093183
70
192
0
VERTEX
8
Meshes
10
-0.719621
20
0.000000
30
0.086922
70
192
0
VERTEX
8
Meshes
10
-0.702546
20
0.139745
30
0.093183
70
192
0
VERTEX
8
Meshes
10
-0.664843
20
-0.275387
30
0.086922
70
192
0
VERTEX
8
Meshes
10
-0.702546
20
-0.139745
30
0.093183
70
192
0
VERTEX
8
Meshes
10
-0.508849
20
-0.508849
30
0.086922
70
192
0
VERTEX
8
Meshes
10
-0.595590
20
-0.397961
30
0.093183
70
192
0
VERTEX
8
Meshes
10
-0.275387
20
-0.664843
30
0.086922
70
192
0
VERTEX
8
Meshes
10
-0.397960
20
-0.595590
30
0.093183
70
192
0
VERTEX
8
Meshes
10
0.000000
20
-0.719621
30
0.086922
70
192
0
VERTEX
8
Meshes
10
-0.139745
20
-0.702547
30
0.093183
70
192
0
VERTEX
8
Meshes
10
0.275387
20
-0.664843
30
0.086922
70
192
0
VERTEX
8
Meshes
10
0.139745
20
-0.702547
30
0.093183
70
192
0
VERTEX
8
Meshes
10
0.508849
20
-0.508849
30
0.086922
70
192
0
VERTEX
8
Meshes
10
0.397961
20
-0.595590
30
0.093183
70
192
0
VERTEX
8
Meshes
10
0.664843
20
-0.275387
30
0.086922
70
192
0
VERTEX
8
Meshes
10
0.595590
20
-0.397961
30
0.093183
70
192
0
VERTEX
8
Meshes
10
0.719621
20
-0.000000
30
0.086922
70
192
0
VERTEX
8
Meshes
10
0.702547
20
-0.139745
30
0.093183
70
192
0
VERTEX
8
Meshes
10
0.664843
20
0.275387
30
0.086922
70
192
0
VERTEX
8
Meshes
10
0.702547
20
0.139745
30
0.093183
70
192
0
VERTEX
8
Meshes
10
0.595590
20
0.397961
30
0.093183
70
192
0
VERTEX
8
Meshes
10
0.439750
20
0.439750
30
0.086922
70
192
0
VERTEX
8
Meshes
10
0.347453
20
0.520000
30
0.093183
70
192
0
VERTEX
8
Meshes
10
0.237992
20
0.574561
30
0.086922
70
192
0
VERTEX
8
Meshes
10
0.122010
20
0.613382
30
0.093183
70
192
0
VERTEX
8
Meshes
10
0.000000
20
0.621901
30
0.086922
70
192
0
VERTEX
8
Meshes
10
-0.122009
20
0.613382
30
0.093183
70
192
0
VERTEX
8
Meshes
10
-0.237991
20
0.574562
30
0.086922
70
192
0
VERTEX
8
Meshes
10
-0.347453
20
0.520000
30
0.093183
70
192
0
VERTEX
8
Meshes
10
-0.439750
20
0.439750
30
0.086922
70
192
0
VERTEX
8
Meshes
10
-0.520000
20
0.347453
30
0.093183
70
192
0
VERTEX
8
Meshes
10
-0.574561
20
0.237991
30
0.086922
70
192
0
VERTEX
8
Meshes
10
-0.613382
20
0.122009
30
0.093183
70
192
0
VERTEX
8
Meshes
10
-0.621901
20
0.000000
30
0.086922
70
192
0
VERTEX
8
Meshes
10
-0.613382
20
-0.122009
30
0.093183
70
192
0
VERTEX
8
Meshes
10
-0.574561
20
-0.237991
30
0.086922
70
192
0
VERTEX
8
Meshes
10
-0.520000
20
-0.347453
30
0.093183
70
192
0
VERTEX
8
Meshes
10
-0.439750
20
-0.439750
30
0.086922
70
192
0
VERTEX
8
Meshes
10
-0.347453
20
-0.520000
30
0.093183
70
192
0
VERTEX
8
Meshes
10
-0.237991
20
-0.574562
30
0.086922
70
192
0
VERTEX
8
Meshes
10
-0.122009
20
-0.613382
30
0.093183
70
192
0
VERTEX
8
Meshes
10
0.000000
20
-0.621901
30
0.086922
70
192
0
VERTEX
8
Meshes
10
0.122009
20
-0.613382
30
0.093183
70
192
0
VERTEX
8
Meshes
10
0.237991
20
-0.574561
30
0.086922
70
192
0
VERTEX
8
Meshes
10
0.347453
20
-0.520000
30
0.093183
70
192
0
VERTEX
8
Meshes
10
0.439750
20
-0.439750
30
0.086922
70
192
0
VERTEX
8
Meshes
10
0.520000
20
-0.347453
30
0.093183
70
192
0
VERTEX
8
Meshes
10
0.574561
20
-0.237991
30
0.086922
70
192
0
VERTEX
8
Meshes
10
0.613382
20
-0.122009
30
0.093183
70
192
0
VERTEX
8
Meshes
10
0.621901
20
-0.000000
30
0.086922
70
192
0
VERTEX
8
Meshes
10
0.613382
20
0.122009
30
0.093183
70
192
0
VERTEX
8
Meshes
10
0.574562
20
0.237991
30
0.086922
70
192
0
VERTEX
8
Meshes
10
0.520000
20
0.347453
30
0.093183
70
192
0
VERTEX
8
Meshes
10
0.287713
20
0.023528
30
0.095270
70
192
0
VERTEX
8
Meshes
10
0.301320
20
0.000879
30
0.095270
70
192
0
VERTEX
8
Meshes
10
0.261055
20
0.009283
30
0.095270
70
192
0
VERTEX
8
Meshes
10
0.301320
20
-0.019826
30
0.095270
70
192
0
VERTEX
8
Meshes
10
0.267050
20
-0.009393
30
0.095270
70
192
0
VERTEX
8
Meshes
10
0.287713
20
-0.042475
30
0.095270
70
192
0
VERTEX
8
Meshes
10
0.261055
20
-0.028069
30
0.095270
70
192
0
VERTEX
8
Meshes
10
0.264031
20
-0.059244
30
0.095270
70
192
0
VERTEX
8
Meshes
10
0.244679
20
-0.045009
30
0.095270
70
192
0
VERTEX
8
Meshes
10
-0.099352
20
-0.257734
30
0.095270
70
192
0
VERTEX
8
Meshes
10
-0.122924
20
-0.244081
30
0.095270
70
192
0
VERTEX
8
Meshes
10
-0.086423
20
-0.216262
30
0.095270
70
192
0
VERTEX
8
Meshes
10
-0.136531
20
-0.218388
30
0.095270
70
192
0
VERTEX
8
Meshes
10
-0.102800
20
-0.199885
30
0.095270
70
192
0
VERTEX
8
Meshes
10
-0.122924
20
0.227304
30
0.095271
70
192
0
VERTEX
8
Meshes
10
-0.136531
20
0.201143
30
0.095271
70
192
0
VERTEX
8
Meshes
10
-0.102800
20
0.182947
30
0.095271
70
192
0
VERTEX
8
Meshes
10
-0.099352
20
0.240822
30
0.095271
70
192
0
VERTEX
8
Meshes
10
-0.086424
20
0.199324
30
0.095271
70
192
0
VERTEX
8
Meshes
10
0.263461
20
0.040651
30
0.095270
70
192
0
VERTEX
8
Meshes
10
0.244679
20
0.026223
30
0.095270
70
192
0
VERTEX
8
Meshes
10
-0.071386
20
-0.257513
30
0.095270
70
192
0
VERTEX
8
Meshes
10
-0.064043
20
-0.222414
30
0.095270
70
192
0
VERTEX
8
Meshes
10
-0.072710
20
0.240570
30
0.095271
70
192
0
VERTEX
8
Meshes
10
-0.064043
20
0.205014
30
0.095271
70
192
0
VERTEX
8
Meshes
10
0.179943
20
0.008069
30
0.095270
70
192
0
VERTEX
8
Meshes
10
0.187070
20
-0.003721
30
0.095270
70
192
0
VERTEX
8
Meshes
10
0.187070
20
-0.014712
30
0.095270
70
192
0
VERTEX
8
Meshes
10
0.179943
20
-0.026502
30
0.095270
70
192
0
VERTEX
8
Meshes
10
0.167531
20
-0.035432
30
0.095270
70
192
0
VERTEX
8
Meshes
10
-0.023655
20
-0.139759
30
0.095270
70
192
0
VERTEX
8
Meshes
10
-0.036000
20
-0.132604
30
0.095270
70
192
0
VERTEX
8
Meshes
10
-0.043127
20
-0.118983
30
0.095270
70
192
0
VERTEX
8
Meshes
10
-0.036000
20
0.115314
30
0.095271
70
192
0
VERTEX
8
Meshes
10
-0.043127
20
0.101411
30
0.095271
70
192
0
VERTEX
8
Meshes
10
-0.023655
20
0.122387
30
0.095271
70
192
0
VERTEX
8
Meshes
10
0.167188
20
0.017212
30
0.095270
70
192
0
VERTEX
8
Meshes
10
-0.008951
20
-0.139598
30
0.095270
70
192
0
VERTEX
8
Meshes
10
-0.009747
20
0.122289
30
0.095271
70
192
0
VERTEX
8
Meshes
10
0.199823
20
0.078957
30
0.095270
70
192
0
VERTEX
8
Meshes
10
0.219979
20
0.041377
30
0.095270
70
192
0
VERTEX
8
Meshes
10
0.131436
20
0.038736
30
0.095270
70
192
0
VERTEX
8
Meshes
10
-0.019063
20
0.210384
30
0.095271
70
192
0
VERTEX
8
Meshes
10
0.085185
20
0.122313
30
0.095270
70
192
0
VERTEX
8
Meshes
10
-0.043669
20
0.199681
30
0.095271
70
192
0
VERTEX
8
Meshes
10
0.021044
20
0.105019
30
0.095270
70
192
0
VERTEX
8
Meshes
10
-0.138290
20
0.120030
30
0.095270
70
192
0
VERTEX
8
Meshes
10
-0.108794
20
0.151746
30
0.095271
70
192
0
VERTEX
8
Meshes
10
-0.044185
20
0.056294
30
0.095270
70
192
0
VERTEX
8
Meshes
10
-0.138290
20
-0.140081
30
0.095270
70
192
0
VERTEX
8
Meshes
10
-0.108794
20
-0.010062
30
0.095270
70
192
0
VERTEX
8
Meshes
10
-0.108794
20
-0.170277
30
0.095270
70
192
0
VERTEX
8
Meshes
10
-0.044185
20
-0.075273
30
0.095270
70
192
0
VERTEX
8
Meshes
10
-0.010549
20
-0.223331
30
0.095270
70
192
0
VERTEX
8
Meshes
10
-0.039159
20
-0.214877
30
0.095270
70
192
0
VERTEX
8
Meshes
10
0.025369
20
-0.120395
30
0.095270
70
192
0
VERTEX
8
Meshes
10
0.204564
20
-0.094863
30
0.095270
70
192
0
VERTEX
8
Meshes
10
0.091635
20
-0.136765
30
0.095270
70
192
0
VERTEX
8
Meshes
10
0.221919
20
-0.058958
30
0.095270
70
192
0
VERTEX
8
Meshes
10
0.133945
20
-0.055552
30
0.095270
70
192
0
VERTEX
8
Meshes
10
0.499866
20
0.499866
30
0.095271
70
192
0
VERTEX
8
Meshes
10
0.575241
20
0.384363
30
0.095271
70
192
0
VERTEX
8
Meshes
10
0.653106
20
0.270526
30
0.095271
70
192
0
VERTEX
8
Meshes
10
0.678542
20
0.134970
30
0.095271
70
192
0
VERTEX
8
Meshes
10
0.706917
20
-0.000000
30
0.095270
70
192
0
VERTEX
8
Meshes
10
0.678542
20
-0.134971
30
0.095270
70
192
0
VERTEX
8
Meshes
10
0.653106
20
-0.270526
30
0.095270
70
192
0
VERTEX
8
Meshes
10
0.575241
20
-0.384364
30
0.095270
70
192
0
VERTEX
8
Meshes
10
0.499866
20
-0.499866
30
0.095270
70
192
0
VERTEX
8
Meshes
10
0.384364
20
-0.575241
30
0.095270
70
192
0
VERTEX
8
Meshes
10
0.270526
20
-0.653106
30
0.095270
70
192
0
VERTEX
8
Meshes
10
0.134971
20
-0.678542
30
0.095270
70
192
0
VERTEX
8
Meshes
10
0.000000
20
-0.706917
30
0.095270
70
192
0
VERTEX
8
Meshes
10
-0.134970
20
-0.678542
30
0.095270
70
192
0
VERTEX
8
Meshes
10
-0.270525
20
-0.653107
30
0.095270
70
192
0
VERTEX
8
Meshes
10
-0.384363
20
-0.575241
30
0.095270
70
192
0
VERTEX
8
Meshes
10
-0.499866
20
-0.499866
30
0.095270
70
192
0
VERTEX
8
Meshes
10
-0.575240
20
-0.384364
30
0.095270
70
192
0
VERTEX
8
Meshes
10
-0.653106
20
-0.270526
30
0.095270
70
192
0
VERTEX
8
Meshes
10
-0.678542
20
-0.134971
30
0.095270
70
192
0
VERTEX
8
Meshes
10
-0.706917
20
0.000000
30
0.095270
70
192
0
VERTEX
8
Meshes
10
-0.678542
20
0.134971
30
0.095271
70
192
0
VERTEX
8
Meshes
10
-0.653106
20
0.270526
30
0.095271
70
192
0
VERTEX
8
Meshes
10
-0.575240
20
0.384364
30
0.095271
70
192
0
VERTEX
8
Meshes
10
-0.499866
20
0.499866
30
0.095271
70
192
0
VERTEX
8
Meshes
10
-0.384363
20
0.575241
30
0.095271
70
192
0
VERTEX
8
Meshes
10
-0.270525
20
0.653107
30
0.095271
70
192
0
VERTEX
8
Meshes
10
-0.134970
20
0.678543
30
0.095271
70
192
0
VERTEX
8
Meshes
10
0.000000
20
0.706917
30
0.095271
70
192
0
VERTEX
8
Meshes
10
0.134971
20
0.678542
30
0.095271
70
192
0
VERTEX
8
Meshes
10
0.270526
20
0.653106
30
0.095271
70
192
0
VERTEX
8
Meshes
10
0.384364
20
0.575240
30
0.095271
70
192
0
VERTEX
8
Meshes
10
0.542543
20
0.362516
30
0.095271
70
192
0
VERTEX
8
Meshes
10
0.449977
20
0.449977
30
0.095271
70
192
0
VERTEX
8
Meshes
10
0.587923
20
0.243526
30
0.095271
70
192
0
VERTEX
8
Meshes
10
0.475543
20
0.475543
30
0.095271
70
192
0
VERTEX
8
Meshes
10
0.621327
20
0.257362
30
0.095271
70
192
0
VERTEX
8
Meshes
10
0.639973
20
0.127299
30
0.095270
70
192
0
VERTEX
8
Meshes
10
0.636364
20
-0.000000
30
0.095270
70
192
0
VERTEX
8
Meshes
10
0.672520
20
-0.000000
30
0.095270
70
192
0
VERTEX
8
Meshes
10
0.639973
20
-0.127299
30
0.095270
70
192
0
VERTEX
8
Meshes
10
0.587923
20
-0.243526
30
0.095270
70
192
0
VERTEX
8
Meshes
10
0.621327
20
-0.257362
30
0.095270
70
192
0
VERTEX
8
Meshes
10
0.542543
20
-0.362516
30
0.095270
70
192
0
VERTEX
8
Meshes
10
0.449977
20
-0.449977
30
0.095270
70
192
0
VERTEX
8
Meshes
10
0.475543
20
-0.475543
30
0.095270
70
192
0
VERTEX
8
Meshes
10
0.362516
20
-0.542543
30
0.095270
70
192
0
VERTEX
8
Meshes
10
0.243526
20
-0.587923
30
0.095270
70
192
0
VERTEX
8
Meshes
10
0.257362
20
-0.621327
30
0.095270
70
192
0
VERTEX
8
Meshes
10
0.127299
20
-0.639973
30
0.095270
70
192
0
VERTEX
8
Meshes
10
0.000000
20
-0.636363
30
0.095270
70
192
0
VERTEX
8
Meshes
10
0.000000
20
-0.672520
30
0.095270
70
192
0
VERTEX
8
Meshes
10
-0.127298
20
-0.639973
30
0.095270
70
192
0
VERTEX
8
Meshes
10
-0.243526
20
-0.587923
30
0.095270
70
192
0
VERTEX
8
Meshes
10
-0.257362
20
-0.621327
30
0.095270
70
192
0
VERTEX
8
Meshes
10
-0.362516
20
-0.542543
30
0.095270
70
192
0
VERTEX
8
Meshes
10
-0.449977
20
-0.449977
30
0.095270
70
192
0
VERTEX
8
Meshes
10
-0.475543
20
-0.475543
30
0.095270
70
192
0
VERTEX
8
Meshes
10
-0.542543
20
-0.362516
30
0.095270
70
192
0
VERTEX
8
Meshes
10
-0.587923
20
-0.243526
30
0.095270
70
192
0
VERTEX
8
Meshes
10
-0.621327
20
-0.257362
30
0.095270
70
192
0
VERTEX
8
Meshes
10
-0.639973
20
-0.127299
30
0.095270
70
192
0
VERTEX
8
Meshes
10
-0.636363
20
0.000000
30
0.095270
70
192
0
VERTEX
8
Meshes
10
-0.672520
20
0.000000
30
0.095270
70
192
0
VERTEX
8
Meshes
10
-0.639973
20
0.127299
30
0.095270
70
192
0
VERTEX
8
Meshes
10
-0.587923
20
0.243526
30
0.095271
70
192
0
VERTEX
8
Meshes
10
-0.621327
20
0.257362
30
0.095271
70
192
0
VERTEX
8
Meshes
10
-0.542543
20
0.362516
30
0.095271
70
192
0
VERTEX
8
Meshes
10
-0.449977
20
0.449977
30
0.095271
70
192
0
VERTEX
8
Meshes
10
-0.475543
20
0.475543
30
0.095271
70
192
0
VERTEX
8
Meshes
10
-0.362515
20
0.542543
30
0.095271
70
192
0
VERTEX
8
Meshes
10
-0.243525
20
0.587923
30
0.095271
70
192
0
VERTEX
8
Meshes
10
-0.257362
20
0.621327
30
0.095271
70
192
0
VERTEX
8
Meshes
10
-0.127298
20
0.639973
30
0.095271
70
192
0
VERTEX
8
Meshes
10
0.000000
20
0.636363
30
0.095271
70
192
0
VERTEX
8
Meshes
10
0.000000
20
0.672520
30
0.095271
70
192
0
VERTEX
8
Meshes
10
0.362516
20
0.542543
30
0.095271
70
192
0
VERTEX
8
Meshes
10
0.243526
20
0.587923
30
0.095271
70
192
0
VERTEX
8
Meshes
10
0.257363
20
0.621327
30
0.095271
70
192
0
VERTEX
8
Meshes
10
0.127299
20
0.639973
30
0.095271
70
192
0
VERTEX
8
Meshes
10
0.442307
20
0.442307
30
0.001734
70
192
0
VERTEX
8
Meshes
10
0.577902
20
0.239375
30
0.001734
70
192
0
VERTEX
8
Meshes
10
0.625517
20
-0.000000
30
0.001734
70
192
0
VERTEX
8
Meshes
10
0.577902
20
-0.239375
30
0.001734
70
192
0
VERTEX
8
Meshes
10
0.442307
20
-0.442307
30
0.001734
70
192
0
VERTEX
8
Meshes
10
0.239375
20
-0.577902
30
0.001734
70
192
0
VERTEX
8
Meshes
10
0.000000
20
-0.625517
30
0.001734
70
192
0
VERTEX
8
Meshes
10
-0.239375
20
-0.577902
30
0.001734
70
192
0
VERTEX
8
Meshes
10
-0.442307
20
-0.442307
30
0.001734
70
192
0
VERTEX
8
Meshes
10
-0.577902
20
-0.239375
30
0.001734
70
192
0
VERTEX
8
Meshes
10
-0.625516
20
0.000000
30
0.001734
70
192
0
VERTEX
8
Meshes
10
-0.577902
20
0.239375
30
0.001734
70
192
0
VERTEX
8
Meshes
10
-0.442307
20
0.442307
30
0.001734
70
192
0
VERTEX
8
Meshes
10
-0.239374
20
0.577902
30
0.001734
70
192
0
VERTEX
8
Meshes
10
0.000000
20
0.625517
30
0.001734
70
192
0
VERTEX
8
Meshes
10
0.239375
20
0.577902
30
0.001734
70
192
0
VERTEX
8
Meshes
10
0.661909
20
0.274172
30
0.001734
70
192
0
VERTEX
8
Meshes
10
0.506603
20
0.506603
30
0.001734
70
192
0
VERTEX
8
Meshes
10
0.716445
20
-0.000000
30
0.001734
70
192
0
VERTEX
8
Meshes
10
0.661909
20
-0.274172
30
0.001734
70
192
0
VERTEX
8
Meshes
10
0.506603
20
-0.506603
30
0.001734
70
192
0
VERTEX
8
Meshes
10
0.274172
20
-0.661909
30
0.001734
70
192
0
VERTEX
8
Meshes
10
0.000000
20
-0.716445
30
0.001734
70
192
0
VERTEX
8
Meshes
10
-0.274171
20
-0.661909
30
0.001734
70
192
0
VERTEX
8
Meshes
10
-0.506603
20
-0.506603
30
0.001734
70
192
0
VERTEX
8
Meshes
10
-0.661909
20
-0.274172
30
0.001734
70
192
0
VERTEX
8
Meshes
10
-0.716445
20
0.000000
30
0.001734
70
192
0
VERTEX
8
Meshes
10
-0.661909
20
0.274172
30
0.001734
70
192
0
VERTEX
8
Meshes
10
-0.506603
20
0.506603
30
0.001734
70
192
0
VERTEX
8
Meshes
10
-0.274171
20
0.661909
30
0.001734
70
192
0
VERTEX
8
Meshes
10
0.000000
20
0.716445
30
0.001734
70
192
0
VERTEX
8
Meshes
10
0.274172
20
0.661909
30
0.001734
70
192
0
VERTEX
8
Meshes
10
0.304369
20
0.025906
30
0.001734
70
192
0
VERTEX
8
Meshes
10
0.318973
20
0.001598
30
0.001734
70
192
0
VERTEX
8
Meshes
10
0.318973
20
-0.020624
30
0.001734
70
192
0
VERTEX
8
Meshes
10
0.304369
20
-0.044932
30
0.001734
70
192
0
VERTEX
8
Meshes
10
0.278951
20
-0.062931
30
0.001734
70
192
0
VERTEX
8
Meshes
10
-0.111056
20
-0.275964
30
0.001734
70
192
0
VERTEX
8
Meshes
10
-0.136355
20
-0.261310
30
0.001734
70
192
0
VERTEX
8
Meshes
10
-0.150959
20
-0.233735
30
0.001734
70
192
0
VERTEX
8
Meshes
10
-0.150959
20
0.216535
30
0.001734
70
192
0
VERTEX
8
Meshes
10
-0.136355
20
0.244613
30
0.001734
70
192
0
VERTEX
8
Meshes
10
-0.111057
20
0.259121
30
0.001734
70
192
0
VERTEX
8
Meshes
10
0.278340
20
0.044284
30
0.001734
70
192
0
VERTEX
8
Meshes
10
-0.081041
20
-0.275727
30
0.001734
70
192
0
VERTEX
8
Meshes
10
-0.082462
20
0.258850
30
0.001734
70
192
0
VERTEX
8
Meshes
10
0.249667
20
0.018078
30
-0.000000
70
192
0
VERTEX
8
Meshes
10
0.260989
20
-0.000750
30
-0.000000
70
192
0
VERTEX
8
Meshes
10
0.260989
20
-0.018015
30
-0.000000
70
192
0
VERTEX
8
Meshes
10
0.249667
20
-0.036843
30
-0.000000
70
192
0
VERTEX
8
Meshes
10
0.229959
20
-0.050834
30
-0.000000
70
192
0
VERTEX
8
Meshes
10
-0.072625
20
-0.216088
30
-0.000000
70
192
0
VERTEX
8
Meshes
10
-0.092239
20
-0.204726
30
-0.000000
70
192
0
VERTEX
8
Meshes
10
-0.103561
20
-0.183306
30
-0.000000
70
192
0
VERTEX
8
Meshes
10
-0.103561
20
0.165949
30
0.000000
70
192
0
VERTEX
8
Meshes
10
-0.092239
20
0.187767
30
0.000000
70
192
0
VERTEX
8
Meshes
10
-0.072625
20
0.199014
30
0.000000
70
192
0
VERTEX
8
Meshes
10
0.229474
20
0.032370
30
-0.000000
70
192
0
VERTEX
8
Meshes
10
-0.049340
20
-0.215892
30
-0.000000
70
192
0
VERTEX
8
Meshes
10
-0.050468
20
0.198813
30
0.000000
70
192
0
VERTEX
8
Meshes
10
0.059390
20
-0.008911
30
-0.000000
70
192
0
VERTEX
8
Meshes
10
0.210039
20
0.085397
30
0.001734
70
192
0
VERTEX
8
Meshes
10
0.175915
20
0.064609
30
-0.000000
70
192
0
VERTEX
8
Meshes
10
-0.024884
20
0.226453
30
0.001734
70
192
0
VERTEX
8
Meshes
10
-0.005155
20
0.173330
30
0.000000
70
192
0
VERTEX
8
Meshes
10
-0.152847
20
0.129479
30
0.001734
70
192
0
VERTEX
8
Meshes
10
-0.105060
20
0.097797
30
-0.000000
70
192
0
VERTEX
8
Meshes
10
-0.152847
20
-0.149690
30
0.001734
70
192
0
VERTEX
8
Meshes
10
-0.105060
20
-0.117473
30
-0.000000
70
192
0
VERTEX
8
Meshes
10
-0.015747
20
-0.239040
30
0.001734
70
192
0
VERTEX
8
Meshes
10
0.001895
20
-0.187125
30
-0.000000
70
192
0
VERTEX
8
Meshes
10
0.215128
20
-0.101159
30
0.001734
70
192
0
VERTEX
8
Meshes
10
0.179867
20
-0.080838
30
-0.000000
70
192
0
VERTEX
8
Meshes
10
0.489294
20
0.489294
30
0.000000
70
192
0
VERTEX
8
Meshes
10
0.639293
20
0.264804
30
0.000000
70
192
0
VERTEX
8
Meshes
10
0.691966
20
-0.000000
30
-0.000000
70
192
0
VERTEX
8
Meshes
10
0.639293
20
-0.264804
30
-0.000000
70
192
0
VERTEX
8
Meshes
10
0.489294
20
-0.489294
30
-0.000000
70
192
0
VERTEX
8
Meshes
10
0.264804
20
-0.639293
30
-0.000000
70
192
0
VERTEX
8
Meshes
10
0.000000
20
-0.691966
30
-0.000000
70
192
0
VERTEX
8
Meshes
10
-0.264804
20
-0.639293
30
-0.000000
70
192
0
VERTEX
8
Meshes
10
-0.489294
20
-0.489294
30
-0.000000
70
192
0
VERTEX
8
Meshes
10
-0.639293
20
-0.264804
30
-0.000000
70
192
0
VERTEX
8
Meshes
10
-0.691966
20
0.000000
30
0.000000
70
192
0
VERTEX
8
Meshes
10
-0.639293
20
0.264804
30
0.000000
70
192
0
VERTEX
8
Meshes
10
-0.489294
20
0.489294
30
0.000000
70
192
0
VERTEX
8
Meshes
10
-0.264804
20
0.639293
30
0.000000
70
192
0
VERTEX
8
Meshes
10
0.000000
20
0.691966
30
0.000000
70
192
0
VERTEX
8
Meshes
10
0.264804
20
0.639293
30
0.000000
70
192
0
VERTEX
8
Meshes
10
0.461482
20
0.461482
30
0.000000
70
192
0
VERTEX
8
Meshes
10
0.602955
20
0.249752
30
0.000000
70
192
0
VERTEX
8
Meshes
10
0.652634
20
-0.000000
30
-0.000000
70
192
0
VERTEX
8
Meshes
10
0.602955
20
-0.249752
30
-0.000000
70
192
0
VERTEX
8
Meshes
10
0.461482
20
-0.461482
30
-0.000000
70
192
0
VERTEX
8
Meshes
10
0.249752
20
-0.602955
30
-0.000000
70
192
0
VERTEX
8
Meshes
10
0.000000
20
-0.652634
30
-0.000000
70
192
0
VERTEX
8
Meshes
10
-0.249752
20
-0.602955
30
-0.000000
70
192
0
VERTEX
8
Meshes
10
-0.461482
20
-0.461482
30
-0.000000
70
192
0
VERTEX
8
Meshes
10
-0.602955
20
-0.249752
30
-0.000000
70
192
0
VERTEX
8
Meshes
10
-0.652634
20
0.000000
30
0.000000
70
192
0
VERTEX
8
Meshes
10
-0.602955
20
0.249752
30
0.000000
70
192
0
VERTEX
8
Meshes
10
-0.461482
20
0.461482
30
0.000000
70
192
0
VERTEX
8
Meshes
10
-0.249752
20
0.602955
30
0.000000
70
192
0
VERTEX
8
Meshes
10
0.000000
20
0.652634
30
0.000000
70
192
0
VERTEX
8
Meshes
10
0.249753
20
0.602955
30
0.000000
70
192
0
VERTEX
8
Meshes
10
0.218649
20
-0.103258
30
0.020225
70
192
0
VERTEX
8
Meshes
10
-0.017479
20
-0.244276
30
0.020225
70
192
0
VERTEX
8
Meshes
10
-0.157700
20
-0.152893
30
0.020225
70
192
0
VERTEX
8
Meshes
10
-0.157700
20
0.132628
30
0.020225
70
192
0
VERTEX
8
Meshes
10
-0.026825
20
0.231810
30
0.020225
70
192
0
VERTEX
8
Meshes
10
0.213444
20
0.087543
30
0.020225
70
192
0
VERTEX
8
Meshes
10
-0.085712
20
0.264944
30
0.020225
70
192
0
VERTEX
8
Meshes
10
-0.084259
20
-0.281798
30
0.020225
70
192
0
VERTEX
8
Meshes
10
0.283300
20
0.045495
30
0.020225
70
192
0
VERTEX
8
Meshes
10
-0.114958
20
0.265221
30
0.020225
70
192
0
VERTEX
8
Meshes
10
-0.140832
20
0.250382
30
0.020225
70
192
0
VERTEX
8
Meshes
10
-0.155768
20
0.221666
30
0.020225
70
192
0
VERTEX
8
Meshes
10
-0.155768
20
-0.238850
30
0.020225
70
192
0
VERTEX
8
Meshes
10
-0.140832
20
-0.267053
30
0.020225
70
192
0
VERTEX
8
Meshes
10
-0.114958
20
-0.282040
30
0.020225
70
192
0
VERTEX
8
Meshes
10
0.283925
20
-0.064159
30
0.020225
70
192
0
VERTEX
8
Meshes
10
0.309921
20
-0.045752
30
0.020225
70
192
0
VERTEX
8
Meshes
10
0.324857
20
-0.020890
30
0.020225
70
192
0
VERTEX
8
Meshes
10
0.324857
20
0.001838
30
0.020225
70
192
0
VERTEX
8
Meshes
10
0.309921
20
0.026699
30
0.020225
70
192
0
VERTEX
8
Meshes
10
0.275387
20
0.664843
30
0.020225
70
192
0
VERTEX
8
Meshes
10
0.000000
20
0.719621
30
0.020225
70
192
0
VERTEX
8
Meshes
10
-0.275387
20
0.664843
30
0.020225
70
192
0
VERTEX
8
Meshes
10
-0.508849
20
0.508849
30
0.020225
70
192
0
VERTEX
8
Meshes
10
-0.664843
20
0.275387
30
0.020225
70
192
0
VERTEX
8
Meshes
10
-0.719621
20
0.000000
30
0.020225
70
192
0
VERTEX
8
Meshes
10
-0.664843
20
-0.275387
30
0.020225
70
192
0
VERTEX
8
Meshes
10
-0.508849
20
-0.508849
30
0.020225
70
192
0
VERTEX
8
Meshes
10
-0.275387
20
-0.664843
30
0.020225
70
192
0
VERTEX
8
Meshes
10
0.000000
20
-0.719621
30
0.020225
70
192
0
VERTEX
8
Meshes
10
0.275387
20
-0.664843
30
0.020225
70
192
0
VERTEX
8
Meshes
10
0.508849
20
-0.508849
30
0.020225
70
192
0
VERTEX
8
Meshes
10
0.664843
20
-0.275387
30
0.020225
70
192
0
VERTEX
8
Meshes
10
0.719621
20
-0.000000
30
0.020225
70
192
0
VERTEX
8
Meshes
10
0.508849
20
0.508849
30
0.020225
70
192
0
VERTEX
8
Meshes
10
0.664843
20
0.275387
30
0.020225
70
192
0
VERTEX
8
Meshes
10
0.237992
20
0.574561
30
0.020225
70
192
0
VERTEX
8
Meshes
10
0.000000
20
0.621901
30
0.020225
70
192
0
VERTEX
8
Meshes
10
-0.237991
20
0.574562
30
0.020225
70
192
0
VERTEX
8
Meshes
10
-0.439750
20
0.439750
30
0.020225
70
192
0
VERTEX
8
Meshes
10
-0.574561
20
0.237991
30
0.020225
70
192
0
VERTEX
8
Meshes
10
-0.621901
20
0.000000
30
0.020225
70
192
0
VERTEX
8
Meshes
10
-0.574561
20
-0.237991
30
0.020225
70
192
0
VERTEX
8
Meshes
10
-0.439750
20
-0.439750
30
0.020225
70
192
0
VERTEX
8
Meshes
10
-0.237991
20
-0.574562
30
0.020225
70
192
0
VERTEX
8
Meshes
10
0.000000
20
-0.621901
30
0.020225
70
192
0
VERTEX
8
Meshes
10
0.237991
20
-0.574561
30
0.020225
70
192
0
VERTEX
8
Meshes
10
0.439750
20
-0.439750
30
0.020225
70
192
0
VERTEX
8
Meshes
10
0.574562
20
-0.237991
30
0.020225
70
192
0
VERTEX
8
Meshes
10
0.621901
20
-0.000000
30
0.020225
70
192
0
VERTEX
8
Meshes
10
0.574561
20
0.237991
30
0.020225
70
192
0
VERTEX
8
Meshes
10
0.439750
20
0.439750
30
0.020225
70
192
0
VERTEX
8
Meshes
10
0.439750
20
0.439750
30
0.072573
70
192
0
VERTEX
8
Meshes
10
0.574562
20
0.237991
30
0.072573
70
192
0
VERTEX
8
Meshes
10
0.621901
20
-0.000000
30
0.072573
70
192
0
VERTEX
8
Meshes
10
0.574561
20
-0.237991
30
0.072573
70
192
0
VERTEX
8
Meshes
10
0.439750
20
-0.439750
30
0.072573
70
192
0
VERTEX
8
Meshes
10
0.237991
20
-0.574561
30
0.072573
70
192
0
VERTEX
8
Meshes
10
0.000000
20
-0.621901
30
0.072573
70
192
0
VERTEX
8
Meshes
10
-0.237991
20
-0.574562
30
0.072573
70
192
0
VERTEX
8
Meshes
10
-0.439750
20
-0.439750
30
0.072573
70
192
0
VERTEX
8
Meshes
10
-0.574561
20
-0.237991
30
0.072573
70
192
0
VERTEX
8
Meshes
10
-0.621901
20
0.000000
30
0.072573
70
192
0
VERTEX
8
Meshes
10
-0.574561
20
0.237991
30
0.072573
70
192
0
VERTEX
8
Meshes
10
-0.439750
20
0.439750
30
0.072573
70
192
0
VERTEX
8
Meshes
10
-0.237991
20
0.574562
30
0.072573
70
192
0
VERTEX
8
Meshes
10
0.000000
20
0.621901
30
0.072573
70
192
0
VERTEX
8
Meshes
10
0.237992
20
0.574561
30
0.072573
70
192
0
VERTEX
8
Meshes
10
0.664843
20
0.275387
30
0.072573
70
192
0
VERTEX
8
Meshes
10
0.508849
20
0.508849
30
0.072573
70
192
0
VERTEX
8
Meshes
10
0.719621
20
-0.000000
30
0.072573
70
192
0
VERTEX
8
Meshes
10
0.664843
20
-0.275387
30
0.072573
70
192
0
VERTEX
8
Meshes
10
0.508849
20
-0.508849
30
0.072573
70
192
0
VERTEX
8
Meshes
10
0.275387
20
-0.664843
30
0.072572
70
192
0
VERTEX
8
Meshes
10
0.000000
20
-0.719621
30
0.072572
70
192
0
VERTEX
8
Meshes
10
-0.275387
20
-0.664843
30
0.072572
70
192
0
VERTEX
8
Meshes
10
-0.508849
20
-0.508849
30
0.072573
70
192
0
VERTEX
8
Meshes
10
-0.664843
20
-0.275387
30
0.072573
70
192
0
VERTEX
8
Meshes
10
-0.719621
20
0.000000
30
0.072573
70
192
0
VERTEX
8
Meshes
10
-0.664843
20
0.275387
30
0.072573
70
192
0
VERTEX
8
Meshes
10
-0.508849
20
0.508849
30
0.072573
70
192
0
VERTEX
8
Meshes
10
-0.275387
20
0.664843
30
0.072573
70
192
0
VERTEX
8
Meshes
10
0.000000
20
0.719621
30
0.072573
70
192
0
VERTEX
8
Meshes
10
0.275387
20
0.664843
30
0.072573
70
192
0
VERTEX
8
Meshes
10
0.309921
20
0.026699
30
0.072573
70
192
0
VERTEX
8
Meshes
10
0.324857
20
0.001838
30
0.072573
70
192
0
VERTEX
8
Meshes
10
0.324857
20
-0.020890
30
0.072573
70
192
0
VERTEX
8
Meshes
10
0.309921
20
-0.045752
30
0.072573
70
192
0
VERTEX
8
Meshes
10
0.283925
20
-0.064159
30
0.072573
70
192
0
VERTEX
8
Meshes
10
-0.114958
20
-0.282040
30
0.072573
70
192
0
VERTEX
8
Meshes
10
-0.140832
20
-0.267053
30
0.072573
70
192
0
VERTEX
8
Meshes
10
-0.155768
20
-0.238850
30
0.072573
70
192
0
VERTEX
8
Meshes
10
-0.155768
20
0.221666
30
0.072573
70
192
0
VERTEX
8
Meshes
10
-0.140832
20
0.250382
30
0.072573
70
192
0
VERTEX
8
Meshes
10
-0.114958
20
0.265221
30
0.072573
70
192
0
VERTEX
8
Meshes
10
0.283300
20
0.045495
30
0.072573
70
192
0
VERTEX
8
Meshes
10
-0.084259
20
-0.281798
30
0.072573
70
192
0
VERTEX
8
Meshes
10
-0.085712
20
0.264944
30
0.072573
70
192
0
VERTEX
8
Meshes
10
0.213444
20
0.087543
30
0.072573
70
192
0
VERTEX
8
Meshes
10
-0.026825
20
0.231810
30
0.072573
70
192
0
VERTEX
8
Meshes
10
-0.157700
20
0.132628
30
0.072573
70
192
0
VERTEX
8
Meshes
10
-0.157700
20
-0.152893
30
0.072573
70
192
0
VERTEX
8
Meshes
10
-0.017479
20
-0.244276
30
0.072573
70
192
0
VERTEX
8
Meshes
10
0.218649
20
-0.103258
30
0.072573
70
192
0
VERTEX
8
Meshes
10
0.249753
20
0.602955
30
0.095271
70
192
0
VERTEX
8
Meshes
10
0.000000
20
0.652634
30
0.095271
70
192
0
VERTEX
8
Meshes
10
-0.249752
20
0.602955
30
0.095271
70
192
0
VERTEX
8
Meshes
10
-0.461482
20
0.461482
30
0.095271
70
192
0
VERTEX
8
Meshes
10
-0.602955
20
0.249752
30
0.095271
70
192
0
VERTEX
8
Meshes
10
-0.652634
20
0.000000
30
0.095270
70
192
0
VERTEX
8
Meshes
10
-0.602955
20
-0.249752
30
0.095270
70
192
0
VERTEX
8
Meshes
10
-0.461482
20
-0.461482
30
0.095270
70
192
0
VERTEX
8
Meshes
10
-0.249752
20
-0.602955
30
0.095270
70
192
0
VERTEX
8
Meshes
10
0.000000
20
-0.652634
30
0.095270
70
192
0
VERTEX
8
Meshes
10
0.249752
20
-0.602955
30
0.095270
70
192
0
VERTEX
8
Meshes
10
0.461482
20
-0.461482
30
0.095270
70
192
0
VERTEX
8
Meshes
10
0.602955
20
-0.249752
30
0.095270
70
192
0
VERTEX
8
Meshes
10
0.652634
20
-0.000000
30
0.095270
70
192
0
VERTEX
8
Meshes
10
0.602955
20
0.249752
30
0.095271
70
192
0
VERTEX
8
Meshes
10
0.461482
20
0.461482
30
0.095271
70
192
0
VERTEX
8
Meshes
10
0.264804
20
0.639293
30
0.095271
70
192
0
VERTEX
8
Meshes
10
0.000000
20
0.691966
30
0.095271
70
192
0
VERTEX
8
Meshes
10
-0.264804
20
0.639293
30
0.095271
70
192
0
VERTEX
8
Meshes
10
-0.489294
20
0.489294
30
0.095271
70
192
0
VERTEX
8
Meshes
10
-0.639293
20
0.264804
30
0.095271
70
192
0
VERTEX
8
Meshes
10
-0.691966
20
0.000000
30
0.095270
70
192
0
VERTEX
8
Meshes
10
-0.639293
20
-0.264804
30
0.095270
70
192
0
VERTEX
8
Meshes
10
-0.489294
20
-0.489294
30
0.095270
70
192
0
VERTEX
8
Meshes
10
-0.264804
20
-0.639293
30
0.095270
70
192
0
VERTEX
8
Meshes
10
0.000000
20
-0.691966
30
0.095270
70
192
0
VERTEX
8
Meshes
10
0.264804
20
-0.639293
30
0.095270
70
192
0
VERTEX
8
Meshes
10
0.489294
20
-0.489294
30
0.095270
70
192
0
VERTEX
8
Meshes
10
0.639293
20
-0.264804
30
0.095270
70
192
0
VERTEX
8
Meshes
10
0.691966
20
-0.000000
30
0.095270
70
192
0
VERTEX
8
Meshes
10
0.639293
20
0.264804
30
0.095271
70
192
0
VERTEX
8
Meshes
10
0.489294
20
0.489294
30
0.095271
70
192
0
VERTEX
8
Meshes
10
0.179867
20
-0.080838
30
0.095270
70
192
0
VERTEX
8
Meshes
10
0.215128
20
-0.101159
30
0.093183
70
192
0
VERTEX
8
Meshes
10
0.001895
20
-0.187125
30
0.095270
70
192
0
VERTEX
8
Meshes
10
-0.015747
20
-0.239040
30
0.093183
70
192
0
VERTEX
8
Meshes
10
-0.105060
20
-0.117473
30
0.095270
70
192
0
VERTEX
8
Meshes
10
-0.152847
20
-0.149690
30
0.093183
70
192
0
VERTEX
8
Meshes
10
-0.105060
20
0.097797
30
0.095270
70
192
0
VERTEX
8
Meshes
10
-0.152847
20
0.129479
30
0.093183
70
192
0
VERTEX
8
Meshes
10
-0.005155
20
0.173330
30
0.095270
70
192
0
VERTEX
8
Meshes
10
-0.024884
20
0.226453
30
0.093183
70
192
0
VERTEX
8
Meshes
10
0.175915
20
0.064609
30
0.095270
70
192
0
VERTEX
8
Meshes
10
0.210039
20
0.085397
30
0.093183
70
192
0
VERTEX
8
Meshes
10
0.059390
20
-0.008911
30
0.095270
70
192
0
VERTEX
8
Meshes
10
-0.050468
20
0.198813
30
0.095271
70
192
0
VERTEX
8
Meshes
10
-0.049340
20
-0.215892
30
0.095270
70
192
0
VERTEX
8
Meshes
10
0.229474
20
0.032370
30
0.095270
70
192
0
VERTEX
8
Meshes
10
-0.072625
20
0.199014
30
0.095271
70
192
0
VERTEX
8
Meshes
10
-0.092239
20
0.187767
30
0.095271
70
192
0
VERTEX
8
Meshes
10
-0.103561
20
0.165949
30
0.095271
70
192
0
VERTEX
8
Meshes
10
-0.103561
20
-0.183306
30
0.095270
70
192
0
VERTEX
8
Meshes
10
-0.092239
20
-0.204726
30
0.095270
70
192
0
VERTEX
8
Meshes
10
-0.072625
20
-0.216088
30
0.095270
70
192
0
VERTEX
8
Meshes
10
0.229959
20
-0.050834
30
0.095270
70
192
0
VERTEX
8
Meshes
10
0.249667
20
-0.036843
30
0.095270
70
192
0
VERTEX
8
Meshes
10
0.260989
20
-0.018015
30
0.095270
70
192
0
VERTEX
8
Meshes
10
0.260989
20
-0.000750
30
0.095270
70
192
0
VERTEX
8
Meshes
10
0.249667
20
0.018078
30
0.095270
70
192
0
VERTEX
8
Meshes
10
-0.082462
20
0.258850
30
0.093183
70
192
0
VERTEX
8
Meshes
10
-0.081041
20
-0.275726
30
0.093183
70
192
0
VERTEX
8
Meshes
10
0.278340
20
0.044284
30
0.093183
70
192
0
VERTEX
8
Meshes
10
-0.111057
20
0.259121
30
0.093183
70
192
0
VERTEX
8
Meshes
10
-0.136355
20
0.244613
30
0.093183
70
192
0
VERTEX
8
Meshes
10
-0.150959
20
0.216535
30
0.093183
70
192
0
VERTEX
8
Meshes
10
-0.150959
20
-0.233735
30
0.093183
70
192
0
VERTEX
8
Meshes
10
-0.136355
20
-0.261310
30
0.093183
70
192
0
VERTEX
8
Meshes
10
-0.111056
20
-0.275964
30
0.093183
70
192
0
VERTEX
8
Meshes
10
0.278951
20
-0.062931
30
0.093183
70
192
0
VERTEX
8
Meshes
10
0.304369
20
-0.044932
30
0.093183
70
192
0
VERTEX
8
Meshes
10
0.318973
20
-0.020624
30
0.093183
70
192
0
VERTEX
8
Meshes
10
0.318973
20
0.001598
30
0.093183
70
192
0
VERTEX
8
Meshes
10
0.304369
20
0.025906
30
0.093183
70
192
0
VERTEX
8
Meshes
10
0.274172
20
0.661909
30
0.093183
70
192
0
VERTEX
8
Meshes
10
0.000000
20
0.716445
30
0.093183
70
192
0
VERTEX
8
Meshes
10
-0.274171
20
0.661909
30
0.093183
70
192
0
VERTEX
8
Meshes
10
-0.506603
20
0.506603
30
0.093183
70
192
0
VERTEX
8
Meshes
10
-0.661909
20
0.274172
30
0.093183
70
192
0
VERTEX
8
Meshes
10
-0.716445
20
0.000000
30
0.093183
70
192
0
VERTEX
8
Meshes
10
-0.661909
20
-0.274172
30
0.093183
70
192
0
VERTEX
8
Meshes
10
-0.506603
20
-0.506603
30
0.093183
70
192
0
VERTEX
8
Meshes
10
-0.274171
20
-0.661909
30
0.093183
70
192
0
VERTEX
8
Meshes
10
0.000000
20
-0.716445
30
0.093183
70
192
0
VERTEX
8
Meshes
10
0.274172
20
-0.661909
30
0.093183
70
192
0
VERTEX
8
Meshes
10
0.506603
20
-0.506603
30
0.093183
70
192
0
VERTEX
8
Meshes
10
0.661909
20
-0.274172
30
0.093183
70
192
0
VERTEX
8
Meshes
10
0.716445
20
-0.000000
30
0.093183
70
192
0
VERTEX
8
Meshes
10
0.506603
20
0.506603
30
0.093183
70
192
0
VERTEX
8
Meshes
10
0.661909
20
0.274172
30
0.093183
70
192
0
VERTEX
8
Meshes
10
0.239375
20
0.577902
30
0.093183
70
192
0
VERTEX
8
Meshes
10
0.000000
20
0.625517
30
0.093183
70
192
0
VERTEX
8
Meshes
10
-0.239374
20
0.577902
30
0.093183
70
192
0
VERTEX
8
Meshes
10
-0.442307
20
0.442307
30
0.093183
70
192
0
VERTEX
8
Meshes
10
-0.577902
20
0.239375
30
0.093183
70
192
0
VERTEX
8
Meshes
10
-0.625516
20
0.000000
30
0.093183
70
192
0
VERTEX
8
Meshes
10
-0.577902
20
-0.239375
30
0.093183
70
192
0
VERTEX
8
Meshes
10
-0.442307
20
-0.442307
30
0.093183
70
192
0
VERTEX
8
Meshes
10
-0.239375
20
-0.577902
30
0.093183
70
192
0
VERTEX
8
Meshes
10
0.000000
20
-0.625517
30
0.093183
70
192
0
VERTEX
8
Meshes
10
0.239375
20
-0.577902
30
0.093183
70
192
0
VERTEX
8
Meshes
10
0.442307
20
-0.442307
30
0.093183
70
192
0
VERTEX
8
Meshes
10
0.577902
20
-0.239375
30
0.093183
70
192
0
VERTEX
8
Meshes
10
0.625517
20
-0.000000
30
0.093183
70
192
0
VERTEX
8
Meshes
10
0.577902
20
0.239375
30
0.093183
70
192
0
VERTEX
8
Meshes
10
0.442307
20
0.442307
30
0.093183
70
192
0
VERTEX
8
Meshes
62
250
10
0.0
20
0.0
30
0.0
70
128
71
1
72
365
73
1010
74
378
0
VERTEX
8
Meshes
62
250
10
0.0
20
0.0
30
0.0
70
128
71
1
72
378
73
1024
74
377
0
VERTEX
8
Meshes
62
250
10
0.0
20
0.0
30
0.0
70
128
71
1
72
377
73
1023
74
376
0
VERTEX
8
Meshes
62
250
10
0.0
20
0.0
30
0.0
70
128
71
1
72
376
73
1009
74
365
0
VERTEX
8
Meshes
62
250
10
0.0
20
0.0
30
0.0
70
128
71
2
72
366
73
1011
74
380
0
VERTEX
8
Meshes
62
250
10
0.0
20
0.0
30
0.0
70
128
71
2
72
380
73
1025
74
379
0
VERTEX
8
Meshes
62
250
10
0.0
20
0.0
30
0.0
70
128
71
2
72
379
73
1024
74
378
0
VERTEX
8
Meshes
62
250
10
0.0
20
0.0
30
0.0
70
128
71
2
72
378
73
1010
74
366
0
VERTEX
8
Meshes
62
250
10
0.0
20
0.0
30
0.0
70
128
71
3
72
367
73
1012
74
382
0
VERTEX
8
Meshes
62
250
10
0.0
20
0.0
30
0.0
70
128
71
3
72
382
73
1026
74
381
0
VERTEX
8
Meshes
62
250
10
0.0
20
0.0
30
0.0
70
128
71
3
72
381
73
1025
74
380
0
VERTEX
8
Meshes
62
250
10
0.0
20
0.0
30
0.0
70
128
71
3
72
380
73
1011
74
367
0
VERTEX
8
Meshes
62
250
10
0.0
20
0.0
30
0.0
70
128
71
4
72
368
73
1013
74
384
0
VERTEX
8
Meshes
62
250
10
0.0
20
0.0
30
0.0
70
128
71
4
72
384
73
1027
74
383
0
VERTEX
8
Meshes
62
250
10
0.0
20
0.0
30
0.0
70
128
71
4
72
383
73
1026
74
382
0
VERTEX
8
Meshes
62
250
10
0.0
20
0.0
30
0.0
70
128
71
4
72
382
73
1012
74
368
0
VERTEX
8
Meshes
62
250
10
0.0
20
0.0
30
0.0
70
128
71
5
72
369
73
1015
74
387
0
VERTEX
8
Meshes
62
250
10
0.0
20
0.0
30
0.0
70
128
71
5
72
387
73
1029
74
386
0
VERTEX
8
Meshes
62
250
10
0.0
20
0.0
30
0.0
70
128
71
5
72
386
73
1028
74
385
0
VERTEX
8
Meshes
62
250
10
0.0
20
0.0
30
0.0
70
128
71
5
72
385
73
1014
74
369
0
VERTEX
8
Meshes
62
250
10
0.0
20
0.0
30
0.0
70
128
71
6
72
370
73
1016
74
389
0
VERTEX
8
Meshes
62
250
10
0.0
20
0.0
30
0.0
70
128
71
6
72
389
73
1030
74
388
0
VERTEX
8
Meshes
62
250
10
0.0
20
0.0
30
0.0
70
128
71
6
72
388
73
1029
74
387
0
VERTEX
8
Meshes
62
250
10
0.0
20
0.0
30
0.0
70
128
71
6
72
387
73
1015
74
370
0
VERTEX
8
Meshes
62
250
10
0.0
20
0.0
30
0.0
70
128
71
7
72
390
73
1017
74
371
0
VERTEX
8
Meshes
62
250
10
0.0
20
0.0
30
0.0
70
128
71
7
72
371
73
1018
74
391
0
VERTEX
8
Meshes
62
250
10
0.0
20
0.0
30
0.0
70
128
71
7
72
391
73
1032
74
392
0
VERTEX
8
Meshes
62
250
10
0.0
20
0.0
30
0.0
70
128
71
7
72
392
73
1031
74
390
0
VERTEX
8
Meshes
62
250
10
0.0
20
0.0
30
0.0
70
128
71
8
72
372
73
1019
74
394
0
VERTEX
8
Meshes
62
250
10
0.0
20
0.0
30
0.0
70
128
71
8
72
394
73
1033
74
393
0
VERTEX
8
Meshes
62
250
10
0.0
20
0.0
30
0.0
70
128
71
8
72
393
73
1032
74
391
0
VERTEX
8
Meshes
62
250
10
0.0
20
0.0
30
0.0
70
128
71
8
72
391
73
1018
74
372
0
VERTEX
8
Meshes
62
250
10
0.0
20
0.0
30
0.0
70
128
71
9
72
373
73
1009
74
376
0
VERTEX
8
Meshes
62
250
10
0.0
20
0.0
30
0.0
70
128
71
9
72
376
73
1023
74
396
0
VERTEX
8
Meshes
62
250
10
0.0
20
0.0
30
0.0
70
128
71
9
72
396
73
1034
74
395
0
VERTEX
8
Meshes
62
250
10
0.0
20
0.0
30
0.0
70
128
71
9
72
395
73
1020
74
373
0
VERTEX
8
Meshes
62
250
10
0.0
20
0.0
30
0.0
70
128
71
10
72
374
73
1014
74
385
0
VERTEX
8
Meshes
62
250
10
0.0
20
0.0
30
0.0
70
128
71
10
72
385
73
1028
74
398
0
VERTEX
8
Meshes
62
250
10
0.0
20
0.0
30
0.0
70
128
71
10
72
398
73
1035
74
397
0
VERTEX
8
Meshes
62
250
10
0.0
20
0.0
30
0.0
70
128
71
10
72
397
73
1021
74
374
0
VERTEX
8
Meshes
62
250
10
0.0
20
0.0
30
0.0
70
128
71
11
72
375
73
1022
74
400
0
VERTEX
8
Meshes
62
250
10
0.0
20
0.0
30
0.0
70
128
71
11
72
400
73
1036
74
399
0
VERTEX
8
Meshes
62
250
10
0.0
20
0.0
30
0.0
70
128
71
11
72
399
73
1033
74
394
0
VERTEX
8
Meshes
62
250
10
0.0
20
0.0
30
0.0
70
128
71
11
72
394
73
1019
74
375
0
VERTEX
8
Meshes
62
250
10
0.0
20
0.0
30
0.0
70
128
71
12
72
377
73
1024
74
401
0
VERTEX
8
Meshes
62
250
10
0.0
20
0.0
30
0.0
70
128
71
12
72
401
73
1037
74
414
0
VERTEX
8
Meshes
62
250
10
0.0
20
0.0
30
0.0
70
128
71
12
72
414
73
1023
74
377
0
VERTEX
8
Meshes
62
250
10
0.0
20
0.0
30
0.0
70
128
71
13
72
379
73
1025
74
413
0
VERTEX
8
Meshes
62
250
10
0.0
20
0.0
30
0.0
70
128
71
13
72
413
73
1037
74
401
0
VERTEX
8
Meshes
62
250
10
0.0
20
0.0
30
0.0
70
128
71
13
72
401
73
1024
74
379
0
VERTEX
8
Meshes
62
250
10
0.0
20
0.0
30
0.0
70
128
71
14
72
381
73
1026
74
412
0
VERTEX
8
Meshes
62
250
10
0.0
20
0.0
30
0.0
70
128
71
14
72
412
73
1037
74
413
0
VERTEX
8
Meshes
62
250
10
0.0
20
0.0
30
0.0
70
128
71
14
72
413
73
1025
74
381
0
VERTEX
8
Meshes
62
250
10
0.0
20
0.0
30
0.0
70
128
71
15
72
383
73
1027
74
411
0
VERTEX
8
Meshes
62
250
10
0.0
20
0.0
30
0.0
70
128
71
15
72
411
73
1037
74
412
0
VERTEX
8
Meshes
62
250
10
0.0
20
0.0
30
0.0
70
128
71
15
72
412
73
1026
74
383
0
VERTEX
8
Meshes
62
250
10
0.0
20
0.0
30
0.0
70
128
71
16
72
386
73
1029
74
409
0
VERTEX
8
Meshes
62
250
10
0.0
20
0.0
30
0.0
70
128
71
16
72
409
73
1037
74
410
0
VERTEX
8
Meshes
62
250
10
0.0
20
0.0
30
0.0
70
128
71
16
72
410
73
1028
74
386
0
VERTEX
8
Meshes
62
250
10
0.0
20
0.0
30
0.0
70
128
71
17
72
388
73
1030
74
408
0
VERTEX
8
Meshes
62
250
10
0.0
20
0.0
30
0.0
70
128
71
17
72
408
73
1037
74
409
0
VERTEX
8
Meshes
62
250
10
0.0
20
0.0
30
0.0
70
128
71
17
72
409
73
1029
74
388
0
VERTEX
8
Meshes
62
250
10
0.0
20
0.0
30
0.0
70
128
71
18
72
407
73
1031
74
392
0
VERTEX
8
Meshes
62
250
10
0.0
20
0.0
30
0.0
70
128
71
18
72
392
73
1032
74
406
0
VERTEX
8
Meshes
62
250
10
0.0
20
0.0
30
0.0
70
128
71
18
72
406
73
1037
74
407
0
VERTEX
8
Meshes
62
250
10
0.0
20
0.0
30
0.0
70
128
71
19
72
393
73
1033
74
405
0
VERTEX
8
Meshes
62
250
10
0.0
20
0.0
30
0.0
70
128
71
19
72
405
73
1037
74
406
0
VERTEX
8
Meshes
62
250
10
0.0
20
0.0
30
0.0
70
128
71
19
72
406
73
1032
74
393
0
VERTEX
8
Meshes
62
250
10
0.0
20
0.0
30
0.0
70
128
71
20
72
396
73
1023
74
414
0
VERTEX
8
Meshes
62
250
10
0.0
20
0.0
30
0.0
70
128
71
20
72
414
73
1037
74
404
0
VERTEX
8
Meshes
62
250
10
0.0
20
0.0
30
0.0
70
128
71
20
72
404
73
1034
74
396
0
VERTEX
8
Meshes
62
250
10
0.0
20
0.0
30
0.0
70
128
71
21
72
398
73
1028
74
410
0
VERTEX
8
Meshes
62
250
10
0.0
20
0.0
30
0.0
70
128
71
21
72
410
73
1037
74
403
0
VERTEX
8
Meshes
62
250
10
0.0
20
0.0
30
0.0
70
128
71
21
72
403
73
1035
74
398
0
VERTEX
8
Meshes
62
250
10
0.0
20
0.0
30
0.0
70
128
71
22
72
399
73
1036
74
402
0
VERTEX
8
Meshes
62
250
10
0.0
20
0.0
30
0.0
70
128
71
22
72
402
73
1037
74
405
0
VERTEX
8
Meshes
62
250
10
0.0
20
0.0
30
0.0
70
128
71
22
72
405
73
1033
74
399
0
VERTEX
8
Meshes
62
250
10
0.0
20
0.0
30
0.0
70
128
71
23
72
415
73
1020
74
395
0
VERTEX
8
Meshes
62
250
10
0.0
20
0.0
30
0.0
70
128
71
23
72
395
73
1034
74
416
0
VERTEX
8
Meshes
62
250
10
0.0
20
0.0
30
0.0
70
128
71
23
72
416
73
1039
74
417
0
VERTEX
8
Meshes
62
250
10
0.0
20
0.0
30
0.0
70
128
71
23
72
417
73
1038
74
415
0
VERTEX
8
Meshes
62
250
10
0.0
20
0.0
30
0.0
70
128
71
24
72
416
73
1034
74
404
0
VERTEX
8
Meshes
62
250
10
0.0
20
0.0
30
0.0
70
128
71
24
72
404
73
1037
74
418
0
VERTEX
8
Meshes
62
250
10
0.0
20
0.0
30
0.0
70
128
71
24
72
418
73
1039
74
416
0
VERTEX
8
Meshes
62
250
10
0.0
20
0.0
30
0.0
70
128
71
25
72
419
73
1038
74
417
0
VERTEX
8
Meshes
62
250
10
0.0
20
0.0
30
0.0
70
128
71
25
72
417
73
1039
74
421
0
VERTEX
8
Meshes
62
250
10
0.0
20
0.0
30
0.0
70
128
71
25
72
421
73
1041
74
423
0
VERTEX
8
Meshes
62
250
10
0.0
20
0.0
30
0.0
70
128
71
25
72
423
73
1040
74
419
0
VERTEX
8
Meshes
62
250
10
0.0
20
0.0
30
0.0
70
128
71
26
72
420
73
1040
74
423
0
VERTEX
8
Meshes
62
250
10
0.0
20
0.0
30
0.0
70
128
71
26
72
423
73
1041
74
422
0
VERTEX
8
Meshes
62
250
10
0.0
20
0.0
30
0.0
70
128
71
26
72
422
73
1036
74
400
0
VERTEX
8
Meshes
62
250
10
0.0
20
0.0
30
0.0
70
128
71
26
72
400
73
1022
74
420
0
VERTEX
8
Meshes
62
250
10
0.0
20
0.0
30
0.0
70
128
71
27
72
421
73
1039
74
418
0
VERTEX
8
Meshes
62
250
10
0.0
20
0.0
30
0.0
70
128
71
27
72
418
73
1037
74
424
0
VERTEX
8
Meshes
62
250
10
0.0
20
0.0
30
0.0
70
128
71
27
72
424
73
1041
74
421
0
VERTEX
8
Meshes
62
250
10
0.0
20
0.0
30
0.0
70
128
71
28
72
422
73
1041
74
424
0
VERTEX
8
Meshes
62
250
10
0.0
20
0.0
30
0.0
70
128
71
28
72
424
73
1037
74
402
0
VERTEX
8
Meshes
62
250
10
0.0
20
0.0
30
0.0
70
128
71
28
72
402
73
1036
74
422
0
VERTEX
8
Meshes
62
250
10
0.0
20
0.0
30
0.0
70
128
71
29
72
425
73
1017
74
390
0
VERTEX
8
Meshes
62
250
10
0.0
20
0.0
30
0.0
70
128
71
29
72
390
73
1031
74
426
0
VERTEX
8
Meshes
62
250
10
0.0
20
0.0
30
0.0
70
128
71
29
72
426
73
1043
74
427
0
VERTEX
8
Meshes
62
250
10
0.0
20
0.0
30
0.0
70
128
71
29
72
427
73
1042
74
425
0
VERTEX
8
Meshes
62
250
10
0.0
20
0.0
30
0.0
70
128
71
30
72
426
73
1031
74
407
0
VERTEX
8
Meshes
62
250
10
0.0
20
0.0
30
0.0
70
128
71
30
72
407
73
1037
74
428
0
VERTEX
8
Meshes
62
250
10
0.0
20
0.0
30
0.0
70
128
71
30
72
428
73
1043
74
426
0
VERTEX
8
Meshes
62
250
10
0.0
20
0.0
30
0.0
70
128
71
31
72
429
73
1042
74
427
0
VERTEX
8
Meshes
62
250
10
0.0
20
0.0
30
0.0
70
128
71
31
72
427
73
1043
74
431
0
VERTEX
8
Meshes
62
250
10
0.0
20
0.0
30
0.0
70
128
71
31
72
431
73
1045
74
433
0
VERTEX
8
Meshes
62
250
10
0.0
20
0.0
30
0.0
70
128
71
31
72
433
73
1044
74
429
0
VERTEX
8
Meshes
62
250
10
0.0
20
0.0
30
0.0
70
128
71
32
72
430
73
1044
74
433
0
VERTEX
8
Meshes
62
250
10
0.0
20
0.0
30
0.0
70
128
71
32
72
433
73
1045
74
432
0
VERTEX
8
Meshes
62
250
10
0.0
20
0.0
30
0.0
70
128
71
32
72
432
73
1030
74
389
0
VERTEX
8
Meshes
62
250
10
0.0
20
0.0
30
0.0
70
128
71
32
72
389
73
1016
74
430
0
VERTEX
8
Meshes
62
250
10
0.0
20
0.0
30
0.0
70
128
71
33
72
431
73
1043
74
428
0
VERTEX
8
Meshes
62
250
10
0.0
20
0.0
30
0.0
70
128
71
33
72
428
73
1037
74
434
0
VERTEX
8
Meshes
62
250
10
0.0
20
0.0
30
0.0
70
128
71
33
72
434
73
1045
74
431
0
VERTEX
8
Meshes
62
250
10
0.0
20
0.0
30
0.0
70
128
71
34
72
432
73
1045
74
434
0
VERTEX
8
Meshes
62
250
10
0.0
20
0.0
30
0.0
70
128
71
34
72
434
73
1037
74
408
0
VERTEX
8
Meshes
62
250
10
0.0
20
0.0
30
0.0
70
128
71
34
72
408
73
1030
74
432
0
VERTEX
8
Meshes
62
250
10
0.0
20
0.0
30
0.0
70
128
71
35
72
435
73
1021
74
397
0
VERTEX
8
Meshes
62
250
10
0.0
20
0.0
30
0.0
70
128
71
35
72
397
73
1035
74
436
0
VERTEX
8
Meshes
62
250
10
0.0
20
0.0
30
0.0
70
128
71
35
72
436
73
1047
74
437
0
VERTEX
8
Meshes
62
250
10
0.0
20
0.0
30
0.0
70
128
71
35
72
437
73
1046
74
435
0
VERTEX
8
Meshes
62
250
10
0.0
20
0.0
30
0.0
70
128
71
36
72
436
73
1035
74
403
0
VERTEX
8
Meshes
62
250
10
0.0
20
0.0
30
0.0
70
128
71
36
72
403
73
1037
74
438
0
VERTEX
8
Meshes
62
250
10
0.0
20
0.0
30
0.0
70
128
71
36
72
438
73
1047
74
436
0
VERTEX
8
Meshes
62
250
10
0.0
20
0.0
30
0.0
70
128
71
37
72
439
73
1046
74
437
0
VERTEX
8
Meshes
62
250
10
0.0
20
0.0
30
0.0
70
128
71
37
72
437
73
1047
74
441
0
VERTEX
8
Meshes
62
250
10
0.0
20
0.0
30
0.0
70
128
71
37
72
441
73
1049
74
443
0
VERTEX
8
Meshes
62
250
10
0.0
20
0.0
30
0.0
70
128
71
37
72
443
73
1048
74
439
0
VERTEX
8
Meshes
62
250
10
0.0
20
0.0
30
0.0
70
128
71
38
72
440
73
1048
74
443
0
VERTEX
8
Meshes
62
250
10
0.0
20
0.0
30
0.0
70
128
71
38
72
443
73
1049
74
442
0
VERTEX
8
Meshes
62
250
10
0.0
20
0.0
30
0.0
70
128
71
38
72
442
73
1027
74
384
0
VERTEX
8
Meshes
62
250
10
0.0
20
0.0
30
0.0
70
128
71
38
72
384
73
1013
74
440
0
VERTEX
8
Meshes
62
250
10
0.0
20
0.0
30
0.0
70
128
71
39
72
441
73
1047
74
438
0
VERTEX
8
Meshes
62
250
10
0.0
20
0.0
30
0.0
70
128
71
39
72
438
73
1037
74
444
0
VERTEX
8
Meshes
62
250
10
0.0
20
0.0
30
0.0
70
128
71
39
72
444
73
1049
74
441
0
VERTEX
8
Meshes
62
250
10
0.0
20
0.0
30
0.0
70
128
71
40
72
442
73
1049
74
444
0
VERTEX
8
Meshes
62
250
10
0.0
20
0.0
30
0.0
70
128
71
40
72
444
73
1037
74
411
0
VERTEX
8
Meshes
62
250
10
0.0
20
0.0
30
0.0
70
128
71
40
72
411
73
1027
74
442
0
VERTEX
8
Meshes
62
250
10
0.0
20
0.0
30
0.0
70
128
71
41
72
461
73
1050
74
445
0
VERTEX
8
Meshes
62
250
10
0.0
20
0.0
30
0.0
70
128
71
41
72
445
73
994
74
349
0
VERTEX
8
Meshes
62
250
10
0.0
20
0.0
30
0.0
70
128
71
41
72
349
73
993
74
446
0
VERTEX
8
Meshes
62
250
10
0.0
20
0.0
30
0.0
70
128
71
41
72
446
73
1051
74
461
0
VERTEX
8
Meshes
62
250
10
0.0
20
0.0
30
0.0
70
128
71
42
72
462
73
1051
74
446
0
VERTEX
8
Meshes
62
250
10
0.0
20
0.0
30
0.0
70
128
71
42
72
446
73
993
74
350
0
VERTEX
8
Meshes
62
250
10
0.0
20
0.0
30
0.0
70
128
71
42
72
350
73
995
74
447
0
VERTEX
8
Meshes
62
250
10
0.0
20
0.0
30
0.0
70
128
71
42
72
447
73
1052
74
462
0
VERTEX
8
Meshes
62
250
10
0.0
20
0.0
30
0.0
70
128
71
43
72
463
73
1052
74
447
0
VERTEX
8
Meshes
62
250
10
0.0
20
0.0
30
0.0
70
128
71
43
72
447
73
995
74
351
0
VERTEX
8
Meshes
62
250
10
0.0
20
0.0
30
0.0
70
128
71
43
72
351
73
996
74
448
0
VERTEX
8
Meshes
62
250
10
0.0
20
0.0
30
0.0
70
128
71
43
72
448
73
1053
74
463
0
VERTEX
8
Meshes
62
250
10
0.0
20
0.0
30
0.0
70
128
71
44
72
464
73
1053
74
448
0
VERTEX
8
Meshes
62
250
10
0.0
20
0.0
30
0.0
70
128
71
44
72
448
73
996
74
352
0
VERTEX
8
Meshes
62
250
10
0.0
20
0.0
30
0.0
70
128
71
44
72
352
73
997
74
449
0
VERTEX
8
Meshes
62
250
10
0.0
20
0.0
30
0.0
70
128
71
44
72
449
73
1054
74
464
0
VERTEX
8
Meshes
62
250
10
0.0
20
0.0
30
0.0
70
128
71
45
72
465
73
1054
74
449
0
VERTEX
8
Meshes
62
250
10
0.0
20
0.0
30
0.0
70
128
71
45
72
449
73
997
74
353
0
VERTEX
8
Meshes
62
250
10
0.0
20
0.0
30
0.0
70
128
71
45
72
353
73
998
74
450
0
VERTEX
8
Meshes
62
250
10
0.0
20
0.0
30
0.0
70
128
71
45
72
450
73
1055
74
465
0
VERTEX
8
Meshes
62
250
10
0.0
20
0.0
30
0.0
70
128
71
46
72
466
73
1055
74
450
0
VERTEX
8
Meshes
62
250
10
0.0
20
0.0
30
0.0
70
128
71
46
72
450
73
998
74
354
0
VERTEX
8
Meshes
62
250
10
0.0
20
0.0
30
0.0
70
128
71
46
72
354
73
999
74
451
0
VERTEX
8
Meshes
62
250
10
0.0
20
0.0
30
0.0
70
128
71
46
72
451
73
1056
74
466
0
VERTEX
8
Meshes
62
250
10
0.0
20
0.0
30
0.0
70
128
71
47
72
467
73
1056
74
451
0
VERTEX
8
Meshes
62
250
10
0.0
20
0.0
30
0.0
70
128
71
47
72
451
73
999
74
355
0
VERTEX
8
Meshes
62
250
10
0.0
20
0.0
30
0.0
70
128
71
47
72
355
73
1000
74
452
0
VERTEX
8
Meshes
62
250
10
0.0
20
0.0
30
0.0
70
128
71
47
72
452
73
1057
74
467
0
VERTEX
8
Meshes
62
250
10
0.0
20
0.0
30
0.0
70
128
71
48
72
468
73
1057
74
452
0
VERTEX
8
Meshes
62
250
10
0.0
20
0.0
30
0.0
70
128
71
48
72
452
73
1000
74
356
0
VERTEX
8
Meshes
62
250
10
0.0
20
0.0
30
0.0
70
128
71
48
72
356
73
1001
74
453
0
VERTEX
8
Meshes
62
250
10
0.0
20
0.0
30
0.0
70
128
71
48
72
453
73
1058
74
468
0
VERTEX
8
Meshes
62
250
10
0.0
20
0.0
30
0.0
70
128
71
49
72
469
73
1058
74
453
0
VERTEX
8
Meshes
62
250
10
0.0
20
0.0
30
0.0
70
128
71
49
72
453
73
1001
74
357
0
VERTEX
8
Meshes
62
250
10
0.0
20
0.0
30
0.0
70
128
71
49
72
357
73
1002
74
454
0
VERTEX
8
Meshes
62
250
10
0.0
20
0.0
30
0.0
70
128
71
49
72
454
73
1059
74
469
0
VERTEX
8
Meshes
62
250
10
0.0
20
0.0
30
0.0
70
128
71
50
72
470
73
1059
74
454
0
VERTEX
8
Meshes
62
250
10
0.0
20
0.0
30
0.0
70
128
71
50
72
454
73
1002
74
358
0
VERTEX
8
Meshes
62
250
10
0.0
20
0.0
30
0.0
70
128
71
50
72
358
73
1003
74
455
0
VERTEX
8
Meshes
62
250
10
0.0
20
0.0
30
0.0
70
128
71
50
72
455
73
1060
74
470
0
VERTEX
8
Meshes
62
250
10
0.0
20
0.0
30
0.0
70
128
71
51
72
471
73
1060
74
455
0
VERTEX
8
Meshes
62
250
10
0.0
20
0.0
30
0.0
70
128
71
51
72
455
73
1003
74
359
0
VERTEX
8
Meshes
62
250
10
0.0
20
0.0
30
0.0
70
128
71
51
72
359
73
1004
74
456
0
VERTEX
8
Meshes
62
250
10
0.0
20
0.0
30
0.0
70
128
71
51
72
456
73
1061
74
471
0
VERTEX
8
Meshes
62
250
10
0.0
20
0.0
30
0.0
70
128
71
52
72
472
73
1061
74
456
0
VERTEX
8
Meshes
62
250
10
0.0
20
0.0
30
0.0
70
128
71
52
72
456
73
1004
74
360
0
VERTEX
8
Meshes
62
250
10
0.0
20
0.0
30
0.0
70
128
71
52
72
360
73
1005
74
457
0
VERTEX
8
Meshes
62
250
10
0.0
20
0.0
30
0.0
70
128
71
52
72
457
73
1062
74
472
0
VERTEX
8
Meshes
62
250
10
0.0
20
0.0
30
0.0
70
128
71
53
72
473
73
1062
74
457
0
VERTEX
8
Meshes
62
250
10
0.0
20
0.0
30
0.0
70
128
71
53
72
457
73
1005
74
361
0
VERTEX
8
Meshes
62
250
10
0.0
20
0.0
30
0.0
70
128
71
53
72
361
73
1006
74
458
0
VERTEX
8
Meshes
62
250
10
0.0
20
0.0
30
0.0
70
128
71
53
72
458
73
1063
74
473
0
VERTEX
8
Meshes
62
250
10
0.0
20
0.0
30
0.0
70
128
71
54
72
474
73
1063
74
458
0
VERTEX
8
Meshes
62
250
10
0.0
20
0.0
30
0.0
70
128
71
54
72
458
73
1006
74
362
0
VERTEX
8
Meshes
62
250
10
0.0
20
0.0
30
0.0
70
128
71
54
72
362
73
1007
74
459
0
VERTEX
8
Meshes
62
250
10
0.0
20
0.0
30
0.0
70
128
71
54
72
459
73
1064
74
474
0
VERTEX
8
Meshes
62
250
10
0.0
20
0.0
30
0.0
70
128
71
55
72
475
73
1064
74
459
0
VERTEX
8
Meshes
62
250
10
0.0
20
0.0
30
0.0
70
128
71
55
72
459
73
1007
74
363
0
VERTEX
8
Meshes
62
250
10
0.0
20
0.0
30
0.0
70
128
71
55
72
363
73
1008
74
460
0
VERTEX
8
Meshes
62
250
10
0.0
20
0.0
30
0.0
70
128
71
55
72
460
73
1065
74
475
0
VERTEX
8
Meshes
62
250
10
0.0
20
0.0
30
0.0
70
128
71
56
72
476
73
1065
74
460
0
VERTEX
8
Meshes
62
250
10
0.0
20
0.0
30
0.0
70
128
71
56
72
460
73
1008
74
364
0
VERTEX
8
Meshes
62
250
10
0.0
20
0.0
30
0.0
70
128
71
56
72
364
73
994
74
445
0
VERTEX
8
Meshes
62
250
10
0.0
20
0.0
30
0.0
70
128
71
56
72
445
73
1050
74
476
0
VERTEX
8
Meshes
62
250
10
0.0
20
0.0
30
0.0
70
128
71
57
72
333
73
977
74
478
0
VERTEX
8
Meshes
62
250
10
0.0
20
0.0
30
0.0
70
128
71
57
72
478
73
1066
74
509
0
VERTEX
8
Meshes
62
250
10
0.0
20
0.0
30
0.0
70
128
71
57
72
509
73
1067
74
480
0
VERTEX
8
Meshes
62
250
10
0.0
20
0.0
30
0.0
70
128
71
57
72
480
73
978
74
333
0
VERTEX
8
Meshes
62
250
10
0.0
20
0.0
30
0.0
70
128
71
58
72
509
73
1066
74
477
0
VERTEX
8
Meshes
62
250
10
0.0
20
0.0
30
0.0
70
128
71
58
72
477
73
1050
74
461
0
VERTEX
8
Meshes
62
250
10
0.0
20
0.0
30
0.0
70
128
71
58
72
461
73
1051
74
479
0
VERTEX
8
Meshes
62
250
10
0.0
20
0.0
30
0.0
70
128
71
58
72
479
73
1067
74
509
0
VERTEX
8
Meshes
62
250
10
0.0
20
0.0
30
0.0
70
128
71
59
72
334
73
978
74
480
0
VERTEX
8
Meshes
62
250
10
0.0
20
0.0
30
0.0
70
128
71
59
72
480
73
1067
74
510
0
VERTEX
8
Meshes
62
250
10
0.0
20
0.0
30
0.0
70
128
71
59
72
510
73
1068
74
482
0
VERTEX
8
Meshes
62
250
10
0.0
20
0.0
30
0.0
70
128
71
59
72
482
73
979
74
334
0
VERTEX
8
Meshes
62
250
10
0.0
20
0.0
30
0.0
70
128
71
60
72
510
73
1067
74
479
0
VERTEX
8
Meshes
62
250
10
0.0
20
0.0
30
0.0
70
128
71
60
72
479
73
1051
74
462
0
VERTEX
8
Meshes
62
250
10
0.0
20
0.0
30
0.0
70
128
71
60
72
462
73
1052
74
481
0
VERTEX
8
Meshes
62
250
10
0.0
20
0.0
30
0.0
70
128
71
60
72
481
73
1068
74
510
0
VERTEX
8
Meshes
62
250
10
0.0
20
0.0
30
0.0
70
128
71
61
72
335
73
979
74
482
0
VERTEX
8
Meshes
62
250
10
0.0
20
0.0
30
0.0
70
128
71
61
72
482
73
1068
74
511
0
VERTEX
8
Meshes
62
250
10
0.0
20
0.0
30
0.0
70
128
71
61
72
511
73
1069
74
484
0
VERTEX
8
Meshes
62
250
10
0.0
20
0.0
30
0.0
70
128
71
61
72
484
73
980
74
335
0
VERTEX
8
Meshes
62
250
10
0.0
20
0.0
30
0.0
70
128
71
62
72
511
73
1068
74
481
0
VERTEX
8
Meshes
62
250
10
0.0
20
0.0
30
0.0
70
128
71
62
72
481
73
1052
74
463
0
VERTEX
8
Meshes
62
250
10
0.0
20
0.0
30
0.0
70
128
71
62
72
463
73
1053
74
483
0
VERTEX
8
Meshes
62
250
10
0.0
20
0.0
30
0.0
70
128
71
62
72
483
73
1069
74
511
0
VERTEX
8
Meshes
62
250
10
0.0
20
0.0
30
0.0
70
128
71
63
72
336
73
980
74
484
0
VERTEX
8
Meshes
62
250
10
0.0
20
0.0
30
0.0
70
128
71
63
72
484
73
1069
74
512
0
VERTEX
8
Meshes
62
250
10
0.0
20
0.0
30
0.0
70
128
71
63
72
512
73
1070
74
486
0
VERTEX
8
Meshes
62
250
10
0.0
20
0.0
30
0.0
70
128
71
63
72
486
73
981
74
336
0
VERTEX
8
Meshes
62
250
10
0.0
20
0.0
30
0.0
70
128
71
64
72
512
73
1069
74
483
0
VERTEX
8
Meshes
62
250
10
0.0
20
0.0
30
0.0
70
128
71
64
72
483
73
1053
74
464
0
VERTEX
8
Meshes
62
250
10
0.0
20
0.0
30
0.0
70
128
71
64
72
464
73
1054
74
485
0
VERTEX
8
Meshes
62
250
10
0.0
20
0.0
30
0.0
70
128
71
64
72
485
73
1070
74
512
0
VERTEX
8
Meshes
62
250
10
0.0
20
0.0
30
0.0
70
128
71
65
72
337
73
981
74
486
0
VERTEX
8
Meshes
62
250
10
0.0
20
0.0
30
0.0
70
128
71
65
72
486
73
1070
74
513
0
VERTEX
8
Meshes
62
250
10
0.0
20
0.0
30
0.0
70
128
71
65
72
513
73
1071
74
488
0
VERTEX
8
Meshes
62
250
10
0.0
20
0.0
30
0.0
70
128
71
65
72
488
73
982
74
337
0
VERTEX
8
Meshes
62
250
10
0.0
20
0.0
30
0.0
70
128
71
66
72
513
73
1070
74
485
0
VERTEX
8
Meshes
62
250
10
0.0
20
0.0
30
0.0
70
128
71
66
72
485
73
1054
74
465
0
VERTEX
8
Meshes
62
250
10
0.0
20
0.0
30
0.0
70
128
71
66
72
465
73
1055
74
487
0
VERTEX
8
Meshes
62
250
10
0.0
20
0.0
30
0.0
70
128
71
66
72
487
73
1071
74
513
0
VERTEX
8
Meshes
62
250
10
0.0
20
0.0
30
0.0
70
128
71
67
72
338
73
982
74
488
0
VERTEX
8
Meshes
62
250
10
0.0
20
0.0
30
0.0
70
128
71
67
72
488
73
1071
74
514
0
VERTEX
8
Meshes
62
250
10
0.0
20
0.0
30
0.0
70
128
71
67
72
514
73
1072
74
490
0
VERTEX
8
Meshes
62
250
10
0.0
20
0.0
30
0.0
70
128
71
67
72
490
73
983
74
338
0
VERTEX
8
Meshes
62
250
10
0.0
20
0.0
30
0.0
70
128
71
68
72
514
73
1071
74
487
0
VERTEX
8
Meshes
62
250
10
0.0
20
0.0
30
0.0
70
128
71
68
72
487
73
1055
74
466
0
VERTEX
8
Meshes
62
250
10
0.0
20
0.0
30
0.0
70
128
71
68
72
466
73
1056
74
489
0
VERTEX
8
Meshes
62
250
10
0.0
20
0.0
30
0.0
70
128
71
68
72
489
73
1072
74
514
0
VERTEX
8
Meshes
62
250
10
0.0
20
0.0
30
0.0
70
128
71
69
72
339
73
983
74
490
0
VERTEX
8
Meshes
62
250
10
0.0
20
0.0
30
0.0
70
128
71
69
72
490
73
1072
74
515
0
VERTEX
8
Meshes
62
250
10
0.0
20
0.0
30
0.0
70
128
71
69
72
515
73
1073
74
492
0
VERTEX
8
Meshes
62
250
10
0.0
20
0.0
30
0.0
70
128
71
69
72
492
73
984
74
339
0
VERTEX
8
Meshes
62
250
10
0.0
20
0.0
30
0.0
70
128
71
70
72
515
73
1072
74
489
0
VERTEX
8
Meshes
62
250
10
0.0
20
0.0
30
0.0
70
128
71
70
72
489
73
1056
74
467
0
VERTEX
8
Meshes
62
250
10
0.0
20
0.0
30
0.0
70
128
71
70
72
467
73
1057
74
491
0
VERTEX
8
Meshes
62
250
10
0.0
20
0.0
30
0.0
70
128
71
70
72
491
73
1073
74
515
0
VERTEX
8
Meshes
62
250
10
0.0
20
0.0
30
0.0
70
128
71
71
72
340
73
984
74
492
0
VERTEX
8
Meshes
62
250
10
0.0
20
0.0
30
0.0
70
128
71
71
72
492
73
1073
74
516
0
VERTEX
8
Meshes
62
250
10
0.0
20
0.0
30
0.0
70
128
71
71
72
516
73
1074
74
494
0
VERTEX
8
Meshes
62
250
10
0.0
20
0.0
30
0.0
70
128
71
71
72
494
73
985
74
340
0
VERTEX
8
Meshes
62
250
10
0.0
20
0.0
30
0.0
70
128
71
72
72
516
73
1073
74
491
0
VERTEX
8
Meshes
62
250
10
0.0
20
0.0
30
0.0
70
128
71
72
72
491
73
1057
74
468
0
VERTEX
8
Meshes
62
250
10
0.0
20
0.0
30
0.0
70
128
71
72
72
468
73
1058
74
493
0
VERTEX
8
Meshes
62
250
10
0.0
20
0.0
30
0.0
70
128
71
72
72
493
73
1074
74
516
0
VERTEX
8
Meshes
62
250
10
0.0
20
0.0
30
0.0
70
128
71
73
72
341
73
985
74
494
0
VERTEX
8
Meshes
62
250
10
0.0
20
0.0
30
0.0
70
128
71
73
72
494
73
1074
74
517
0
VERTEX
8
Meshes
62
250
10
0.0
20
0.0
30
0.0
70
128
71
73
72
517
73
1075
74
496
0
VERTEX
8
Meshes
62
250
10
0.0
20
0.0
30
0.0
70
128
71
73
72
496
73
986
74
341
0
VERTEX
8
Meshes
62
250
10
0.0
20
0.0
30
0.0
70
128
71
74
72
517
73
1074
74
493
0
VERTEX
8
Meshes
62
250
10
0.0
20
0.0
30
0.0
70
128
71
74
72
493
73
1058
74
469
0
VERTEX
8
Meshes
62
250
10
0.0
20
0.0
30
0.0
70
128
71
74
72
469
73
1059
74
495
0
VERTEX
8
Meshes
62
250
10
0.0
20
0.0
30
0.0
70
128
71
74
72
495
73
1075
74
517
0
VERTEX
8
Meshes
62
250
10
0.0
20
0.0
30
0.0
70
128
71
75
72
342
73
986
74
496
0
VERTEX
8
Meshes
62
250
10
0.0
20
0.0
30
0.0
70
128
71
75
72
496
73
1075
74
518
0
VERTEX
8
Meshes
62
250
10
0.0
20
0.0
30
0.0
70
128
71
75
72
518
73
1076
74
498
0
VERTEX
8
Meshes
62
250
10
0.0
20
0.0
30
0.0
70
128
71
75
72
498
73
987
74
342
0
VERTEX
8
Meshes
62
250
10
0.0
20
0.0
30
0.0
70
128
71
76
72
518
73
1075
74
495
0
VERTEX
8
Meshes
62
250
10
0.0
20
0.0
30
0.0
70
128
71
76
72
495
73
1059
74
470
0
VERTEX
8
Meshes
62
250
10
0.0
20
0.0
30
0.0
70
128
71
76
72
470
73
1060
74
497
0
VERTEX
8
Meshes
62
250
10
0.0
20
0.0
30
0.0
70
128
71
76
72
497
73
1076
74
518
0
VERTEX
8
Meshes
62
250
10
0.0
20
0.0
30
0.0
70
128
71
77
72
343
73
987
74
498
0
VERTEX
8
Meshes
62
250
10
0.0
20
0.0
30
0.0
70
128
71
77
72
498
73
1076
74
519
0
VERTEX
8
Meshes
62
250
10
0.0
20
0.0
30
0.0
70
128
71
77
72
519
73
1077
74
500
0
VERTEX
8
Meshes
62
250
10
0.0
20
0.0
30
0.0
70
128
71
77
72
500
73
988
74
343
0
VERTEX
8
Meshes
62
250
10
0.0
20
0.0
30
0.0
70
128
71
78
72
519
73
1076
74
497
0
VERTEX
8
Meshes
62
250
10
0.0
20
0.0
30
0.0
70
128
71
78
72
497
73
1060
74
471
0
VERTEX
8
Meshes
62
250
10
0.0
20
0.0
30
0.0
70
128
71
78
72
471
73
1061
74
499
0
VERTEX
8
Meshes
62
250
10
0.0
20
0.0
30
0.0
70
128
71
78
72
499
73
1077
74
519
0
VERTEX
8
Meshes
62
250
10
0.0
20
0.0
30
0.0
70
128
71
79
72
344
73
988
74
500
0
VERTEX
8
Meshes
62
250
10
0.0
20
0.0
30
0.0
70
128
71
79
72
500
73
1077
74
520
0
VERTEX
8
Meshes
62
250
10
0.0
20
0.0
30
0.0
70
128
71
79
72
520
73
1078
74
502
0
VERTEX
8
Meshes
62
250
10
0.0
20
0.0
30
0.0
70
128
71
79
72
502
73
989
74
344
0
VERTEX
8
Meshes
62
250
10
0.0
20
0.0
30
0.0
70
128
71
80
72
520
73
1077
74
499
0
VERTEX
8
Meshes
62
250
10
0.0
20
0.0
30
0.0
70
128
71
80
72
499
73
1061
74
472
0
VERTEX
8
Meshes
62
250
10
0.0
20
0.0
30
0.0
70
128
71
80
72
472
73
1062
74
501
0
VERTEX
8
Meshes
62
250
10
0.0
20
0.0
30
0.0
70
128
71
80
72
501
73
1078
74
520
0
VERTEX
8
Meshes
62
250
10
0.0
20
0.0
30
0.0
70
128
71
81
72
345
73
989
74
502
0
VERTEX
8
Meshes
62
250
10
0.0
20
0.0
30
0.0
70
128
71
81
72
502
73
1078
74
521
0
VERTEX
8
Meshes
62
250
10
0.0
20
0.0
30
0.0
70
128
71
81
72
521
73
1079
74
504
0
VERTEX
8
Meshes
62
250
10
0.0
20
0.0
30
0.0
70
128
71
81
72
504
73
990
74
345
0
VERTEX
8
Meshes
62
250
10
0.0
20
0.0
30
0.0
70
128
71
82
72
521
73
1078
74
501
0
VERTEX
8
Meshes
62
250
10
0.0
20
0.0
30
0.0
70
128
71
82
72
501
73
1062
74
473
0
VERTEX
8
Meshes
62
250
10
0.0
20
0.0
30
0.0
70
128
71
82
72
473
73
1063
74
503
0
VERTEX
8
Meshes
62
250
10
0.0
20
0.0
30
0.0
70
128
71
82
72
503
73
1079
74
521
0
VERTEX
8
Meshes
62
250
10
0.0
20
0.0
30
0.0
70
128
71
83
72
346
73
990
74
504
0
VERTEX
8
Meshes
62
250
10
0.0
20
0.0
30
0.0
70
128
71
83
72
504
73
1079
74
522
0
VERTEX
8
Meshes
62
250
10
0.0
20
0.0
30
0.0
70
128
71
83
72
522
73
1080
74
506
0
VERTEX
8
Meshes
62
250
10
0.0
20
0.0
30
0.0
70
128
71
83
72
506
73
991
74
346
0
VERTEX
8
Meshes
62
250
10
0.0
20
0.0
30
0.0
70
128
71
84
72
522
73
1079
74
503
0
VERTEX
8
Meshes
62
250
10
0.0
20
0.0
30
0.0
70
128
71
84
72
503
73
1063
74
474
0
VERTEX
8
Meshes
62
250
10
0.0
20
0.0
30
0.0
70
128
71
84
72
474
73
1064
74
505
0
VERTEX
8
Meshes
62
250
10
0.0
20
0.0
30
0.0
70
128
71
84
72
505
73
1080
74
522
0
VERTEX
8
Meshes
62
250
10
0.0
20
0.0
30
0.0
70
128
71
85
72
347
73
991
74
506
0
VERTEX
8
Meshes
62
250
10
0.0
20
0.0
30
0.0
70
128
71
85
72
506
73
1080
74
523
0
VERTEX
8
Meshes
62
250
10
0.0
20
0.0
30
0.0
70
128
71
85
72
523
73
1081
74
508
0
VERTEX
8
Meshes
62
250
10
0.0
20
0.0
30
0.0
70
128
71
85
72
508
73
992
74
347
0
VERTEX
8
Meshes
62
250
10
0.0
20
0.0
30
0.0
70
128
71
86
72
523
73
1080
74
505
0
VERTEX
8
Meshes
62
250
10
0.0
20
0.0
30
0.0
70
128
71
86
72
505
73
1064
74
475
0
VERTEX
8
Meshes
62
250
10
0.0
20
0.0
30
0.0
70
128
71
86
72
475
73
1065
74
507
0
VERTEX
8
Meshes
62
250
10
0.0
20
0.0
30
0.0
70
128
71
86
72
507
73
1081
74
523
0
VERTEX
8
Meshes
62
250
10
0.0
20
0.0
30
0.0
70
128
71
87
72
524
73
1066
74
478
0
VERTEX
8
Meshes
62
250
10
0.0
20
0.0
30
0.0
70
128
71
87
72
478
73
977
74
348
0
VERTEX
8
Meshes
62
250
10
0.0
20
0.0
30
0.0
70
128
71
87
72
348
73
992
74
508
0
VERTEX
8
Meshes
62
250
10
0.0
20
0.0
30
0.0
70
128
71
87
72
508
73
1081
74
524
0
VERTEX
8
Meshes
62
250
10
0.0
20
0.0
30
0.0
70
128
71
88
72
524
73
1081
74
507
0
VERTEX
8
Meshes
62
250
10
0.0
20
0.0
30
0.0
70
128
71
88
72
507
73
1065
74
476
0
VERTEX
8
Meshes
62
250
10
0.0
20
0.0
30
0.0
70
128
71
88
72
476
73
1050
74
477
0
VERTEX
8
Meshes
62
250
10
0.0
20
0.0
30
0.0
70
128
71
88
72
477
73
1066
74
524
0
VERTEX
8
Meshes
62
250
10
0.0
20
0.0
30
0.0
70
128
71
89
72
440
73
1013
74
527
0
VERTEX
8
Meshes
62
250
10
0.0
20
0.0
30
0.0
70
128
71
89
72
527
73
1097
74
526
0
VERTEX
8
Meshes
62
250
10
0.0
20
0.0
30
0.0
70
128
71
89
72
526
73
1082
74
525
0
VERTEX
8
Meshes
62
250
10
0.0
20
0.0
30
0.0
70
128
71
89
72
525
73
1048
74
440
0
VERTEX
8
Meshes
62
250
10
0.0
20
0.0
30
0.0
70
128
71
90
72
439
73
1048
74
525
0
VERTEX
8
Meshes
62
250
10
0.0
20
0.0
30
0.0
70
128
71
90
72
525
73
1082
74
529
0
VERTEX
8
Meshes
62
250
10
0.0
20
0.0
30
0.0
70
128
71
90
72
529
73
1083
74
528
0
VERTEX
8
Meshes
62
250
10
0.0
20
0.0
30
0.0
70
128
71
90
72
528
73
1046
74
439
0
VERTEX
8
Meshes
62
250
10
0.0
20
0.0
30
0.0
70
128
71
91
72
435
73
1046
74
528
0
VERTEX
8
Meshes
62
250
10
0.0
20
0.0
30
0.0
70
128
71
91
72
528
73
1083
74
531
0
VERTEX
8
Meshes
62
250
10
0.0
20
0.0
30
0.0
70
128
71
91
72
531
73
1089
74
530
0
VERTEX
8
Meshes
62
250
10
0.0
20
0.0
30
0.0
70
128
71
91
72
530
73
1021
74
435
0
VERTEX
8
Meshes
62
250
10
0.0
20
0.0
30
0.0
70
128
71
92
72
430
73
1016
74
534
0
VERTEX
8
Meshes
62
250
10
0.0
20
0.0
30
0.0
70
128
71
92
72
534
73
1094
74
533
0
VERTEX
8
Meshes
62
250
10
0.0
20
0.0
30
0.0
70
128
71
92
72
533
73
1084
74
532
0
VERTEX
8
Meshes
62
250
10
0.0
20
0.0
30
0.0
70
128
71
92
72
532
73
1044
74
430
0
VERTEX
8
Meshes
62
250
10
0.0
20
0.0
30
0.0
70
128
71
93
72
429
73
1044
74
532
0
VERTEX
8
Meshes
62
250
10
0.0
20
0.0
30
0.0
70
128
71
93
72
532
73
1084
74
536
0
VERTEX
8
Meshes
62
250
10
0.0
20
0.0
30
0.0
70
128
71
93
72
536
73
1085
74
535
0
VERTEX
8
Meshes
62
250
10
0.0
20
0.0
30
0.0
70
128
71
93
72
535
73
1042
74
429
0
VERTEX
8
Meshes
62
250
10
0.0
20
0.0
30
0.0
70
128
71
94
72
425
73
1042
74
535
0
VERTEX
8
Meshes
62
250
10
0.0
20
0.0
30
0.0
70
128
71
94
72
535
73
1085
74
538
0
VERTEX
8
Meshes
62
250
10
0.0
20
0.0
30
0.0
70
128
71
94
72
538
73
1093
74
537
0
VERTEX
8
Meshes
62
250
10
0.0
20
0.0
30
0.0
70
128
71
94
72
537
73
1017
74
425
0
VERTEX
8
Meshes
62
250
10
0.0
20
0.0
30
0.0
70
128
71
95
72
420
73
1022
74
541
0
VERTEX
8
Meshes
62
250
10
0.0
20
0.0
30
0.0
70
128
71
95
72
541
73
1088
74
540
0
VERTEX
8
Meshes
62
250
10
0.0
20
0.0
30
0.0
70
128
71
95
72
540
73
1086
74
539
0
VERTEX
8
Meshes
62
250
10
0.0
20
0.0
30
0.0
70
128
71
95
72
539
73
1040
74
420
0
VERTEX
8
Meshes
62
250
10
0.0
20
0.0
30
0.0
70
128
71
96
72
419
73
1040
74
539
0
VERTEX
8
Meshes
62
250
10
0.0
20
0.0
30
0.0
70
128
71
96
72
539
73
1086
74
543
0
VERTEX
8
Meshes
62
250
10
0.0
20
0.0
30
0.0
70
128
71
96
72
543
73
1087
74
542
0
VERTEX
8
Meshes
62
250
10
0.0
20
0.0
30
0.0
70
128
71
96
72
542
73
1038
74
419
0
VERTEX
8
Meshes
62
250
10
0.0
20
0.0
30
0.0
70
128
71
97
72
415
73
1038
74
542
0
VERTEX
8
Meshes
62
250
10
0.0
20
0.0
30
0.0
70
128
71
97
72
542
73
1087
74
545
0
VERTEX
8
Meshes
62
250
10
0.0
20
0.0
30
0.0
70
128
71
97
72
545
73
1090
74
544
0
VERTEX
8
Meshes
62
250
10
0.0
20
0.0
30
0.0
70
128
71
97
72
544
73
1020
74
415
0
VERTEX
8
Meshes
62
250
10
0.0
20
0.0
30
0.0
70
128
71
98
72
375
73
1019
74
547
0
VERTEX
8
Meshes
62
250
10
0.0
20
0.0
30
0.0
70
128
71
98
72
547
73
1091
74
546
0
VERTEX
8
Meshes
62
250
10
0.0
20
0.0
30
0.0
70
128
71
98
72
546
73
1088
74
541
0
VERTEX
8
Meshes
62
250
10
0.0
20
0.0
30
0.0
70
128
71
98
72
541
73
1022
74
375
0
VERTEX
8
Meshes
62
250
10
0.0
20
0.0
30
0.0
70
128
71
99
72
374
73
1021
74
530
0
VERTEX
8
Meshes
62
250
10
0.0
20
0.0
30
0.0
70
128
71
99
72
530
73
1089
74
549
0
VERTEX
8
Meshes
62
250
10
0.0
20
0.0
30
0.0
70
128
71
99
72
549
73
1096
74
548
0
VERTEX
8
Meshes
62
250
10
0.0
20
0.0
30
0.0
70
128
71
99
72
548
73
1014
74
374
0
VERTEX
8
Meshes
62
250
10
0.0
20
0.0
30
0.0
70
128
71
100
72
373
73
1020
74
544
0
VERTEX
8
Meshes
62
250
10
0.0
20
0.0
30
0.0
70
128
71
100
72
544
73
1090
74
551
0
VERTEX
8
Meshes
62
250
10
0.0
20
0.0
30
0.0
70
128
71
100
72
551
73
1101
74
550
0
VERTEX
8
Meshes
62
250
10
0.0
20
0.0
30
0.0
70
128
71
100
72
550
73
1009
74
373
0
VERTEX
8
Meshes
62
250
10
0.0
20
0.0
30
0.0
70
128
71
101
72
372
73
1018
74
553
0
VERTEX
8
Meshes
62
250
10
0.0
20
0.0
30
0.0
70
128
71
101
72
553
73
1092
74
552
0
VERTEX
8
Meshes
62
250
10
0.0
20
0.0
30
0.0
70
128
71
101
72
552
73
1091
74
547
0
VERTEX
8
Meshes
62
250
10
0.0
20
0.0
30
0.0
70
128
71
101
72
547
73
1019
74
372
0
VERTEX
8
Meshes
62
250
10
0.0
20
0.0
30
0.0
70
128
71
102
72
553
73
1018
74
371
0
VERTEX
8
Meshes
62
250
10
0.0
20
0.0
30
0.0
70
128
71
102
72
371
73
1017
74
537
0
VERTEX
8
Meshes
62
250
10
0.0
20
0.0
30
0.0
70
128
71
102
72
537
73
1093
74
554
0
VERTEX
8
Meshes
62
250
10
0.0
20
0.0
30
0.0
70
128
71
102
72
554
73
1092
74
553
0
VERTEX
8
Meshes
62
250
10
0.0
20
0.0
30
0.0
70
128
71
103
72
370
73
1015
74
556
0
VERTEX
8
Meshes
62
250
10
0.0
20
0.0
30
0.0
70
128
71
103
72
556
73
1095
74
555
0
VERTEX
8
Meshes
62
250
10
0.0
20
0.0
30
0.0
70
128
71
103
72
555
73
1094
74
534
0
VERTEX
8
Meshes
62
250
10
0.0
20
0.0
30
0.0
70
128
71
103
72
534
73
1016
74
370
0
VERTEX
8
Meshes
62
250
10
0.0
20
0.0
30
0.0
70
128
71
104
72
369
73
1014
74
548
0
VERTEX
8
Meshes
62
250
10
0.0
20
0.0
30
0.0
70
128
71
104
72
548
73
1096
74
557
0
VERTEX
8
Meshes
62
250
10
0.0
20
0.0
30
0.0
70
128
71
104
72
557
73
1095
74
556
0
VERTEX
8
Meshes
62
250
10
0.0
20
0.0
30
0.0
70
128
71
104
72
556
73
1015
74
369
0
VERTEX
8
Meshes
62
250
10
0.0
20
0.0
30
0.0
70
128
71
105
72
368
73
1012
74
559
0
VERTEX
8
Meshes
62
250
10
0.0
20
0.0
30
0.0
70
128
71
105
72
559
73
1098
74
558
0
VERTEX
8
Meshes
62
250
10
0.0
20
0.0
30
0.0
70
128
71
105
72
558
73
1097
74
527
0
VERTEX
8
Meshes
62
250
10
0.0
20
0.0
30
0.0
70
128
71
105
72
527
73
1013
74
368
0
VERTEX
8
Meshes
62
250
10
0.0
20
0.0
30
0.0
70
128
71
106
72
367
73
1011
74
561
0
VERTEX
8
Meshes
62
250
10
0.0
20
0.0
30
0.0
70
128
71
106
72
561
73
1099
74
560
0
VERTEX
8
Meshes
62
250
10
0.0
20
0.0
30
0.0
70
128
71
106
72
560
73
1098
74
559
0
VERTEX
8
Meshes
62
250
10
0.0
20
0.0
30
0.0
70
128
71
106
72
559
73
1012
74
367
0
VERTEX
8
Meshes
62
250
10
0.0
20
0.0
30
0.0
70
128
71
107
72
366
73
1010
74
563
0
VERTEX
8
Meshes
62
250
10
0.0
20
0.0
30
0.0
70
128
71
107
72
563
73
1100
74
562
0
VERTEX
8
Meshes
62
250
10
0.0
20
0.0
30
0.0
70
128
71
107
72
562
73
1099
74
561
0
VERTEX
8
Meshes
62
250
10
0.0
20
0.0
30
0.0
70
128
71
107
72
561
73
1011
74
366
0
VERTEX
8
Meshes
62
250
10
0.0
20
0.0
30
0.0
70
128
71
108
72
365
73
1009
74
550
0
VERTEX
8
Meshes
62
250
10
0.0
20
0.0
30
0.0
70
128
71
108
72
550
73
1101
74
564
0
VERTEX
8
Meshes
62
250
10
0.0
20
0.0
30
0.0
70
128
71
108
72
564
73
1100
74
563
0
VERTEX
8
Meshes
62
250
10
0.0
20
0.0
30
0.0
70
128
71
108
72
563
73
1010
74
365
0
VERTEX
8
Meshes
62
250
10
0.0
20
0.0
30
0.0
70
128
71
109
72
567
73
994
74
364
0
VERTEX
8
Meshes
62
250
10
0.0
20
0.0
30
0.0
70
128
71
109
72
364
73
1008
74
565
0
VERTEX
8
Meshes
62
250
10
0.0
20
0.0
30
0.0
70
128
71
109
72
565
73
1102
74
566
0
VERTEX
8
Meshes
62
250
10
0.0
20
0.0
30
0.0
70
128
71
109
72
566
73
1116
74
567
0
VERTEX
8
Meshes
62
250
10
0.0
20
0.0
30
0.0
70
128
71
110
72
565
73
1008
74
363
0
VERTEX
8
Meshes
62
250
10
0.0
20
0.0
30
0.0
70
128
71
110
72
363
73
1007
74
568
0
VERTEX
8
Meshes
62
250
10
0.0
20
0.0
30
0.0
70
128
71
110
72
568
73
1103
74
569
0
VERTEX
8
Meshes
62
250
10
0.0
20
0.0
30
0.0
70
128
71
110
72
569
73
1102
74
565
0
VERTEX
8
Meshes
62
250
10
0.0
20
0.0
30
0.0
70
128
71
111
72
568
73
1007
74
362
0
VERTEX
8
Meshes
62
250
10
0.0
20
0.0
30
0.0
70
128
71
111
72
362
73
1006
74
570
0
VERTEX
8
Meshes
62
250
10
0.0
20
0.0
30
0.0
70
128
71
111
72
570
73
1104
74
571
0
VERTEX
8
Meshes
62
250
10
0.0
20
0.0
30
0.0
70
128
71
111
72
571
73
1103
74
568
0
VERTEX
8
Meshes
62
250
10
0.0
20
0.0
30
0.0
70
128
71
112
72
570
73
1006
74
361
0
VERTEX
8
Meshes
62
250
10
0.0
20
0.0
30
0.0
70
128
71
112
72
361
73
1005
74
572
0
VERTEX
8
Meshes
62
250
10
0.0
20
0.0
30
0.0
70
128
71
112
72
572
73
1105
74
573
0
VERTEX
8
Meshes
62
250
10
0.0
20
0.0
30
0.0
70
128
71
112
72
573
73
1104
74
570
0
VERTEX
8
Meshes
62
250
10
0.0
20
0.0
30
0.0
70
128
71
113
72
572
73
1005
74
360
0
VERTEX
8
Meshes
62
250
10
0.0
20
0.0
30
0.0
70
128
71
113
72
360
73
1004
74
574
0
VERTEX
8
Meshes
62
250
10
0.0
20
0.0
30
0.0
70
128
71
113
72
574
73
1106
74
575
0
VERTEX
8
Meshes
62
250
10
0.0
20
0.0
30
0.0
70
128
71
113
72
575
73
1105
74
572
0
VERTEX
8
Meshes
62
250
10
0.0
20
0.0
30
0.0
70
128
71
114
72
574
73
1004
74
359
0
VERTEX
8
Meshes
62
250
10
0.0
20
0.0
30
0.0
70
128
71
114
72
359
73
1003
74
576
0
VERTEX
8
Meshes
62
250
10
0.0
20
0.0
30
0.0
70
128
71
114
72
576
73
1107
74
577
0
VERTEX
8
Meshes
62
250
10
0.0
20
0.0
30
0.0
70
128
71
114
72
577
73
1106
74
574
0
VERTEX
8
Meshes
62
250
10
0.0
20
0.0
30
0.0
70
128
71
115
72
576
73
1003
74
358
0
VERTEX
8
Meshes
62
250
10
0.0
20
0.0
30
0.0
70
128
71
115
72
358
73
1002
74
578
0
VERTEX
8
Meshes
62
250
10
0.0
20
0.0
30
0.0
70
128
71
115
72
578
73
1108
74
579
0
VERTEX
8
Meshes
62
250
10
0.0
20
0.0
30
0.0
70
128
71
115
72
579
73
1107
74
576
0
VERTEX
8
Meshes
62
250
10
0.0
20
0.0
30
0.0
70
128
71
116
72
578
73
1002
74
357
0
VERTEX
8
Meshes
62
250
10
0.0
20
0.0
30
0.0
70
128
71
116
72
357
73
1001
74
580
0
VERTEX
8
Meshes
62
250
10
0.0
20
0.0
30
0.0
70
128
71
116
72
580
73
1109
74
581
0
VERTEX
8
Meshes
62
250
10
0.0
20
0.0
30
0.0
70
128
71
116
72
581
73
1108
74
578
0
VERTEX
8
Meshes
62
250
10
0.0
20
0.0
30
0.0
70
128
71
117
72
580
73
1001
74
356
0
VERTEX
8
Meshes
62
250
10
0.0
20
0.0
30
0.0
70
128
71
117
72
356
73
1000
74
582
0
VERTEX
8
Meshes
62
250
10
0.0
20
0.0
30
0.0
70
128
71
117
72
582
73
1110
74
583
0
VERTEX
8
Meshes
62
250
10
0.0
20
0.0
30
0.0
70
128
71
117
72
583
73
1109
74
580
0
VERTEX
8
Meshes
62
250
10
0.0
20
0.0
30
0.0
70
128
71
118
72
582
73
1000
74
355
0
VERTEX
8
Meshes
62
250
10
0.0
20
0.0
30
0.0
70
128
71
118
72
355
73
999
74
584
0
VERTEX
8
Meshes
62
250
10
0.0
20
0.0
30
0.0
70
128
71
118
72
584
73
1111
74
585
0
VERTEX
8
Meshes
62
250
10
0.0
20
0.0
30
0.0
70
128
71
118
72
585
73
1110
74
582
0
VERTEX
8
Meshes
62
250
10
0.0
20
0.0
30
0.0
70
128
71
119
72
584
73
999
74
354
0
VERTEX
8
Meshes
62
250
10
0.0
20
0.0
30
0.0
70
128
71
119
72
354
73
998
74
586
0
VERTEX
8
Meshes
62
250
10
0.0
20
0.0
30
0.0
70
128
71
119
72
586
73
1112
74
587
0
VERTEX
8
Meshes
62
250
10
0.0
20
0.0
30
0.0
70
128
71
119
72
587
73
1111
74
584
0
VERTEX
8
Meshes
62
250
10
0.0
20
0.0
30
0.0
70
128
71
120
72
586
73
998
74
353
0
VERTEX
8
Meshes
62
250
10
0.0
20
0.0
30
0.0
70
128
71
120
72
353
73
997
74
588
0
VERTEX
8
Meshes
62
250
10
0.0
20
0.0
30
0.0
70
128
71
120
72
588
73
1113
74
589
0
VERTEX
8
Meshes
62
250
10
0.0
20
0.0
30
0.0
70
128
71
120
72
589
73
1112
74
586
0
VERTEX
8
Meshes
62
250
10
0.0
20
0.0
30
0.0
70
128
71
121
72
588
73
997
74
352
0
VERTEX
8
Meshes
62
250
10
0.0
20
0.0
30
0.0
70
128
71
121
72
352
73
996
74
590
0
VERTEX
8
Meshes
62
250
10
0.0
20
0.0
30
0.0
70
128
71
121
72
590
73
1114
74
591
0
VERTEX
8
Meshes
62
250
10
0.0
20
0.0
30
0.0
70
128
71
121
72
591
73
1113
74
588
0
VERTEX
8
Meshes
62
250
10
0.0
20
0.0
30
0.0
70
128
71
122
72
590
73
996
74
351
0
VERTEX
8
Meshes
62
250
10
0.0
20
0.0
30
0.0
70
128
71
122
72
351
73
995
74
592
0
VERTEX
8
Meshes
62
250
10
0.0
20
0.0
30
0.0
70
128
71
122
72
592
73
1115
74
593
0
VERTEX
8
Meshes
62
250
10
0.0
20
0.0
30
0.0
70
128
71
122
72
593
73
1114
74
590
0
VERTEX
8
Meshes
62
250
10
0.0
20
0.0
30
0.0
70
128
71
123
72
592
73
995
74
350
0
VERTEX
8
Meshes
62
250
10
0.0
20
0.0
30
0.0
70
128
71
123
72
350
73
993
74
594
0
VERTEX
8
Meshes
62
250
10
0.0
20
0.0
30
0.0
70
128
71
123
72
594
73
1117
74
595
0
VERTEX
8
Meshes
62
250
10
0.0
20
0.0
30
0.0
70
128
71
123
72
595
73
1115
74
592
0
VERTEX
8
Meshes
62
250
10
0.0
20
0.0
30
0.0
70
128
71
124
72
594
73
993
74
349
0
VERTEX
8
Meshes
62
250
10
0.0
20
0.0
30
0.0
70
128
71
124
72
349
73
994
74
567
0
VERTEX
8
Meshes
62
250
10
0.0
20
0.0
30
0.0
70
128
71
124
72
567
73
1116
74
596
0
VERTEX
8
Meshes
62
250
10
0.0
20
0.0
30
0.0
70
128
71
124
72
596
73
1117
74
594
0
VERTEX
8
Meshes
62
250
10
0.0
20
0.0
30
0.0
70
128
71
125
72
599
73
992
74
348
0
VERTEX
8
Meshes
62
250
10
0.0
20
0.0
30
0.0
70
128
71
125
72
348
73
977
74
597
0
VERTEX
8
Meshes
62
250
10
0.0
20
0.0
30
0.0
70
128
71
125
72
597
73
1133
74
598
0
VERTEX
8
Meshes
62
250
10
0.0
20
0.0
30
0.0
70
128
71
125
72
598
73
1118
74
599
0
VERTEX
8
Meshes
62
250
10
0.0
20
0.0
30
0.0
70
128
71
126
72
601
73
991
74
347
0
VERTEX
8
Meshes
62
250
10
0.0
20
0.0
30
0.0
70
128
71
126
72
347
73
992
74
599
0
VERTEX
8
Meshes
62
250
10
0.0
20
0.0
30
0.0
70
128
71
126
72
599
73
1118
74
600
0
VERTEX
8
Meshes
62
250
10
0.0
20
0.0
30
0.0
70
128
71
126
72
600
73
1119
74
601
0
VERTEX
8
Meshes
62
250
10
0.0
20
0.0
30
0.0
70
128
71
127
72
603
73
990
74
346
0
VERTEX
8
Meshes
62
250
10
0.0
20
0.0
30
0.0
70
128
71
127
72
346
73
991
74
601
0
VERTEX
8
Meshes
62
250
10
0.0
20
0.0
30
0.0
70
128
71
127
72
601
73
1119
74
602
0
VERTEX
8
Meshes
62
250
10
0.0
20
0.0
30
0.0
70
128
71
127
72
602
73
1120
74
603
0
VERTEX
8
Meshes
62
250
10
0.0
20
0.0
30
0.0
70
128
71
128
72
605
73
989
74
345
0
VERTEX
8
Meshes
62
250
10
0.0
20
0.0
30
0.0
70
128
71
128
72
345
73
990
74
603
0
VERTEX
8
Meshes
62
250
10
0.0
20
0.0
30
0.0
70
128
71
128
72
603
73
1120
74
604
0
VERTEX
8
Meshes
62
250
10
0.0
20
0.0
30
0.0
70
128
71
128
72
604
73
1121
74
605
0
VERTEX
8
Meshes
62
250
10
0.0
20
0.0
30
0.0
70
128
71
129
72
607
73
988
74
344
0
VERTEX
8
Meshes
62
250
10
0.0
20
0.0
30
0.0
70
128
71
129
72
344
73
989
74
605
0
VERTEX
8
Meshes
62
250
10
0.0
20
0.0
30
0.0
70
128
71
129
72
605
73
1121
74
606
0
VERTEX
8
Meshes
62
250
10
0.0
20
0.0
30
0.0
70
128
71
129
72
606
73
1122
74
607
0
VERTEX
8
Meshes
62
250
10
0.0
20
0.0
30
0.0
70
128
71
130
72
609
73
987
74
343
0
VERTEX
8
Meshes
62
250
10
0.0
20
0.0
30
0.0
70
128
71
130
72
343
73
988
74
607
0
VERTEX
8
Meshes
62
250
10
0.0
20
0.0
30
0.0
70
128
71
130
72
607
73
1122
74
608
0
VERTEX
8
Meshes
62
250
10
0.0
20
0.0
30
0.0
70
128
71
130
72
608
73
1123
74
609
0
VERTEX
8
Meshes
62
250
10
0.0
20
0.0
30
0.0
70
128
71
131
72
611
73
986
74
342
0
VERTEX
8
Meshes
62
250
10
0.0
20
0.0
30
0.0
70
128
71
131
72
342
73
987
74
609
0
VERTEX
8
Meshes
62
250
10
0.0
20
0.0
30
0.0
70
128
71
131
72
609
73
1123
74
610
0
VERTEX
8
Meshes
62
250
10
0.0
20
0.0
30
0.0
70
128
71
131
72
610
73
1124
74
611
0
VERTEX
8
Meshes
62
250
10
0.0
20
0.0
30
0.0
70
128
71
132
72
613
73
985
74
341
0
VERTEX
8
Meshes
62
250
10
0.0
20
0.0
30
0.0
70
128
71
132
72
341
73
986
74
611
0
VERTEX
8
Meshes
62
250
10
0.0
20
0.0
30
0.0
70
128
71
132
72
611
73
1124
74
612
0
VERTEX
8
Meshes
62
250
10
0.0
20
0.0
30
0.0
70
128
71
132
72
612
73
1125
74
613
0
VERTEX
8
Meshes
62
250
10
0.0
20
0.0
30
0.0
70
128
71
133
72
615
73
984
74
340
0
VERTEX
8
Meshes
62
250
10
0.0
20
0.0
30
0.0
70
128
71
133
72
340
73
985
74
613
0
VERTEX
8
Meshes
62
250
10
0.0
20
0.0
30
0.0
70
128
71
133
72
613
73
1125
74
614
0
VERTEX
8
Meshes
62
250
10
0.0
20
0.0
30
0.0
70
128
71
133
72
614
73
1126
74
615
0
VERTEX
8
Meshes
62
250
10
0.0
20
0.0
30
0.0
70
128
71
134
72
617
73
983
74
339
0
VERTEX
8
Meshes
62
250
10
0.0
20
0.0
30
0.0
70
128
71
134
72
339
73
984
74
615
0
VERTEX
8
Meshes
62
250
10
0.0
20
0.0
30
0.0
70
128
71
134
72
615
73
1126
74
616
0
VERTEX
8
Meshes
62
250
10
0.0
20
0.0
30
0.0
70
128
71
134
72
616
73
1127
74
617
0
VERTEX
8
Meshes
62
250
10
0.0
20
0.0
30
0.0
70
128
71
135
72
619
73
982
74
338
0
VERTEX
8
Meshes
62
250
10
0.0
20
0.0
30
0.0
70
128
71
135
72
338
73
983
74
617
0
VERTEX
8
Meshes
62
250
10
0.0
20
0.0
30
0.0
70
128
71
135
72
617
73
1127
74
618
0
VERTEX
8
Meshes
62
250
10
0.0
20
0.0
30
0.0
70
128
71
135
72
618
73
1128
74
619
0
VERTEX
8
Meshes
62
250
10
0.0
20
0.0
30
0.0
70
128
71
136
72
621
73
981
74
337
0
VERTEX
8
Meshes
62
250
10
0.0
20
0.0
30
0.0
70
128
71
136
72
337
73
982
74
619
0
VERTEX
8
Meshes
62
250
10
0.0
20
0.0
30
0.0
70
128
71
136
72
619
73
1128
74
620
0
VERTEX
8
Meshes
62
250
10
0.0
20
0.0
30
0.0
70
128
71
136
72
620
73
1129
74
621
0
VERTEX
8
Meshes
62
250
10
0.0
20
0.0
30
0.0
70
128
71
137
72
623
73
980
74
336
0
VERTEX
8
Meshes
62
250
10
0.0
20
0.0
30
0.0
70
128
71
137
72
336
73
981
74
621
0
VERTEX
8
Meshes
62
250
10
0.0
20
0.0
30
0.0
70
128
71
137
72
621
73
1129
74
622
0
VERTEX
8
Meshes
62
250
10
0.0
20
0.0
30
0.0
70
128
71
137
72
622
73
1130
74
623
0
VERTEX
8
Meshes
62
250
10
0.0
20
0.0
30
0.0
70
128
71
138
72
625
73
979
74
335
0
VERTEX
8
Meshes
62
250
10
0.0
20
0.0
30
0.0
70
128
71
138
72
335
73
980
74
623
0
VERTEX
8
Meshes
62
250
10
0.0
20
0.0
30
0.0
70
128
71
138
72
623
73
1130
74
624
0
VERTEX
8
Meshes
62
250
10
0.0
20
0.0
30
0.0
70
128
71
138
72
624
73
1131
74
625
0
VERTEX
8
Meshes
62
250
10
0.0
20
0.0
30
0.0
70
128
71
139
72
627
73
978
74
334
0
VERTEX
8
Meshes
62
250
10
0.0
20
0.0
30
0.0
70
128
71
139
72
334
73
979
74
625
0
VERTEX
8
Meshes
62
250
10
0.0
20
0.0
30
0.0
70
128
71
139
72
625
73
1131
74
626
0
VERTEX
8
Meshes
62
250
10
0.0
20
0.0
30
0.0
70
128
71
139
72
626
73
1132
74
627
0
VERTEX
8
Meshes
62
250
10
0.0
20
0.0
30
0.0
70
128
71
140
72
597
73
977
74
333
0
VERTEX
8
Meshes
62
250
10
0.0
20
0.0
30
0.0
70
128
71
140
72
333
73
978
74
627
0
VERTEX
8
Meshes
62
250
10
0.0
20
0.0
30
0.0
70
128
71
140
72
627
73
1132
74
628
0
VERTEX
8
Meshes
62
250
10
0.0
20
0.0
30
0.0
70
128
71
140
72
628
73
1133
74
597
0
VERTEX
8
Meshes
62
250
10
0.0
20
0.0
30
0.0
70
128
71
141
72
631
73
1133
74
628
0
VERTEX
8
Meshes
62
250
10
0.0
20
0.0
30
0.0
70
128
71
141
72
628
73
1132
74
629
0
VERTEX
8
Meshes
62
250
10
0.0
20
0.0
30
0.0
70
128
71
141
72
629
73
1135
74
630
0
VERTEX
8
Meshes
62
250
10
0.0
20
0.0
30
0.0
70
128
71
141
72
630
73
1134
74
631
0
VERTEX
8
Meshes
62
250
10
0.0
20
0.0
30
0.0
70
128
71
142
72
629
73
1132
74
626
0
VERTEX
8
Meshes
62
250
10
0.0
20
0.0
30
0.0
70
128
71
142
72
626
73
1131
74
632
0
VERTEX
8
Meshes
62
250
10
0.0
20
0.0
30
0.0
70
128
71
142
72
632
73
1136
74
633
0
VERTEX
8
Meshes
62
250
10
0.0
20
0.0
30
0.0
70
128
71
142
72
633
73
1135
74
629
0
VERTEX
8
Meshes
62
250
10
0.0
20
0.0
30
0.0
70
128
71
143
72
632
73
1131
74
624
0
VERTEX
8
Meshes
62
250
10
0.0
20
0.0
30
0.0
70
128
71
143
72
624
73
1130
74
634
0
VERTEX
8
Meshes
62
250
10
0.0
20
0.0
30
0.0
70
128
71
143
72
634
73
1137
74
635
0
VERTEX
8
Meshes
62
250
10
0.0
20
0.0
30
0.0
70
128
71
143
72
635
73
1136
74
632
0
VERTEX
8
Meshes
62
250
10
0.0
20
0.0
30
0.0
70
128
71
144
72
634
73
1130
74
622
0
VERTEX
8
Meshes
62
250
10
0.0
20
0.0
30
0.0
70
128
71
144
72
622
73
1129
74
636
0
VERTEX
8
Meshes
62
250
10
0.0
20
0.0
30
0.0
70
128
71
144
72
636
73
1138
74
637
0
VERTEX
8
Meshes
62
250
10
0.0
20
0.0
30
0.0
70
128
71
144
72
637
73
1137
74
634
0
VERTEX
8
Meshes
62
250
10
0.0
20
0.0
30
0.0
70
128
71
145
72
636
73
1129
74
620
0
VERTEX
8
Meshes
62
250
10
0.0
20
0.0
30
0.0
70
128
71
145
72
620
73
1128
74
638
0
VERTEX
8
Meshes
62
250
10
0.0
20
0.0
30
0.0
70
128
71
145
72
638
73
1139
74
639
0
VERTEX
8
Meshes
62
250
10
0.0
20
0.0
30
0.0
70
128
71
145
72
639
73
1138
74
636
0
VERTEX
8
Meshes
62
250
10
0.0
20
0.0
30
0.0
70
128
71
146
72
638
73
1128
74
618
0
VERTEX
8
Meshes
62
250
10
0.0
20
0.0
30
0.0
70
128
71
146
72
618
73
1127
74
640
0
VERTEX
8
Meshes
62
250
10
0.0
20
0.0
30
0.0
70
128
71
146
72
640
73
1140
74
641
0
VERTEX
8
Meshes
62
250
10
0.0
20
0.0
30
0.0
70
128
71
146
72
641
73
1139
74
638
0
VERTEX
8
Meshes
62
250
10
0.0
20
0.0
30
0.0
70
128
71
147
72
640
73
1127
74
616
0
VERTEX
8
Meshes
62
250
10
0.0
20
0.0
30
0.0
70
128
71
147
72
616
73
1126
74
642
0
VERTEX
8
Meshes
62
250
10
0.0
20
0.0
30
0.0
70
128
71
147
72
642
73
1141
74
643
0
VERTEX
8
Meshes
62
250
10
0.0
20
0.0
30
0.0
70
128
71
147
72
643
73
1140
74
640
0
VERTEX
8
Meshes
62
250
10
0.0
20
0.0
30
0.0
70
128
71
148
72
642
73
1126
74
614
0
VERTEX
8
Meshes
62
250
10
0.0
20
0.0
30
0.0
70
128
71
148
72
614
73
1125
74
644
0
VERTEX
8
Meshes
62
250
10
0.0
20
0.0
30
0.0
70
128
71
148
72
644
73
1142
74
645
0
VERTEX
8
Meshes
62
250
10
0.0
20
0.0
30
0.0
70
128
71
148
72
645
73
1141
74
642
0
VERTEX
8
Meshes
62
250
10
0.0
20
0.0
30
0.0
70
128
71
149
72
644
73
1125
74
612
0
VERTEX
8
Meshes
62
250
10
0.0
20
0.0
30
0.0
70
128
71
149
72
612
73
1124
74
646
0
VERTEX
8
Meshes
62
250
10
0.0
20
0.0
30
0.0
70
128
71
149
72
646
73
1143
74
647
0
VERTEX
8
Meshes
62
250
10
0.0
20
0.0
30
0.0
70
128
71
149
72
647
73
1142
74
644
0
VERTEX
8
Meshes
62
250
10
0.0
20
0.0
30
0.0
70
128
71
150
72
646
73
1124
74
610
0
VERTEX
8
Meshes
62
250
10
0.0
20
0.0
30
0.0
70
128
71
150
72
610
73
1123
74
648
0
VERTEX
8
Meshes
62
250
10
0.0
20
0.0
30
0.0
70
128
71
150
72
648
73
1144
74
649
0
VERTEX
8
Meshes
62
250
10
0.0
20
0.0
30
0.0
70
128
71
150
72
649
73
1143
74
646
0
VERTEX
8
Meshes
62
250
10
0.0
20
0.0
30
0.0
70
128
71
151
72
648
73
1123
74
608
0
VERTEX
8
Meshes
62
250
10
0.0
20
0.0
30
0.0
70
128
71
151
72
608
73
1122
74
650
0
VERTEX
8
Meshes
62
250
10
0.0
20
0.0
30
0.0
70
128
71
151
72
650
73
1145
74
651
0
VERTEX
8
Meshes
62
250
10
0.0
20
0.0
30
0.0
70
128
71
151
72
651
73
1144
74
648
0
VERTEX
8
Meshes
62
250
10
0.0
20
0.0
30
0.0
70
128
71
152
72
650
73
1122
74
606
0
VERTEX
8
Meshes
62
250
10
0.0
20
0.0
30
0.0
70
128
71
152
72
606
73
1121
74
652
0
VERTEX
8
Meshes
62
250
10
0.0
20
0.0
30
0.0
70
128
71
152
72
652
73
1146
74
653
0
VERTEX
8
Meshes
62
250
10
0.0
20
0.0
30
0.0
70
128
71
152
72
653
73
1145
74
650
0
VERTEX
8
Meshes
62
250
10
0.0
20
0.0
30
0.0
70
128
71
153
72
652
73
1121
74
604
0
VERTEX
8
Meshes
62
250
10
0.0
20
0.0
30
0.0
70
128
71
153
72
604
73
1120
74
654
0
VERTEX
8
Meshes
62
250
10
0.0
20
0.0
30
0.0
70
128
71
153
72
654
73
1147
74
655
0
VERTEX
8
Meshes
62
250
10
0.0
20
0.0
30
0.0
70
128
71
153
72
655
73
1146
74
652
0
VERTEX
8
Meshes
62
250
10
0.0
20
0.0
30
0.0
70
128
71
154
72
654
73
1120
74
602
0
VERTEX
8
Meshes
62
250
10
0.0
20
0.0
30
0.0
70
128
71
154
72
602
73
1119
74
656
0
VERTEX
8
Meshes
62
250
10
0.0
20
0.0
30
0.0
70
128
71
154
72
656
73
1148
74
657
0
VERTEX
8
Meshes
62
250
10
0.0
20
0.0
30
0.0
70
128
71
154
72
657
73
1147
74
654
0
VERTEX
8
Meshes
62
250
10
0.0
20
0.0
30
0.0
70
128
71
155
72
656
73
1119
74
600
0
VERTEX
8
Meshes
62
250
10
0.0
20
0.0
30
0.0
70
128
71
155
72
600
73
1118
74
658
0
VERTEX
8
Meshes
62
250
10
0.0
20
0.0
30
0.0
70
128
71
155
72
658
73
1149
74
659
0
VERTEX
8
Meshes
62
250
10
0.0
20
0.0
30
0.0
70
128
71
155
72
659
73
1148
74
656
0
VERTEX
8
Meshes
62
250
10
0.0
20
0.0
30
0.0
70
128
71
156
72
658
73
1118
74
598
0
VERTEX
8
Meshes
62
250
10
0.0
20
0.0
30
0.0
70
128
71
156
72
598
73
1133
74
631
0
VERTEX
8
Meshes
62
250
10
0.0
20
0.0
30
0.0
70
128
71
156
72
631
73
1134
74
660
0
VERTEX
8
Meshes
62
250
10
0.0
20
0.0
30
0.0
70
128
71
156
72
660
73
1149
74
658
0
VERTEX
8
Meshes
62
250
10
0.0
20
0.0
30
0.0
70
128
71
157
72
663
73
1117
74
596
0
VERTEX
8
Meshes
62
250
10
0.0
20
0.0
30
0.0
70
128
71
157
72
596
73
1116
74
661
0
VERTEX
8
Meshes
62
250
10
0.0
20
0.0
30
0.0
70
128
71
157
72
661
73
1151
74
662
0
VERTEX
8
Meshes
62
250
10
0.0
20
0.0
30
0.0
70
128
71
157
72
662
73
1150
74
663
0
VERTEX
8
Meshes
62
250
10
0.0
20
0.0
30
0.0
70
128
71
158
72
665
73
1115
74
595
0
VERTEX
8
Meshes
62
250
10
0.0
20
0.0
30
0.0
70
128
71
158
72
595
73
1117
74
663
0
VERTEX
8
Meshes
62
250
10
0.0
20
0.0
30
0.0
70
128
71
158
72
663
73
1150
74
664
0
VERTEX
8
Meshes
62
250
10
0.0
20
0.0
30
0.0
70
128
71
158
72
664
73
1152
74
665
0
VERTEX
8
Meshes
62
250
10
0.0
20
0.0
30
0.0
70
128
71
159
72
667
73
1114
74
593
0
VERTEX
8
Meshes
62
250
10
0.0
20
0.0
30
0.0
70
128
71
159
72
593
73
1115
74
665
0
VERTEX
8
Meshes
62
250
10
0.0
20
0.0
30
0.0
70
128
71
159
72
665
73
1152
74
666
0
VERTEX
8
Meshes
62
250
10
0.0
20
0.0
30
0.0
70
128
71
159
72
666
73
1153
74
667
0
VERTEX
8
Meshes
62
250
10
0.0
20
0.0
30
0.0
70
128
71
160
72
669
73
1113
74
591
0
VERTEX
8
Meshes
62
250
10
0.0
20
0.0
30
0.0
70
128
71
160
72
591
73
1114
74
667
0
VERTEX
8
Meshes
62
250
10
0.0
20
0.0
30
0.0
70
128
71
160
72
667
73
1153
74
668
0
VERTEX
8
Meshes
62
250
10
0.0
20
0.0
30
0.0
70
128
71
160
72
668
73
1154
74
669
0
VERTEX
8
Meshes
62
250
10
0.0
20
0.0
30
0.0
70
128
71
161
72
671
73
1112
74
589
0
VERTEX
8
Meshes
62
250
10
0.0
20
0.0
30
0.0
70
128
71
161
72
589
73
1113
74
669
0
VERTEX
8
Meshes
62
250
10
0.0
20
0.0
30
0.0
70
128
71
161
72
669
73
1154
74
670
0
VERTEX
8
Meshes
62
250
10
0.0
20
0.0
30
0.0
70
128
71
161
72
670
73
1155
74
671
0
VERTEX
8
Meshes
62
250
10
0.0
20
0.0
30
0.0
70
128
71
162
72
673
73
1111
74
587
0
VERTEX
8
Meshes
62
250
10
0.0
20
0.0
30
0.0
70
128
71
162
72
587
73
1112
74
671
0
VERTEX
8
Meshes
62
250
10
0.0
20
0.0
30
0.0
70
128
71
162
72
671
73
1155
74
672
0
VERTEX
8
Meshes
62
250
10
0.0
20
0.0
30
0.0
70
128
71
162
72
672
73
1156
74
673
0
VERTEX
8
Meshes
62
250
10
0.0
20
0.0
30
0.0
70
128
71
163
72
675
73
1110
74
585
0
VERTEX
8
Meshes
62
250
10
0.0
20
0.0
30
0.0
70
128
71
163
72
585
73
1111
74
673
0
VERTEX
8
Meshes
62
250
10
0.0
20
0.0
30
0.0
70
128
71
163
72
673
73
1156
74
674
0
VERTEX
8
Meshes
62
250
10
0.0
20
0.0
30
0.0
70
128
71
163
72
674
73
1157
74
675
0
VERTEX
8
Meshes
62
250
10
0.0
20
0.0
30
0.0
70
128
71
164
72
677
73
1109
74
583
0
VERTEX
8
Meshes
62
250
10
0.0
20
0.0
30
0.0
70
128
71
164
72
583
73
1110
74
675
0
VERTEX
8
Meshes
62
250
10
0.0
20
0.0
30
0.0
70
128
71
164
72
675
73
1157
74
676
0
VERTEX
8
Meshes
62
250
10
0.0
20
0.0
30
0.0
70
128
71
164
72
676
73
1158
74
677
0
VERTEX
8
Meshes
62
250
10
0.0
20
0.0
30
0.0
70
128
71
165
72
679
73
1108
74
581
0
VERTEX
8
Meshes
62
250
10
0.0
20
0.0
30
0.0
70
128
71
165
72
581
73
1109
74
677
0
VERTEX
8
Meshes
62
250
10
0.0
20
0.0
30
0.0
70
128
71
165
72
677
73
1158
74
678
0
VERTEX
8
Meshes
62
250
10
0.0
20
0.0
30
0.0
70
128
71
165
72
678
73
1159
74
679
0
VERTEX
8
Meshes
62
250
10
0.0
20
0.0
30
0.0
70
128
71
166
72
681
73
1107
74
579
0
VERTEX
8
Meshes
62
250
10
0.0
20
0.0
30
0.0
70
128
71
166
72
579
73
1108
74
679
0
VERTEX
8
Meshes
62
250
10
0.0
20
0.0
30
0.0
70
128
71
166
72
679
73
1159
74
680
0
VERTEX
8
Meshes
62
250
10
0.0
20
0.0
30
0.0
70
128
71
166
72
680
73
1160
74
681
0
VERTEX
8
Meshes
62
250
10
0.0
20
0.0
30
0.0
70
128
71
167
72
683
73
1106
74
577
0
VERTEX
8
Meshes
62
250
10
0.0
20
0.0
30
0.0
70
128
71
167
72
577
73
1107
74
681
0
VERTEX
8
Meshes
62
250
10
0.0
20
0.0
30
0.0
70
128
71
167
72
681
73
1160
74
682
0
VERTEX
8
Meshes
62
250
10
0.0
20
0.0
30
0.0
70
128
71
167
72
682
73
1161
74
683
0
VERTEX
8
Meshes
62
250
10
0.0
20
0.0
30
0.0
70
128
71
168
72
685
73
1105
74
575
0
VERTEX
8
Meshes
62
250
10
0.0
20
0.0
30
0.0
70
128
71
168
72
575
73
1106
74
683
0
VERTEX
8
Meshes
62
250
10
0.0
20
0.0
30
0.0
70
128
71
168
72
683
73
1161
74
684
0
VERTEX
8
Meshes
62
250
10
0.0
20
0.0
30
0.0
70
128
71
168
72
684
73
1162
74
685
0
VERTEX
8
Meshes
62
250
10
0.0
20
0.0
30
0.0
70
128
71
169
72
687
73
1104
74
573
0
VERTEX
8
Meshes
62
250
10
0.0
20
0.0
30
0.0
70
128
71
169
72
573
73
1105
74
685
0
VERTEX
8
Meshes
62
250
10
0.0
20
0.0
30
0.0
70
128
71
169
72
685
73
1162
74
686
0
VERTEX
8
Meshes
62
250
10
0.0
20
0.0
30
0.0
70
128
71
169
72
686
73
1163
74
687
0
VERTEX
8
Meshes
62
250
10
0.0
20
0.0
30
0.0
70
128
71
170
72
689
73
1103
74
571
0
VERTEX
8
Meshes
62
250
10
0.0
20
0.0
30
0.0
70
128
71
170
72
571
73
1104
74
687
0
VERTEX
8
Meshes
62
250
10
0.0
20
0.0
30
0.0
70
128
71
170
72
687
73
1163
74
688
0
VERTEX
8
Meshes
62
250
10
0.0
20
0.0
30
0.0
70
128
71
170
72
688
73
1164
74
689
0
VERTEX
8
Meshes
62
250
10
0.0
20
0.0
30
0.0
70
128
71
171
72
691
73
1102
74
569
0
VERTEX
8
Meshes
62
250
10
0.0
20
0.0
30
0.0
70
128
71
171
72
569
73
1103
74
689
0
VERTEX
8
Meshes
62
250
10
0.0
20
0.0
30
0.0
70
128
71
171
72
689
73
1164
74
690
0
VERTEX
8
Meshes
62
250
10
0.0
20
0.0
30
0.0
70
128
71
171
72
690
73
1165
74
691
0
VERTEX
8
Meshes
62
250
10
0.0
20
0.0
30
0.0
70
128
71
172
72
661
73
1116
74
566
0
VERTEX
8
Meshes
62
250
10
0.0
20
0.0
30
0.0
70
128
71
172
72
566
73
1102
74
691
0
VERTEX
8
Meshes
62
250
10
0.0
20
0.0
30
0.0
70
128
71
172
72
691
73
1165
74
692
0
VERTEX
8
Meshes
62
250
10
0.0
20
0.0
30
0.0
70
128
71
172
72
692
73
1151
74
661
0
VERTEX
8
Meshes
62
250
10
0.0
20
0.0
30
0.0
70
128
71
173
72
564
73
1101
74
695
0
VERTEX
8
Meshes
62
250
10
0.0
20
0.0
30
0.0
70
128
71
173
72
695
73
1166
74
694
0
VERTEX
8
Meshes
62
250
10
0.0
20
0.0
30
0.0
70
128
71
173
72
694
73
1167
74
693
0
VERTEX
8
Meshes
62
250
10
0.0
20
0.0
30
0.0
70
128
71
173
72
693
73
1100
74
564
0
VERTEX
8
Meshes
62
250
10
0.0
20
0.0
30
0.0
70
128
71
174
72
562
73
1100
74
693
0
VERTEX
8
Meshes
62
250
10
0.0
20
0.0
30
0.0
70
128
71
174
72
693
73
1167
74
697
0
VERTEX
8
Meshes
62
250
10
0.0
20
0.0
30
0.0
70
128
71
174
72
697
73
1168
74
696
0
VERTEX
8
Meshes
62
250
10
0.0
20
0.0
30
0.0
70
128
71
174
72
696
73
1099
74
562
0
VERTEX
8
Meshes
62
250
10
0.0
20
0.0
30
0.0
70
128
71
175
72
560
73
1099
74
696
0
VERTEX
8
Meshes
62
250
10
0.0
20
0.0
30
0.0
70
128
71
175
72
696
73
1168
74
699
0
VERTEX
8
Meshes
62
250
10
0.0
20
0.0
30
0.0
70
128
71
175
72
699
73
1169
74
698
0
VERTEX
8
Meshes
62
250
10
0.0
20
0.0
30
0.0
70
128
71
175
72
698
73
1098
74
560
0
VERTEX
8
Meshes
62
250
10
0.0
20
0.0
30
0.0
70
128
71
176
72
558
73
1098
74
698
0
VERTEX
8
Meshes
62
250
10
0.0
20
0.0
30
0.0
70
128
71
176
72
698
73
1169
74
701
0
VERTEX
8
Meshes
62
250
10
0.0
20
0.0
30
0.0
70
128
71
176
72
701
73
1170
74
700
0
VERTEX
8
Meshes
62
250
10
0.0
20
0.0
30
0.0
70
128
71
176
72
700
73
1097
74
558
0
VERTEX
8
Meshes
62
250
10
0.0
20
0.0
30
0.0
70
128
71
177
72
557
73
1096
74
704
0
VERTEX
8
Meshes
62
250
10
0.0
20
0.0
30
0.0
70
128
71
177
72
704
73
1171
74
703
0
VERTEX
8
Meshes
62
250
10
0.0
20
0.0
30
0.0
70
128
71
177
72
703
73
1172
74
702
0
VERTEX
8
Meshes
62
250
10
0.0
20
0.0
30
0.0
70
128
71
177
72
702
73
1095
74
557
0
VERTEX
8
Meshes
62
250
10
0.0
20
0.0
30
0.0
70
128
71
178
72
555
73
1095
74
702
0
VERTEX
8
Meshes
62
250
10
0.0
20
0.0
30
0.0
70
128
71
178
72
702
73
1172
74
706
0
VERTEX
8
Meshes
62
250
10
0.0
20
0.0
30
0.0
70
128
71
178
72
706
73
1173
74
705
0
VERTEX
8
Meshes
62
250
10
0.0
20
0.0
30
0.0
70
128
71
178
72
705
73
1094
74
555
0
VERTEX
8
Meshes
62
250
10
0.0
20
0.0
30
0.0
70
128
71
179
72
709
73
1092
74
554
0
VERTEX
8
Meshes
62
250
10
0.0
20
0.0
30
0.0
70
128
71
179
72
554
73
1093
74
707
0
VERTEX
8
Meshes
62
250
10
0.0
20
0.0
30
0.0
70
128
71
179
72
707
73
1174
74
708
0
VERTEX
8
Meshes
62
250
10
0.0
20
0.0
30
0.0
70
128
71
179
72
708
73
1175
74
709
0
VERTEX
8
Meshes
62
250
10
0.0
20
0.0
30
0.0
70
128
71
180
72
552
73
1092
74
709
0
VERTEX
8
Meshes
62
250
10
0.0
20
0.0
30
0.0
70
128
71
180
72
709
73
1175
74
711
0
VERTEX
8
Meshes
62
250
10
0.0
20
0.0
30
0.0
70
128
71
180
72
711
73
1176
74
710
0
VERTEX
8
Meshes
62
250
10
0.0
20
0.0
30
0.0
70
128
71
180
72
710
73
1091
74
552
0
VERTEX
8
Meshes
62
250
10
0.0
20
0.0
30
0.0
70
128
71
181
72
551
73
1090
74
713
0
VERTEX
8
Meshes
62
250
10
0.0
20
0.0
30
0.0
70
128
71
181
72
713
73
1177
74
712
0
VERTEX
8
Meshes
62
250
10
0.0
20
0.0
30
0.0
70
128
71
181
72
712
73
1166
74
695
0
VERTEX
8
Meshes
62
250
10
0.0
20
0.0
30
0.0
70
128
71
181
72
695
73
1101
74
551
0
VERTEX
8
Meshes
62
250
10
0.0
20
0.0
30
0.0
70
128
71
182
72
549
73
1089
74
715
0
VERTEX
8
Meshes
62
250
10
0.0
20
0.0
30
0.0
70
128
71
182
72
715
73
1178
74
714
0
VERTEX
8
Meshes
62
250
10
0.0
20
0.0
30
0.0
70
128
71
182
72
714
73
1171
74
704
0
VERTEX
8
Meshes
62
250
10
0.0
20
0.0
30
0.0
70
128
71
182
72
704
73
1096
74
549
0
VERTEX
8
Meshes
62
250
10
0.0
20
0.0
30
0.0
70
128
71
183
72
546
73
1091
74
710
0
VERTEX
8
Meshes
62
250
10
0.0
20
0.0
30
0.0
70
128
71
183
72
710
73
1176
74
717
0
VERTEX
8
Meshes
62
250
10
0.0
20
0.0
30
0.0
70
128
71
183
72
717
73
1179
74
716
0
VERTEX
8
Meshes
62
250
10
0.0
20
0.0
30
0.0
70
128
71
183
72
716
73
1088
74
546
0
VERTEX
8
Meshes
62
250
10
0.0
20
0.0
30
0.0
70
128
71
184
72
545
73
1087
74
719
0
VERTEX
8
Meshes
62
250
10
0.0
20
0.0
30
0.0
70
128
71
184
72
719
73
1180
74
718
0
VERTEX
8
Meshes
62
250
10
0.0
20
0.0
30
0.0
70
128
71
184
72
718
73
1177
74
713
0
VERTEX
8
Meshes
62
250
10
0.0
20
0.0
30
0.0
70
128
71
184
72
713
73
1090
74
545
0
VERTEX
8
Meshes
62
250
10
0.0
20
0.0
30
0.0
70
128
71
185
72
543
73
1086
74
721
0
VERTEX
8
Meshes
62
250
10
0.0
20
0.0
30
0.0
70
128
71
185
72
721
73
1181
74
720
0
VERTEX
8
Meshes
62
250
10
0.0
20
0.0
30
0.0
70
128
71
185
72
720
73
1180
74
719
0
VERTEX
8
Meshes
62
250
10
0.0
20
0.0
30
0.0
70
128
71
185
72
719
73
1087
74
543
0
VERTEX
8
Meshes
62
250
10
0.0
20
0.0
30
0.0
70
128
71
186
72
540
73
1088
74
716
0
VERTEX
8
Meshes
62
250
10
0.0
20
0.0
30
0.0
70
128
71
186
72
716
73
1179
74
722
0
VERTEX
8
Meshes
62
250
10
0.0
20
0.0
30
0.0
70
128
71
186
72
722
73
1181
74
721
0
VERTEX
8
Meshes
62
250
10
0.0
20
0.0
30
0.0
70
128
71
186
72
721
73
1086
74
540
0
VERTEX
8
Meshes
62
250
10
0.0
20
0.0
30
0.0
70
128
71
187
72
538
73
1085
74
724
0
VERTEX
8
Meshes
62
250
10
0.0
20
0.0
30
0.0
70
128
71
187
72
724
73
1182
74
723
0
VERTEX
8
Meshes
62
250
10
0.0
20
0.0
30
0.0
70
128
71
187
72
723
73
1174
74
707
0
VERTEX
8
Meshes
62
250
10
0.0
20
0.0
30
0.0
70
128
71
187
72
707
73
1093
74
538
0
VERTEX
8
Meshes
62
250
10
0.0
20
0.0
30
0.0
70
128
71
188
72
536
73
1084
74
726
0
VERTEX
8
Meshes
62
250
10
0.0
20
0.0
30
0.0
70
128
71
188
72
726
73
1183
74
725
0
VERTEX
8
Meshes
62
250
10
0.0
20
0.0
30
0.0
70
128
71
188
72
725
73
1182
74
724
0
VERTEX
8
Meshes
62
250
10
0.0
20
0.0
30
0.0
70
128
71
188
72
724
73
1085
74
536
0
VERTEX
8
Meshes
62
250
10
0.0
20
0.0
30
0.0
70
128
71
189
72
533
73
1094
74
705
0
VERTEX
8
Meshes
62
250
10
0.0
20
0.0
30
0.0
70
128
71
189
72
705
73
1173
74
727
0
VERTEX
8
Meshes
62
250
10
0.0
20
0.0
30
0.0
70
128
71
189
72
727
73
1183
74
726
0
VERTEX
8
Meshes
62
250
10
0.0
20
0.0
30
0.0
70
128
71
189
72
726
73
1084
74
533
0
VERTEX
8
Meshes
62
250
10
0.0
20
0.0
30
0.0
70
128
71
190
72
531
73
1083
74
729
0
VERTEX
8
Meshes
62
250
10
0.0
20
0.0
30
0.0
70
128
71
190
72
729
73
1184
74
728
0
VERTEX
8
Meshes
62
250
10
0.0
20
0.0
30
0.0
70
128
71
190
72
728
73
1178
74
715
0
VERTEX
8
Meshes
62
250
10
0.0
20
0.0
30
0.0
70
128
71
190
72
715
73
1089
74
531
0
VERTEX
8
Meshes
62
250
10
0.0
20
0.0
30
0.0
70
128
71
191
72
529
73
1082
74
731
0
VERTEX
8
Meshes
62
250
10
0.0
20
0.0
30
0.0
70
128
71
191
72
731
73
1185
74
730
0
VERTEX
8
Meshes
62
250
10
0.0
20
0.0
30
0.0
70
128
71
191
72
730
73
1184
74
729
0
VERTEX
8
Meshes
62
250
10
0.0
20
0.0
30
0.0
70
128
71
191
72
729
73
1083
74
529
0
VERTEX
8
Meshes
62
250
10
0.0
20
0.0
30
0.0
70
128
71
192
72
526
73
1097
74
700
0
VERTEX
8
Meshes
62
250
10
0.0
20
0.0
30
0.0
70
128
71
192
72
700
73
1170
74
732
0
VERTEX
8
Meshes
62
250
10
0.0
20
0.0
30
0.0
70
128
71
192
72
732
73
1185
74
731
0
VERTEX
8
Meshes
62
250
10
0.0
20
0.0
30
0.0
70
128
71
192
72
731
73
1082
74
526
0
VERTEX
8
Meshes
62
250
10
0.0
20
0.0
30
0.0
70
128
71
193
72
732
73
1170
74
735
0
VERTEX
8
Meshes
62
250
10
0.0
20
0.0
30
0.0
70
128
71
193
72
735
73
1254
74
734
0
VERTEX
8
Meshes
62
250
10
0.0
20
0.0
30
0.0
70
128
71
193
72
734
73
1219
74
733
0
VERTEX
8
Meshes
62
250
10
0.0
20
0.0
30
0.0
70
128
71
193
72
733
73
1185
74
732
0
VERTEX
8
Meshes
62
250
10
0.0
20
0.0
30
0.0
70
128
71
194
72
730
73
1185
74
733
0
VERTEX
8
Meshes
62
250
10
0.0
20
0.0
30
0.0
70
128
71
194
72
733
73
1219
74
737
0
VERTEX
8
Meshes
62
250
10
0.0
20
0.0
30
0.0
70
128
71
194
72
737
73
1221
74
736
0
VERTEX
8
Meshes
62
250
10
0.0
20
0.0
30
0.0
70
128
71
194
72
736
73
1184
74
730
0
VERTEX
8
Meshes
62
250
10
0.0
20
0.0
30
0.0
70
128
71
195
72
728
73
1184
74
736
0
VERTEX
8
Meshes
62
250
10
0.0
20
0.0
30
0.0
70
128
71
195
72
736
73
1221
74
739
0
VERTEX
8
Meshes
62
250
10
0.0
20
0.0
30
0.0
70
128
71
195
72
739
73
1246
74
738
0
VERTEX
8
Meshes
62
250
10
0.0
20
0.0
30
0.0
70
128
71
195
72
738
73
1178
74
728
0
VERTEX
8
Meshes
62
250
10
0.0
20
0.0
30
0.0
70
128
71
196
72
727
73
1173
74
742
0
VERTEX
8
Meshes
62
250
10
0.0
20
0.0
30
0.0
70
128
71
196
72
742
73
1251
74
741
0
VERTEX
8
Meshes
62
250
10
0.0
20
0.0
30
0.0
70
128
71
196
72
741
73
1223
74
740
0
VERTEX
8
Meshes
62
250
10
0.0
20
0.0
30
0.0
70
128
71
196
72
740
73
1183
74
727
0
VERTEX
8
Meshes
62
250
10
0.0
20
0.0
30
0.0
70
128
71
197
72
725
73
1183
74
740
0
VERTEX
8
Meshes
62
250
10
0.0
20
0.0
30
0.0
70
128
71
197
72
740
73
1223
74
744
0
VERTEX
8
Meshes
62
250
10
0.0
20
0.0
30
0.0
70
128
71
197
72
744
73
1225
74
743
0
VERTEX
8
Meshes
62
250
10
0.0
20
0.0
30
0.0
70
128
71
197
72
743
73
1182
74
725
0
VERTEX
8
Meshes
62
250
10
0.0
20
0.0
30
0.0
70
128
71
198
72
723
73
1182
74
743
0
VERTEX
8
Meshes
62
250
10
0.0
20
0.0
30
0.0
70
128
71
198
72
743
73
1225
74
746
0
VERTEX
8
Meshes
62
250
10
0.0
20
0.0
30
0.0
70
128
71
198
72
746
73
1250
74
745
0
VERTEX
8
Meshes
62
250
10
0.0
20
0.0
30
0.0
70
128
71
198
72
745
73
1174
74
723
0
VERTEX
8
Meshes
62
250
10
0.0
20
0.0
30
0.0
70
128
71
199
72
722
73
1179
74
749
0
VERTEX
8
Meshes
62
250
10
0.0
20
0.0
30
0.0
70
128
71
199
72
749
73
1245
74
748
0
VERTEX
8
Meshes
62
250
10
0.0
20
0.0
30
0.0
70
128
71
199
72
748
73
1227
74
747
0
VERTEX
8
Meshes
62
250
10
0.0
20
0.0
30
0.0
70
128
71
199
72
747
73
1181
74
722
0
VERTEX
8
Meshes
62
250
10
0.0
20
0.0
30
0.0
70
128
71
200
72
720
73
1181
74
747
0
VERTEX
8
Meshes
62
250
10
0.0
20
0.0
30
0.0
70
128
71
200
72
747
73
1227
74
751
0
VERTEX
8
Meshes
62
250
10
0.0
20
0.0
30
0.0
70
128
71
200
72
751
73
1229
74
750
0
VERTEX
8
Meshes
62
250
10
0.0
20
0.0
30
0.0
70
128
71
200
72
750
73
1180
74
720
0
VERTEX
8
Meshes
62
250
10
0.0
20
0.0
30
0.0
70
128
71
201
72
718
73
1180
74
750
0
VERTEX
8
Meshes
62
250
10
0.0
20
0.0
30
0.0
70
128
71
201
72
750
73
1229
74
753
0
VERTEX
8
Meshes
62
250
10
0.0
20
0.0
30
0.0
70
128
71
201
72
753
73
1247
74
752
0
VERTEX
8
Meshes
62
250
10
0.0
20
0.0
30
0.0
70
128
71
201
72
752
73
1177
74
718
0
VERTEX
8
Meshes
62
250
10
0.0
20
0.0
30
0.0
70
128
71
202
72
717
73
1176
74
755
0
VERTEX
8
Meshes
62
250
10
0.0
20
0.0
30
0.0
70
128
71
202
72
755
73
1248
74
754
0
VERTEX
8
Meshes
62
250
10
0.0
20
0.0
30
0.0
70
128
71
202
72
754
73
1245
74
749
0
VERTEX
8
Meshes
62
250
10
0.0
20
0.0
30
0.0
70
128
71
202
72
749
73
1179
74
717
0
VERTEX
8
Meshes
62
250
10
0.0
20
0.0
30
0.0
70
128
71
203
72
714
73
1178
74
738
0
VERTEX
8
Meshes
62
250
10
0.0
20
0.0
30
0.0
70
128
71
203
72
738
73
1246
74
757
0
VERTEX
8
Meshes
62
250
10
0.0
20
0.0
30
0.0
70
128
71
203
72
757
73
1253
74
756
0
VERTEX
8
Meshes
62
250
10
0.0
20
0.0
30
0.0
70
128
71
203
72
756
73
1171
74
714
0
VERTEX
8
Meshes
62
250
10
0.0
20
0.0
30
0.0
70
128
71
204
72
712
73
1177
74
752
0
VERTEX
8
Meshes
62
250
10
0.0
20
0.0
30
0.0
70
128
71
204
72
752
73
1247
74
759
0
VERTEX
8
Meshes
62
250
10
0.0
20
0.0
30
0.0
70
128
71
204
72
759
73
1258
74
758
0
VERTEX
8
Meshes
62
250
10
0.0
20
0.0
30
0.0
70
128
71
204
72
758
73
1166
74
712
0
VERTEX
8
Meshes
62
250
10
0.0
20
0.0
30
0.0
70
128
71
205
72
711
73
1175
74
761
0
VERTEX
8
Meshes
62
250
10
0.0
20
0.0
30
0.0
70
128
71
205
72
761
73
1249
74
760
0
VERTEX
8
Meshes
62
250
10
0.0
20
0.0
30
0.0
70
128
71
205
72
760
73
1248
74
755
0
VERTEX
8
Meshes
62
250
10
0.0
20
0.0
30
0.0
70
128
71
205
72
755
73
1176
74
711
0
VERTEX
8
Meshes
62
250
10
0.0
20
0.0
30
0.0
70
128
71
206
72
761
73
1175
74
708
0
VERTEX
8
Meshes
62
250
10
0.0
20
0.0
30
0.0
70
128
71
206
72
708
73
1174
74
745
0
VERTEX
8
Meshes
62
250
10
0.0
20
0.0
30
0.0
70
128
71
206
72
745
73
1250
74
762
0
VERTEX
8
Meshes
62
250
10
0.0
20
0.0
30
0.0
70
128
71
206
72
762
73
1249
74
761
0
VERTEX
8
Meshes
62
250
10
0.0
20
0.0
30
0.0
70
128
71
207
72
706
73
1172
74
764
0
VERTEX
8
Meshes
62
250
10
0.0
20
0.0
30
0.0
70
128
71
207
72
764
73
1252
74
763
0
VERTEX
8
Meshes
62
250
10
0.0
20
0.0
30
0.0
70
128
71
207
72
763
73
1251
74
742
0
VERTEX
8
Meshes
62
250
10
0.0
20
0.0
30
0.0
70
128
71
207
72
742
73
1173
74
706
0
VERTEX
8
Meshes
62
250
10
0.0
20
0.0
30
0.0
70
128
71
208
72
703
73
1171
74
756
0
VERTEX
8
Meshes
62
250
10
0.0
20
0.0
30
0.0
70
128
71
208
72
756
73
1253
74
765
0
VERTEX
8
Meshes
62
250
10
0.0
20
0.0
30
0.0
70
128
71
208
72
765
73
1252
74
764
0
VERTEX
8
Meshes
62
250
10
0.0
20
0.0
30
0.0
70
128
71
208
72
764
73
1172
74
703
0
VERTEX
8
Meshes
62
250
10
0.0
20
0.0
30
0.0
70
128
71
209
72
701
73
1169
74
767
0
VERTEX
8
Meshes
62
250
10
0.0
20
0.0
30
0.0
70
128
71
209
72
767
73
1255
74
766
0
VERTEX
8
Meshes
62
250
10
0.0
20
0.0
30
0.0
70
128
71
209
72
766
73
1254
74
735
0
VERTEX
8
Meshes
62
250
10
0.0
20
0.0
30
0.0
70
128
71
209
72
735
73
1170
74
701
0
VERTEX
8
Meshes
62
250
10
0.0
20
0.0
30
0.0
70
128
71
210
72
699
73
1168
74
769
0
VERTEX
8
Meshes
62
250
10
0.0
20
0.0
30
0.0
70
128
71
210
72
769
73
1256
74
768
0
VERTEX
8
Meshes
62
250
10
0.0
20
0.0
30
0.0
70
128
71
210
72
768
73
1255
74
767
0
VERTEX
8
Meshes
62
250
10
0.0
20
0.0
30
0.0
70
128
71
210
72
767
73
1169
74
699
0
VERTEX
8
Meshes
62
250
10
0.0
20
0.0
30
0.0
70
128
71
211
72
697
73
1167
74
771
0
VERTEX
8
Meshes
62
250
10
0.0
20
0.0
30
0.0
70
128
71
211
72
771
73
1257
74
770
0
VERTEX
8
Meshes
62
250
10
0.0
20
0.0
30
0.0
70
128
71
211
72
770
73
1256
74
769
0
VERTEX
8
Meshes
62
250
10
0.0
20
0.0
30
0.0
70
128
71
211
72
769
73
1168
74
697
0
VERTEX
8
Meshes
62
250
10
0.0
20
0.0
30
0.0
70
128
71
212
72
694
73
1166
74
758
0
VERTEX
8
Meshes
62
250
10
0.0
20
0.0
30
0.0
70
128
71
212
72
758
73
1258
74
772
0
VERTEX
8
Meshes
62
250
10
0.0
20
0.0
30
0.0
70
128
71
212
72
772
73
1257
74
771
0
VERTEX
8
Meshes
62
250
10
0.0
20
0.0
30
0.0
70
128
71
212
72
771
73
1167
74
694
0
VERTEX
8
Meshes
62
250
10
0.0
20
0.0
30
0.0
70
128
71
213
72
775
73
1151
74
692
0
VERTEX
8
Meshes
62
250
10
0.0
20
0.0
30
0.0
70
128
71
213
72
692
73
1165
74
773
0
VERTEX
8
Meshes
62
250
10
0.0
20
0.0
30
0.0
70
128
71
213
72
773
73
1259
74
774
0
VERTEX
8
Meshes
62
250
10
0.0
20
0.0
30
0.0
70
128
71
213
72
774
73
1273
74
775
0
VERTEX
8
Meshes
62
250
10
0.0
20
0.0
30
0.0
70
128
71
214
72
773
73
1165
74
690
0
VERTEX
8
Meshes
62
250
10
0.0
20
0.0
30
0.0
70
128
71
214
72
690
73
1164
74
776
0
VERTEX
8
Meshes
62
250
10
0.0
20
0.0
30
0.0
70
128
71
214
72
776
73
1260
74
777
0
VERTEX
8
Meshes
62
250
10
0.0
20
0.0
30
0.0
70
128
71
214
72
777
73
1259
74
773
0
VERTEX
8
Meshes
62
250
10
0.0
20
0.0
30
0.0
70
128
71
215
72
776
73
1164
74
688
0
VERTEX
8
Meshes
62
250
10
0.0
20
0.0
30
0.0
70
128
71
215
72
688
73
1163
74
778
0
VERTEX
8
Meshes
62
250
10
0.0
20
0.0
30
0.0
70
128
71
215
72
778
73
1261
74
779
0
VERTEX
8
Meshes
62
250
10
0.0
20
0.0
30
0.0
70
128
71
215
72
779
73
1260
74
776
0
VERTEX
8
Meshes
62
250
10
0.0
20
0.0
30
0.0
70
128
71
216
72
778
73
1163
74
686
0
VERTEX
8
Meshes
62
250
10
0.0
20
0.0
30
0.0
70
128
71
216
72
686
73
1162
74
780
0
VERTEX
8
Meshes
62
250
10
0.0
20
0.0
30
0.0
70
128
71
216
72
780
73
1262
74
781
0
VERTEX
8
Meshes
62
250
10
0.0
20
0.0
30
0.0
70
128
71
216
72
781
73
1261
74
778
0
VERTEX
8
Meshes
62
250
10
0.0
20
0.0
30
0.0
70
128
71
217
72
780
73
1162
74
684
0
VERTEX
8
Meshes
62
250
10
0.0
20
0.0
30
0.0
70
128
71
217
72
684
73
1161
74
782
0
VERTEX
8
Meshes
62
250
10
0.0
20
0.0
30
0.0
70
128
71
217
72
782
73
1263
74
783
0
VERTEX
8
Meshes
62
250
10
0.0
20
0.0
30
0.0
70
128
71
217
72
783
73
1262
74
780
0
VERTEX
8
Meshes
62
250
10
0.0
20
0.0
30
0.0
70
128
71
218
72
782
73
1161
74
682
0
VERTEX
8
Meshes
62
250
10
0.0
20
0.0
30
0.0
70
128
71
218
72
682
73
1160
74
784
0
VERTEX
8
Meshes
62
250
10
0.0
20
0.0
30
0.0
70
128
71
218
72
784
73
1264
74
785
0
VERTEX
8
Meshes
62
250
10
0.0
20
0.0
30
0.0
70
128
71
218
72
785
73
1263
74
782
0
VERTEX
8
Meshes
62
250
10
0.0
20
0.0
30
0.0
70
128
71
219
72
784
73
1160
74
680
0
VERTEX
8
Meshes
62
250
10
0.0
20
0.0
30
0.0
70
128
71
219
72
680
73
1159
74
786
0
VERTEX
8
Meshes
62
250
10
0.0
20
0.0
30
0.0
70
128
71
219
72
786
73
1265
74
787
0
VERTEX
8
Meshes
62
250
10
0.0
20
0.0
30
0.0
70
128
71
219
72
787
73
1264
74
784
0
VERTEX
8
Meshes
62
250
10
0.0
20
0.0
30
0.0
70
128
71
220
72
786
73
1159
74
678
0
VERTEX
8
Meshes
62
250
10
0.0
20
0.0
30
0.0
70
128
71
220
72
678
73
1158
74
788
0
VERTEX
8
Meshes
62
250
10
0.0
20
0.0
30
0.0
70
128
71
220
72
788
73
1266
74
789
0
VERTEX
8
Meshes
62
250
10
0.0
20
0.0
30
0.0
70
128
71
220
72
789
73
1265
74
786
0
VERTEX
8
Meshes
62
250
10
0.0
20
0.0
30
0.0
70
128
71
221
72
788
73
1158
74
676
0
VERTEX
8
Meshes
62
250
10
0.0
20
0.0
30
0.0
70
128
71
221
72
676
73
1157
74
790
0
VERTEX
8
Meshes
62
250
10
0.0
20
0.0
30
0.0
70
128
71
221
72
790
73
1267
74
791
0
VERTEX
8
Meshes
62
250
10
0.0
20
0.0
30
0.0
70
128
71
221
72
791
73
1266
74
788
0
VERTEX
8
Meshes
62
250
10
0.0
20
0.0
30
0.0
70
128
71
222
72
790
73
1157
74
674
0
VERTEX
8
Meshes
62
250
10
0.0
20
0.0
30
0.0
70
128
71
222
72
674
73
1156
74
792
0
VERTEX
8
Meshes
62
250
10
0.0
20
0.0
30
0.0
70
128
71
222
72
792
73
1268
74
793
0
VERTEX
8
Meshes
62
250
10
0.0
20
0.0
30
0.0
70
128
71
222
72
793
73
1267
74
790
0
VERTEX
8
Meshes
62
250
10
0.0
20
0.0
30
0.0
70
128
71
223
72
792
73
1156
74
672
0
VERTEX
8
Meshes
62
250
10
0.0
20
0.0
30
0.0
70
128
71
223
72
672
73
1155
74
794
0
VERTEX
8
Meshes
62
250
10
0.0
20
0.0
30
0.0
70
128
71
223
72
794
73
1269
74
795
0
VERTEX
8
Meshes
62
250
10
0.0
20
0.0
30
0.0
70
128
71
223
72
795
73
1268
74
792
0
VERTEX
8
Meshes
62
250
10
0.0
20
0.0
30
0.0
70
128
71
224
72
794
73
1155
74
670
0
VERTEX
8
Meshes
62
250
10
0.0
20
0.0
30
0.0
70
128
71
224
72
670
73
1154
74
796
0
VERTEX
8
Meshes
62
250
10
0.0
20
0.0
30
0.0
70
128
71
224
72
796
73
1270
74
797
0
VERTEX
8
Meshes
62
250
10
0.0
20
0.0
30
0.0
70
128
71
224
72
797
73
1269
74
794
0
VERTEX
8
Meshes
62
250
10
0.0
20
0.0
30
0.0
70
128
71
225
72
796
73
1154
74
668
0
VERTEX
8
Meshes
62
250
10
0.0
20
0.0
30
0.0
70
128
71
225
72
668
73
1153
74
798
0
VERTEX
8
Meshes
62
250
10
0.0
20
0.0
30
0.0
70
128
71
225
72
798
73
1271
74
799
0
VERTEX
8
Meshes
62
250
10
0.0
20
0.0
30
0.0
70
128
71
225
72
799
73
1270
74
796
0
VERTEX
8
Meshes
62
250
10
0.0
20
0.0
30
0.0
70
128
71
226
72
798
73
1153
74
666
0
VERTEX
8
Meshes
62
250
10
0.0
20
0.0
30
0.0
70
128
71
226
72
666
73
1152
74
800
0
VERTEX
8
Meshes
62
250
10
0.0
20
0.0
30
0.0
70
128
71
226
72
800
73
1272
74
801
0
VERTEX
8
Meshes
62
250
10
0.0
20
0.0
30
0.0
70
128
71
226
72
801
73
1271
74
798
0
VERTEX
8
Meshes
62
250
10
0.0
20
0.0
30
0.0
70
128
71
227
72
800
73
1152
74
664
0
VERTEX
8
Meshes
62
250
10
0.0
20
0.0
30
0.0
70
128
71
227
72
664
73
1150
74
802
0
VERTEX
8
Meshes
62
250
10
0.0
20
0.0
30
0.0
70
128
71
227
72
802
73
1274
74
803
0
VERTEX
8
Meshes
62
250
10
0.0
20
0.0
30
0.0
70
128
71
227
72
803
73
1272
74
800
0
VERTEX
8
Meshes
62
250
10
0.0
20
0.0
30
0.0
70
128
71
228
72
802
73
1150
74
662
0
VERTEX
8
Meshes
62
250
10
0.0
20
0.0
30
0.0
70
128
71
228
72
662
73
1151
74
775
0
VERTEX
8
Meshes
62
250
10
0.0
20
0.0
30
0.0
70
128
71
228
72
775
73
1273
74
804
0
VERTEX
8
Meshes
62
250
10
0.0
20
0.0
30
0.0
70
128
71
228
72
804
73
1274
74
802
0
VERTEX
8
Meshes
62
250
10
0.0
20
0.0
30
0.0
70
128
71
229
72
807
73
1149
74
660
0
VERTEX
8
Meshes
62
250
10
0.0
20
0.0
30
0.0
70
128
71
229
72
660
73
1134
74
805
0
VERTEX
8
Meshes
62
250
10
0.0
20
0.0
30
0.0
70
128
71
229
72
805
73
1290
74
806
0
VERTEX
8
Meshes
62
250
10
0.0
20
0.0
30
0.0
70
128
71
229
72
806
73
1275
74
807
0
VERTEX
8
Meshes
62
250
10
0.0
20
0.0
30
0.0
70
128
71
230
72
809
73
1148
74
659
0
VERTEX
8
Meshes
62
250
10
0.0
20
0.0
30
0.0
70
128
71
230
72
659
73
1149
74
807
0
VERTEX
8
Meshes
62
250
10
0.0
20
0.0
30
0.0
70
128
71
230
72
807
73
1275
74
808
0
VERTEX
8
Meshes
62
250
10
0.0
20
0.0
30
0.0
70
128
71
230
72
808
73
1276
74
809
0
VERTEX
8
Meshes
62
250
10
0.0
20
0.0
30
0.0
70
128
71
231
72
811
73
1147
74
657
0
VERTEX
8
Meshes
62
250
10
0.0
20
0.0
30
0.0
70
128
71
231
72
657
73
1148
74
809
0
VERTEX
8
Meshes
62
250
10
0.0
20
0.0
30
0.0
70
128
71
231
72
809
73
1276
74
810
0
VERTEX
8
Meshes
62
250
10
0.0
20
0.0
30
0.0
70
128
71
231
72
810
73
1277
74
811
0
VERTEX
8
Meshes
62
250
10
0.0
20
0.0
30
0.0
70
128
71
232
72
813
73
1146
74
655
0
VERTEX
8
Meshes
62
250
10
0.0
20
0.0
30
0.0
70
128
71
232
72
655
73
1147
74
811
0
VERTEX
8
Meshes
62
250
10
0.0
20
0.0
30
0.0
70
128
71
232
72
811
73
1277
74
812
0
VERTEX
8
Meshes
62
250
10
0.0
20
0.0
30
0.0
70
128
71
232
72
812
73
1278
74
813
0
VERTEX
8
Meshes
62
250
10
0.0
20
0.0
30
0.0
70
128
71
233
72
815
73
1145
74
653
0
VERTEX
8
Meshes
62
250
10
0.0
20
0.0
30
0.0
70
128
71
233
72
653
73
1146
74
813
0
VERTEX
8
Meshes
62
250
10
0.0
20
0.0
30
0.0
70
128
71
233
72
813
73
1278
74
814
0
VERTEX
8
Meshes
62
250
10
0.0
20
0.0
30
0.0
70
128
71
233
72
814
73
1279
74
815
0
VERTEX
8
Meshes
62
250
10
0.0
20
0.0
30
0.0
70
128
71
234
72
817
73
1144
74
651
0
VERTEX
8
Meshes
62
250
10
0.0
20
0.0
30
0.0
70
128
71
234
72
651
73
1145
74
815
0
VERTEX
8
Meshes
62
250
10
0.0
20
0.0
30
0.0
70
128
71
234
72
815
73
1279
74
816
0
VERTEX
8
Meshes
62
250
10
0.0
20
0.0
30
0.0
70
128
71
234
72
816
73
1280
74
817
0
VERTEX
8
Meshes
62
250
10
0.0
20
0.0
30
0.0
70
128
71
235
72
819
73
1143
74
649
0
VERTEX
8
Meshes
62
250
10
0.0
20
0.0
30
0.0
70
128
71
235
72
649
73
1144
74
817
0
VERTEX
8
Meshes
62
250
10
0.0
20
0.0
30
0.0
70
128
71
235
72
817
73
1280
74
818
0
VERTEX
8
Meshes
62
250
10
0.0
20
0.0
30
0.0
70
128
71
235
72
818
73
1281
74
819
0
VERTEX
8
Meshes
62
250
10
0.0
20
0.0
30
0.0
70
128
71
236
72
821
73
1142
74
647
0
VERTEX
8
Meshes
62
250
10
0.0
20
0.0
30
0.0
70
128
71
236
72
647
73
1143
74
819
0
VERTEX
8
Meshes
62
250
10
0.0
20
0.0
30
0.0
70
128
71
236
72
819
73
1281
74
820
0
VERTEX
8
Meshes
62
250
10
0.0
20
0.0
30
0.0
70
128
71
236
72
820
73
1282
74
821
0
VERTEX
8
Meshes
62
250
10
0.0
20
0.0
30
0.0
70
128
71
237
72
823
73
1141
74
645
0
VERTEX
8
Meshes
62
250
10
0.0
20
0.0
30
0.0
70
128
71
237
72
645
73
1142
74
821
0
VERTEX
8
Meshes
62
250
10
0.0
20
0.0
30
0.0
70
128
71
237
72
821
73
1282
74
822
0
VERTEX
8
Meshes
62
250
10
0.0
20
0.0
30
0.0
70
128
71
237
72
822
73
1283
74
823
0
VERTEX
8
Meshes
62
250
10
0.0
20
0.0
30
0.0
70
128
71
238
72
825
73
1140
74
643
0
VERTEX
8
Meshes
62
250
10
0.0
20
0.0
30
0.0
70
128
71
238
72
643
73
1141
74
823
0
VERTEX
8
Meshes
62
250
10
0.0
20
0.0
30
0.0
70
128
71
238
72
823
73
1283
74
824
0
VERTEX
8
Meshes
62
250
10
0.0
20
0.0
30
0.0
70
128
71
238
72
824
73
1284
74
825
0
VERTEX
8
Meshes
62
250
10
0.0
20
0.0
30
0.0
70
128
71
239
72
827
73
1139
74
641
0
VERTEX
8
Meshes
62
250
10
0.0
20
0.0
30
0.0
70
128
71
239
72
641
73
1140
74
825
0
VERTEX
8
Meshes
62
250
10
0.0
20
0.0
30
0.0
70
128
71
239
72
825
73
1284
74
826
0
VERTEX
8
Meshes
62
250
10
0.0
20
0.0
30
0.0
70
128
71
239
72
826
73
1285
74
827
0
VERTEX
8
Meshes
62
250
10
0.0
20
0.0
30
0.0
70
128
71
240
72
829
73
1138
74
639
0
VERTEX
8
Meshes
62
250
10
0.0
20
0.0
30
0.0
70
128
71
240
72
639
73
1139
74
827
0
VERTEX
8
Meshes
62
250
10
0.0
20
0.0
30
0.0
70
128
71
240
72
827
73
1285
74
828
0
VERTEX
8
Meshes
62
250
10
0.0
20
0.0
30
0.0
70
128
71
240
72
828
73
1286
74
829
0
VERTEX
8
Meshes
62
250
10
0.0
20
0.0
30
0.0
70
128
71
241
72
831
73
1137
74
637
0
VERTEX
8
Meshes
62
250
10
0.0
20
0.0
30
0.0
70
128
71
241
72
637
73
1138
74
829
0
VERTEX
8
Meshes
62
250
10
0.0
20
0.0
30
0.0
70
128
71
241
72
829
73
1286
74
830
0
VERTEX
8
Meshes
62
250
10
0.0
20
0.0
30
0.0
70
128
71
241
72
830
73
1287
74
831
0
VERTEX
8
Meshes
62
250
10
0.0
20
0.0
30
0.0
70
128
71
242
72
833
73
1136
74
635
0
VERTEX
8
Meshes
62
250
10
0.0
20
0.0
30
0.0
70
128
71
242
72
635
73
1137
74
831
0
VERTEX
8
Meshes
62
250
10
0.0
20
0.0
30
0.0
70
128
71
242
72
831
73
1287
74
832
0
VERTEX
8
Meshes
62
250
10
0.0
20
0.0
30
0.0
70
128
71
242
72
832
73
1288
74
833
0
VERTEX
8
Meshes
62
250
10
0.0
20
0.0
30
0.0
70
128
71
243
72
835
73
1135
74
633
0
VERTEX
8
Meshes
62
250
10
0.0
20
0.0
30
0.0
70
128
71
243
72
633
73
1136
74
833
0
VERTEX
8
Meshes
62
250
10
0.0
20
0.0
30
0.0
70
128
71
243
72
833
73
1288
74
834
0
VERTEX
8
Meshes
62
250
10
0.0
20
0.0
30
0.0
70
128
71
243
72
834
73
1289
74
835
0
VERTEX
8
Meshes
62
250
10
0.0
20
0.0
30
0.0
70
128
71
244
72
805
73
1134
74
630
0
VERTEX
8
Meshes
62
250
10
0.0
20
0.0
30
0.0
70
128
71
244
72
630
73
1135
74
835
0
VERTEX
8
Meshes
62
250
10
0.0
20
0.0
30
0.0
70
128
71
244
72
835
73
1289
74
836
0
VERTEX
8
Meshes
62
250
10
0.0
20
0.0
30
0.0
70
128
71
244
72
836
73
1290
74
805
0
VERTEX
8
Meshes
62
250
10
0.0
20
0.0
30
0.0
70
128
71
245
72
837
73
1244
74
839
0
VERTEX
8
Meshes
62
250
10
0.0
20
0.0
30
0.0
70
128
71
245
72
839
73
1243
74
838
0
VERTEX
8
Meshes
62
250
10
0.0
20
0.0
30
0.0
70
128
71
245
72
838
73
1257
74
772
0
VERTEX
8
Meshes
62
250
10
0.0
20
0.0
30
0.0
70
128
71
245
72
772
73
1258
74
837
0
VERTEX
8
Meshes
62
250
10
0.0
20
0.0
30
0.0
70
128
71
246
72
838
73
1243
74
841
0
VERTEX
8
Meshes
62
250
10
0.0
20
0.0
30
0.0
70
128
71
246
72
841
73
1242
74
840
0
VERTEX
8
Meshes
62
250
10
0.0
20
0.0
30
0.0
70
128
71
246
72
840
73
1256
74
770
0
VERTEX
8
Meshes
62
250
10
0.0
20
0.0
30
0.0
70
128
71
246
72
770
73
1257
74
838
0
VERTEX
8
Meshes
62
250
10
0.0
20
0.0
30
0.0
70
128
71
247
72
840
73
1242
74
843
0
VERTEX
8
Meshes
62
250
10
0.0
20
0.0
30
0.0
70
128
71
247
72
843
73
1241
74
842
0
VERTEX
8
Meshes
62
250
10
0.0
20
0.0
30
0.0
70
128
71
247
72
842
73
1255
74
768
0
VERTEX
8
Meshes
62
250
10
0.0
20
0.0
30
0.0
70
128
71
247
72
768
73
1256
74
840
0
VERTEX
8
Meshes
62
250
10
0.0
20
0.0
30
0.0
70
128
71
248
72
842
73
1241
74
845
0
VERTEX
8
Meshes
62
250
10
0.0
20
0.0
30
0.0
70
128
71
248
72
845
73
1240
74
844
0
VERTEX
8
Meshes
62
250
10
0.0
20
0.0
30
0.0
70
128
71
248
72
844
73
1254
74
766
0
VERTEX
8
Meshes
62
250
10
0.0
20
0.0
30
0.0
70
128
71
248
72
766
73
1255
74
842
0
VERTEX
8
Meshes
62
250
10
0.0
20
0.0
30
0.0
70
128
71
249
72
846
73
1239
74
848
0
VERTEX
8
Meshes
62
250
10
0.0
20
0.0
30
0.0
70
128
71
249
72
848
73
1238
74
847
0
VERTEX
8
Meshes
62
250
10
0.0
20
0.0
30
0.0
70
128
71
249
72
847
73
1252
74
765
0
VERTEX
8
Meshes
62
250
10
0.0
20
0.0
30
0.0
70
128
71
249
72
765
73
1253
74
846
0
VERTEX
8
Meshes
62
250
10
0.0
20
0.0
30
0.0
70
128
71
250
72
847
73
1238
74
850
0
VERTEX
8
Meshes
62
250
10
0.0
20
0.0
30
0.0
70
128
71
250
72
850
73
1237
74
849
0
VERTEX
8
Meshes
62
250
10
0.0
20
0.0
30
0.0
70
128
71
250
72
849
73
1251
74
763
0
VERTEX
8
Meshes
62
250
10
0.0
20
0.0
30
0.0
70
128
71
250
72
763
73
1252
74
847
0
VERTEX
8
Meshes
62
250
10
0.0
20
0.0
30
0.0
70
128
71
251
72
853
73
1235
74
851
0
VERTEX
8
Meshes
62
250
10
0.0
20
0.0
30
0.0
70
128
71
251
72
851
73
1249
74
762
0
VERTEX
8
Meshes
62
250
10
0.0
20
0.0
30
0.0
70
128
71
251
72
762
73
1250
74
852
0
VERTEX
8
Meshes
62
250
10
0.0
20
0.0
30
0.0
70
128
71
251
72
852
73
1236
74
853
0
VERTEX
8
Meshes
62
250
10
0.0
20
0.0
30
0.0
70
128
71
252
72
851
73
1235
74
855
0
VERTEX
8
Meshes
62
250
10
0.0
20
0.0
30
0.0
70
128
71
252
72
855
73
1234
74
854
0
VERTEX
8
Meshes
62
250
10
0.0
20
0.0
30
0.0
70
128
71
252
72
854
73
1248
74
760
0
VERTEX
8
Meshes
62
250
10
0.0
20
0.0
30
0.0
70
128
71
252
72
760
73
1249
74
851
0
VERTEX
8
Meshes
62
250
10
0.0
20
0.0
30
0.0
70
128
71
253
72
856
73
1233
74
857
0
VERTEX
8
Meshes
62
250
10
0.0
20
0.0
30
0.0
70
128
71
253
72
857
73
1244
74
837
0
VERTEX
8
Meshes
62
250
10
0.0
20
0.0
30
0.0
70
128
71
253
72
837
73
1258
74
759
0
VERTEX
8
Meshes
62
250
10
0.0
20
0.0
30
0.0
70
128
71
253
72
759
73
1247
74
856
0
VERTEX
8
Meshes
62
250
10
0.0
20
0.0
30
0.0
70
128
71
254
72
858
73
1232
74
859
0
VERTEX
8
Meshes
62
250
10
0.0
20
0.0
30
0.0
70
128
71
254
72
859
73
1239
74
846
0
VERTEX
8
Meshes
62
250
10
0.0
20
0.0
30
0.0
70
128
71
254
72
846
73
1253
74
757
0
VERTEX
8
Meshes
62
250
10
0.0
20
0.0
30
0.0
70
128
71
254
72
757
73
1246
74
858
0
VERTEX
8
Meshes
62
250
10
0.0
20
0.0
30
0.0
70
128
71
255
72
854
73
1234
74
861
0
VERTEX
8
Meshes
62
250
10
0.0
20
0.0
30
0.0
70
128
71
255
72
861
73
1231
74
860
0
VERTEX
8
Meshes
62
250
10
0.0
20
0.0
30
0.0
70
128
71
255
72
860
73
1245
74
754
0
VERTEX
8
Meshes
62
250
10
0.0
20
0.0
30
0.0
70
128
71
255
72
754
73
1248
74
854
0
VERTEX
8
Meshes
62
250
10
0.0
20
0.0
30
0.0
70
128
71
256
72
862
73
1230
74
863
0
VERTEX
8
Meshes
62
250
10
0.0
20
0.0
30
0.0
70
128
71
256
72
863
73
1243
74
839
0
VERTEX
8
Meshes
62
250
10
0.0
20
0.0
30
0.0
70
128
71
256
72
839
73
1244
74
862
0
VERTEX
8
Meshes
62
250
10
0.0
20
0.0
30
0.0
70
128
71
257
72
863
73
1230
74
864
0
VERTEX
8
Meshes
62
250
10
0.0
20
0.0
30
0.0
70
128
71
257
72
864
73
1242
74
841
0
VERTEX
8
Meshes
62
250
10
0.0
20
0.0
30
0.0
70
128
71
257
72
841
73
1243
74
863
0
VERTEX
8
Meshes
62
250
10
0.0
20
0.0
30
0.0
70
128
71
258
72
864
73
1230
74
865
0
VERTEX
8
Meshes
62
250
10
0.0
20
0.0
30
0.0
70
128
71
258
72
865
73
1241
74
843
0
VERTEX
8
Meshes
62
250
10
0.0
20
0.0
30
0.0
70
128
71
258
72
843
73
1242
74
864
0
VERTEX
8
Meshes
62
250
10
0.0
20
0.0
30
0.0
70
128
71
259
72
865
73
1230
74
866
0
VERTEX
8
Meshes
62
250
10
0.0
20
0.0
30
0.0
70
128
71
259
72
866
73
1240
74
845
0
VERTEX
8
Meshes
62
250
10
0.0
20
0.0
30
0.0
70
128
71
259
72
845
73
1241
74
865
0
VERTEX
8
Meshes
62
250
10
0.0
20
0.0
30
0.0
70
128
71
260
72
867
73
1230
74
868
0
VERTEX
8
Meshes
62
250
10
0.0
20
0.0
30
0.0
70
128
71
260
72
868
73
1238
74
848
0
VERTEX
8
Meshes
62
250
10
0.0
20
0.0
30
0.0
70
128
71
260
72
848
73
1239
74
867
0
VERTEX
8
Meshes
62
250
10
0.0
20
0.0
30
0.0
70
128
71
261
72
868
73
1230
74
869
0
VERTEX
8
Meshes
62
250
10
0.0
20
0.0
30
0.0
70
128
71
261
72
869
73
1237
74
850
0
VERTEX
8
Meshes
62
250
10
0.0
20
0.0
30
0.0
70
128
71
261
72
850
73
1238
74
868
0
VERTEX
8
Meshes
62
250
10
0.0
20
0.0
30
0.0
70
128
71
262
72
871
73
1230
74
870
0
VERTEX
8
Meshes
62
250
10
0.0
20
0.0
30
0.0
70
128
71
262
72
870
73
1235
74
853
0
VERTEX
8
Meshes
62
250
10
0.0
20
0.0
30
0.0
70
128
71
262
72
853
73
1236
74
871
0
VERTEX
8
Meshes
62
250
10
0.0
20
0.0
30
0.0
70
128
71
263
72
870
73
1230
74
872
0
VERTEX
8
Meshes
62
250
10
0.0
20
0.0
30
0.0
70
128
71
263
72
872
73
1234
74
855
0
VERTEX
8
Meshes
62
250
10
0.0
20
0.0
30
0.0
70
128
71
263
72
855
73
1235
74
870
0
VERTEX
8
Meshes
62
250
10
0.0
20
0.0
30
0.0
70
128
71
264
72
873
73
1230
74
862
0
VERTEX
8
Meshes
62
250
10
0.0
20
0.0
30
0.0
70
128
71
264
72
862
73
1244
74
857
0
VERTEX
8
Meshes
62
250
10
0.0
20
0.0
30
0.0
70
128
71
264
72
857
73
1233
74
873
0
VERTEX
8
Meshes
62
250
10
0.0
20
0.0
30
0.0
70
128
71
265
72
874
73
1230
74
867
0
VERTEX
8
Meshes
62
250
10
0.0
20
0.0
30
0.0
70
128
71
265
72
867
73
1239
74
859
0
VERTEX
8
Meshes
62
250
10
0.0
20
0.0
30
0.0
70
128
71
265
72
859
73
1232
74
874
0
VERTEX
8
Meshes
62
250
10
0.0
20
0.0
30
0.0
70
128
71
266
72
872
73
1230
74
875
0
VERTEX
8
Meshes
62
250
10
0.0
20
0.0
30
0.0
70
128
71
266
72
875
73
1231
74
861
0
VERTEX
8
Meshes
62
250
10
0.0
20
0.0
30
0.0
70
128
71
266
72
861
73
1234
74
872
0
VERTEX
8
Meshes
62
250
10
0.0
20
0.0
30
0.0
70
128
71
267
72
876
73
1228
74
877
0
VERTEX
8
Meshes
62
250
10
0.0
20
0.0
30
0.0
70
128
71
267
72
877
73
1233
74
856
0
VERTEX
8
Meshes
62
250
10
0.0
20
0.0
30
0.0
70
128
71
267
72
856
73
1247
74
753
0
VERTEX
8
Meshes
62
250
10
0.0
20
0.0
30
0.0
70
128
71
267
72
753
73
1229
74
876
0
VERTEX
8
Meshes
62
250
10
0.0
20
0.0
30
0.0
70
128
71
268
72
878
73
1230
74
873
0
VERTEX
8
Meshes
62
250
10
0.0
20
0.0
30
0.0
70
128
71
268
72
873
73
1233
74
877
0
VERTEX
8
Meshes
62
250
10
0.0
20
0.0
30
0.0
70
128
71
268
72
877
73
1228
74
878
0
VERTEX
8
Meshes
62
250
10
0.0
20
0.0
30
0.0
70
128
71
269
72
879
73
1226
74
880
0
VERTEX
8
Meshes
62
250
10
0.0
20
0.0
30
0.0
70
128
71
269
72
880
73
1228
74
876
0
VERTEX
8
Meshes
62
250
10
0.0
20
0.0
30
0.0
70
128
71
269
72
876
73
1229
74
751
0
VERTEX
8
Meshes
62
250
10
0.0
20
0.0
30
0.0
70
128
71
269
72
751
73
1227
74
879
0
VERTEX
8
Meshes
62
250
10
0.0
20
0.0
30
0.0
70
128
71
270
72
860
73
1231
74
881
0
VERTEX
8
Meshes
62
250
10
0.0
20
0.0
30
0.0
70
128
71
270
72
881
73
1226
74
879
0
VERTEX
8
Meshes
62
250
10
0.0
20
0.0
30
0.0
70
128
71
270
72
879
73
1227
74
748
0
VERTEX
8
Meshes
62
250
10
0.0
20
0.0
30
0.0
70
128
71
270
72
748
73
1245
74
860
0
VERTEX
8
Meshes
62
250
10
0.0
20
0.0
30
0.0
70
128
71
271
72
882
73
1230
74
878
0
VERTEX
8
Meshes
62
250
10
0.0
20
0.0
30
0.0
70
128
71
271
72
878
73
1228
74
880
0
VERTEX
8
Meshes
62
250
10
0.0
20
0.0
30
0.0
70
128
71
271
72
880
73
1226
74
882
0
VERTEX
8
Meshes
62
250
10
0.0
20
0.0
30
0.0
70
128
71
272
72
875
73
1230
74
882
0
VERTEX
8
Meshes
62
250
10
0.0
20
0.0
30
0.0
70
128
71
272
72
882
73
1226
74
881
0
VERTEX
8
Meshes
62
250
10
0.0
20
0.0
30
0.0
70
128
71
272
72
881
73
1231
74
875
0
VERTEX
8
Meshes
62
250
10
0.0
20
0.0
30
0.0
70
128
71
273
72
883
73
1224
74
884
0
VERTEX
8
Meshes
62
250
10
0.0
20
0.0
30
0.0
70
128
71
273
72
884
73
1236
74
852
0
VERTEX
8
Meshes
62
250
10
0.0
20
0.0
30
0.0
70
128
71
273
72
852
73
1250
74
746
0
VERTEX
8
Meshes
62
250
10
0.0
20
0.0
30
0.0
70
128
71
273
72
746
73
1225
74
883
0
VERTEX
8
Meshes
62
250
10
0.0
20
0.0
30
0.0
70
128
71
274
72
885
73
1230
74
871
0
VERTEX
8
Meshes
62
250
10
0.0
20
0.0
30
0.0
70
128
71
274
72
871
73
1236
74
884
0
VERTEX
8
Meshes
62
250
10
0.0
20
0.0
30
0.0
70
128
71
274
72
884
73
1224
74
885
0
VERTEX
8
Meshes
62
250
10
0.0
20
0.0
30
0.0
70
128
71
275
72
886
73
1222
74
887
0
VERTEX
8
Meshes
62
250
10
0.0
20
0.0
30
0.0
70
128
71
275
72
887
73
1224
74
883
0
VERTEX
8
Meshes
62
250
10
0.0
20
0.0
30
0.0
70
128
71
275
72
883
73
1225
74
744
0
VERTEX
8
Meshes
62
250
10
0.0
20
0.0
30
0.0
70
128
71
275
72
744
73
1223
74
886
0
VERTEX
8
Meshes
62
250
10
0.0
20
0.0
30
0.0
70
128
71
276
72
849
73
1237
74
888
0
VERTEX
8
Meshes
62
250
10
0.0
20
0.0
30
0.0
70
128
71
276
72
888
73
1222
74
886
0
VERTEX
8
Meshes
62
250
10
0.0
20
0.0
30
0.0
70
128
71
276
72
886
73
1223
74
741
0
VERTEX
8
Meshes
62
250
10
0.0
20
0.0
30
0.0
70
128
71
276
72
741
73
1251
74
849
0
VERTEX
8
Meshes
62
250
10
0.0
20
0.0
30
0.0
70
128
71
277
72
889
73
1230
74
885
0
VERTEX
8
Meshes
62
250
10
0.0
20
0.0
30
0.0
70
128
71
277
72
885
73
1224
74
887
0
VERTEX
8
Meshes
62
250
10
0.0
20
0.0
30
0.0
70
128
71
277
72
887
73
1222
74
889
0
VERTEX
8
Meshes
62
250
10
0.0
20
0.0
30
0.0
70
128
71
278
72
869
73
1230
74
889
0
VERTEX
8
Meshes
62
250
10
0.0
20
0.0
30
0.0
70
128
71
278
72
889
73
1222
74
888
0
VERTEX
8
Meshes
62
250
10
0.0
20
0.0
30
0.0
70
128
71
278
72
888
73
1237
74
869
0
VERTEX
8
Meshes
62
250
10
0.0
20
0.0
30
0.0
70
128
71
279
72
890
73
1220
74
891
0
VERTEX
8
Meshes
62
250
10
0.0
20
0.0
30
0.0
70
128
71
279
72
891
73
1232
74
858
0
VERTEX
8
Meshes
62
250
10
0.0
20
0.0
30
0.0
70
128
71
279
72
858
73
1246
74
739
0
VERTEX
8
Meshes
62
250
10
0.0
20
0.0
30
0.0
70
128
71
279
72
739
73
1221
74
890
0
VERTEX
8
Meshes
62
250
10
0.0
20
0.0
30
0.0
70
128
71
280
72
892
73
1230
74
874
0
VERTEX
8
Meshes
62
250
10
0.0
20
0.0
30
0.0
70
128
71
280
72
874
73
1232
74
891
0
VERTEX
8
Meshes
62
250
10
0.0
20
0.0
30
0.0
70
128
71
280
72
891
73
1220
74
892
0
VERTEX
8
Meshes
62
250
10
0.0
20
0.0
30
0.0
70
128
71
281
72
893
73
1218
74
894
0
VERTEX
8
Meshes
62
250
10
0.0
20
0.0
30
0.0
70
128
71
281
72
894
73
1220
74
890
0
VERTEX
8
Meshes
62
250
10
0.0
20
0.0
30
0.0
70
128
71
281
72
890
73
1221
74
737
0
VERTEX
8
Meshes
62
250
10
0.0
20
0.0
30
0.0
70
128
71
281
72
737
73
1219
74
893
0
VERTEX
8
Meshes
62
250
10
0.0
20
0.0
30
0.0
70
128
71
282
72
844
73
1240
74
895
0
VERTEX
8
Meshes
62
250
10
0.0
20
0.0
30
0.0
70
128
71
282
72
895
73
1218
74
893
0
VERTEX
8
Meshes
62
250
10
0.0
20
0.0
30
0.0
70
128
71
282
72
893
73
1219
74
734
0
VERTEX
8
Meshes
62
250
10
0.0
20
0.0
30
0.0
70
128
71
282
72
734
73
1254
74
844
0
VERTEX
8
Meshes
62
250
10
0.0
20
0.0
30
0.0
70
128
71
283
72
896
73
1230
74
892
0
VERTEX
8
Meshes
62
250
10
0.0
20
0.0
30
0.0
70
128
71
283
72
892
73
1220
74
894
0
VERTEX
8
Meshes
62
250
10
0.0
20
0.0
30
0.0
70
128
71
283
72
894
73
1218
74
896
0
VERTEX
8
Meshes
62
250
10
0.0
20
0.0
30
0.0
70
128
71
284
72
866
73
1230
74
896
0
VERTEX
8
Meshes
62
250
10
0.0
20
0.0
30
0.0
70
128
71
284
72
896
73
1218
74
895
0
VERTEX
8
Meshes
62
250
10
0.0
20
0.0
30
0.0
70
128
71
284
72
895
73
1240
74
866
0
VERTEX
8
Meshes
62
250
10
0.0
20
0.0
30
0.0
70
128
71
285
72
899
73
1274
74
804
0
VERTEX
8
Meshes
62
250
10
0.0
20
0.0
30
0.0
70
128
71
285
72
804
73
1273
74
897
0
VERTEX
8
Meshes
62
250
10
0.0
20
0.0
30
0.0
70
128
71
285
72
897
73
1217
74
898
0
VERTEX
8
Meshes
62
250
10
0.0
20
0.0
30
0.0
70
128
71
285
72
898
73
1216
74
899
0
VERTEX
8
Meshes
62
250
10
0.0
20
0.0
30
0.0
70
128
71
286
72
901
73
1272
74
803
0
VERTEX
8
Meshes
62
250
10
0.0
20
0.0
30
0.0
70
128
71
286
72
803
73
1274
74
899
0
VERTEX
8
Meshes
62
250
10
0.0
20
0.0
30
0.0
70
128
71
286
72
899
73
1216
74
900
0
VERTEX
8
Meshes
62
250
10
0.0
20
0.0
30
0.0
70
128
71
286
72
900
73
1215
74
901
0
VERTEX
8
Meshes
62
250
10
0.0
20
0.0
30
0.0
70
128
71
287
72
903
73
1271
74
801
0
VERTEX
8
Meshes
62
250
10
0.0
20
0.0
30
0.0
70
128
71
287
72
801
73
1272
74
901
0
VERTEX
8
Meshes
62
250
10
0.0
20
0.0
30
0.0
70
128
71
287
72
901
73
1215
74
902
0
VERTEX
8
Meshes
62
250
10
0.0
20
0.0
30
0.0
70
128
71
287
72
902
73
1214
74
903
0
VERTEX
8
Meshes
62
250
10
0.0
20
0.0
30
0.0
70
128
71
288
72
905
73
1270
74
799
0
VERTEX
8
Meshes
62
250
10
0.0
20
0.0
30
0.0
70
128
71
288
72
799
73
1271
74
903
0
VERTEX
8
Meshes
62
250
10
0.0
20
0.0
30
0.0
70
128
71
288
72
903
73
1214
74
904
0
VERTEX
8
Meshes
62
250
10
0.0
20
0.0
30
0.0
70
128
71
288
72
904
73
1213
74
905
0
VERTEX
8
Meshes
62
250
10
0.0
20
0.0
30
0.0
70
128
71
289
72
907
73
1269
74
797
0
VERTEX
8
Meshes
62
250
10
0.0
20
0.0
30
0.0
70
128
71
289
72
797
73
1270
74
905
0
VERTEX
8
Meshes
62
250
10
0.0
20
0.0
30
0.0
70
128
71
289
72
905
73
1213
74
906
0
VERTEX
8
Meshes
62
250
10
0.0
20
0.0
30
0.0
70
128
71
289
72
906
73
1212
74
907
0
VERTEX
8
Meshes
62
250
10
0.0
20
0.0
30
0.0
70
128
71
290
72
909
73
1268
74
795
0
VERTEX
8
Meshes
62
250
10
0.0
20
0.0
30
0.0
70
128
71
290
72
795
73
1269
74
907
0
VERTEX
8
Meshes
62
250
10
0.0
20
0.0
30
0.0
70
128
71
290
72
907
73
1212
74
908
0
VERTEX
8
Meshes
62
250
10
0.0
20
0.0
30
0.0
70
128
71
290
72
908
73
1211
74
909
0
VERTEX
8
Meshes
62
250
10
0.0
20
0.0
30
0.0
70
128
71
291
72
911
73
1267
74
793
0
VERTEX
8
Meshes
62
250
10
0.0
20
0.0
30
0.0
70
128
71
291
72
793
73
1268
74
909
0
VERTEX
8
Meshes
62
250
10
0.0
20
0.0
30
0.0
70
128
71
291
72
909
73
1211
74
910
0
VERTEX
8
Meshes
62
250
10
0.0
20
0.0
30
0.0
70
128
71
291
72
910
73
1210
74
911
0
VERTEX
8
Meshes
62
250
10
0.0
20
0.0
30
0.0
70
128
71
292
72
913
73
1266
74
791
0
VERTEX
8
Meshes
62
250
10
0.0
20
0.0
30
0.0
70
128
71
292
72
791
73
1267
74
911
0
VERTEX
8
Meshes
62
250
10
0.0
20
0.0
30
0.0
70
128
71
292
72
911
73
1210
74
912
0
VERTEX
8
Meshes
62
250
10
0.0
20
0.0
30
0.0
70
128
71
292
72
912
73
1209
74
913
0
VERTEX
8
Meshes
62
250
10
0.0
20
0.0
30
0.0
70
128
71
293
72
915
73
1265
74
789
0
VERTEX
8
Meshes
62
250
10
0.0
20
0.0
30
0.0
70
128
71
293
72
789
73
1266
74
913
0
VERTEX
8
Meshes
62
250
10
0.0
20
0.0
30
0.0
70
128
71
293
72
913
73
1209
74
914
0
VERTEX
8
Meshes
62
250
10
0.0
20
0.0
30
0.0
70
128
71
293
72
914
73
1208
74
915
0
VERTEX
8
Meshes
62
250
10
0.0
20
0.0
30
0.0
70
128
71
294
72
917
73
1264
74
787
0
VERTEX
8
Meshes
62
250
10
0.0
20
0.0
30
0.0
70
128
71
294
72
787
73
1265
74
915
0
VERTEX
8
Meshes
62
250
10
0.0
20
0.0
30
0.0
70
128
71
294
72
915
73
1208
74
916
0
VERTEX
8
Meshes
62
250
10
0.0
20
0.0
30
0.0
70
128
71
294
72
916
73
1207
74
917
0
VERTEX
8
Meshes
62
250
10
0.0
20
0.0
30
0.0
70
128
71
295
72
919
73
1263
74
785
0
VERTEX
8
Meshes
62
250
10
0.0
20
0.0
30
0.0
70
128
71
295
72
785
73
1264
74
917
0
VERTEX
8
Meshes
62
250
10
0.0
20
0.0
30
0.0
70
128
71
295
72
917
73
1207
74
918
0
VERTEX
8
Meshes
62
250
10
0.0
20
0.0
30
0.0
70
128
71
295
72
918
73
1206
74
919
0
VERTEX
8
Meshes
62
250
10
0.0
20
0.0
30
0.0
70
128
71
296
72
921
73
1262
74
783
0
VERTEX
8
Meshes
62
250
10
0.0
20
0.0
30
0.0
70
128
71
296
72
783
73
1263
74
919
0
VERTEX
8
Meshes
62
250
10
0.0
20
0.0
30
0.0
70
128
71
296
72
919
73
1206
74
920
0
VERTEX
8
Meshes
62
250
10
0.0
20
0.0
30
0.0
70
128
71
296
72
920
73
1205
74
921
0
VERTEX
8
Meshes
62
250
10
0.0
20
0.0
30
0.0
70
128
71
297
72
923
73
1261
74
781
0
VERTEX
8
Meshes
62
250
10
0.0
20
0.0
30
0.0
70
128
71
297
72
781
73
1262
74
921
0
VERTEX
8
Meshes
62
250
10
0.0
20
0.0
30
0.0
70
128
71
297
72
921
73
1205
74
922
0
VERTEX
8
Meshes
62
250
10
0.0
20
0.0
30
0.0
70
128
71
297
72
922
73
1204
74
923
0
VERTEX
8
Meshes
62
250
10
0.0
20
0.0
30
0.0
70
128
71
298
72
925
73
1260
74
779
0
VERTEX
8
Meshes
62
250
10
0.0
20
0.0
30
0.0
70
128
71
298
72
779
73
1261
74
923
0
VERTEX
8
Meshes
62
250
10
0.0
20
0.0
30
0.0
70
128
71
298
72
923
73
1204
74
924
0
VERTEX
8
Meshes
62
250
10
0.0
20
0.0
30
0.0
70
128
71
298
72
924
73
1203
74
925
0
VERTEX
8
Meshes
62
250
10
0.0
20
0.0
30
0.0
70
128
71
299
72
927
73
1259
74
777
0
VERTEX
8
Meshes
62
250
10
0.0
20
0.0
30
0.0
70
128
71
299
72
777
73
1260
74
925
0
VERTEX
8
Meshes
62
250
10
0.0
20
0.0
30
0.0
70
128
71
299
72
925
73
1203
74
926
0
VERTEX
8
Meshes
62
250
10
0.0
20
0.0
30
0.0
70
128
71
299
72
926
73
1202
74
927
0
VERTEX
8
Meshes
62
250
10
0.0
20
0.0
30
0.0
70
128
71
300
72
897
73
1273
74
774
0
VERTEX
8
Meshes
62
250
10
0.0
20
0.0
30
0.0
70
128
71
300
72
774
73
1259
74
927
0
VERTEX
8
Meshes
62
250
10
0.0
20
0.0
30
0.0
70
128
71
300
72
927
73
1202
74
928
0
VERTEX
8
Meshes
62
250
10
0.0
20
0.0
30
0.0
70
128
71
300
72
928
73
1217
74
897
0
VERTEX
8
Meshes
62
250
10
0.0
20
0.0
30
0.0
70
128
71
301
72
931
73
1200
74
929
0
VERTEX
8
Meshes
62
250
10
0.0
20
0.0
30
0.0
70
128
71
301
72
929
73
1201
74
930
0
VERTEX
8
Meshes
62
250
10
0.0
20
0.0
30
0.0
70
128
71
301
72
930
73
1290
74
836
0
VERTEX
8
Meshes
62
250
10
0.0
20
0.0
30
0.0
70
128
71
301
72
836
73
1289
74
931
0
VERTEX
8
Meshes
62
250
10
0.0
20
0.0
30
0.0
70
128
71
302
72
933
73
1216
74
898
0
VERTEX
8
Meshes
62
250
10
0.0
20
0.0
30
0.0
70
128
71
302
72
898
73
1217
74
932
0
VERTEX
8
Meshes
62
250
10
0.0
20
0.0
30
0.0
70
128
71
302
72
932
73
1201
74
929
0
VERTEX
8
Meshes
62
250
10
0.0
20
0.0
30
0.0
70
128
71
302
72
929
73
1200
74
933
0
VERTEX
8
Meshes
62
250
10
0.0
20
0.0
30
0.0
70
128
71
303
72
935
73
1199
74
934
0
VERTEX
8
Meshes
62
250
10
0.0
20
0.0
30
0.0
70
128
71
303
72
934
73
1200
74
931
0
VERTEX
8
Meshes
62
250
10
0.0
20
0.0
30
0.0
70
128
71
303
72
931
73
1289
74
834
0
VERTEX
8
Meshes
62
250
10
0.0
20
0.0
30
0.0
70
128
71
303
72
834
73
1288
74
935
0
VERTEX
8
Meshes
62
250
10
0.0
20
0.0
30
0.0
70
128
71
304
72
936
73
1215
74
900
0
VERTEX
8
Meshes
62
250
10
0.0
20
0.0
30
0.0
70
128
71
304
72
900
73
1216
74
933
0
VERTEX
8
Meshes
62
250
10
0.0
20
0.0
30
0.0
70
128
71
304
72
933
73
1200
74
934
0
VERTEX
8
Meshes
62
250
10
0.0
20
0.0
30
0.0
70
128
71
304
72
934
73
1199
74
936
0
VERTEX
8
Meshes
62
250
10
0.0
20
0.0
30
0.0
70
128
71
305
72
938
73
1198
74
937
0
VERTEX
8
Meshes
62
250
10
0.0
20
0.0
30
0.0
70
128
71
305
72
937
73
1199
74
935
0
VERTEX
8
Meshes
62
250
10
0.0
20
0.0
30
0.0
70
128
71
305
72
935
73
1288
74
832
0
VERTEX
8
Meshes
62
250
10
0.0
20
0.0
30
0.0
70
128
71
305
72
832
73
1287
74
938
0
VERTEX
8
Meshes
62
250
10
0.0
20
0.0
30
0.0
70
128
71
306
72
939
73
1214
74
902
0
VERTEX
8
Meshes
62
250
10
0.0
20
0.0
30
0.0
70
128
71
306
72
902
73
1215
74
936
0
VERTEX
8
Meshes
62
250
10
0.0
20
0.0
30
0.0
70
128
71
306
72
936
73
1199
74
937
0
VERTEX
8
Meshes
62
250
10
0.0
20
0.0
30
0.0
70
128
71
306
72
937
73
1198
74
939
0
VERTEX
8
Meshes
62
250
10
0.0
20
0.0
30
0.0
70
128
71
307
72
941
73
1197
74
940
0
VERTEX
8
Meshes
62
250
10
0.0
20
0.0
30
0.0
70
128
71
307
72
940
73
1198
74
938
0
VERTEX
8
Meshes
62
250
10
0.0
20
0.0
30
0.0
70
128
71
307
72
938
73
1287
74
830
0
VERTEX
8
Meshes
62
250
10
0.0
20
0.0
30
0.0
70
128
71
307
72
830
73
1286
74
941
0
VERTEX
8
Meshes
62
250
10
0.0
20
0.0
30
0.0
70
128
71
308
72
942
73
1213
74
904
0
VERTEX
8
Meshes
62
250
10
0.0
20
0.0
30
0.0
70
128
71
308
72
904
73
1214
74
939
0
VERTEX
8
Meshes
62
250
10
0.0
20
0.0
30
0.0
70
128
71
308
72
939
73
1198
74
940
0
VERTEX
8
Meshes
62
250
10
0.0
20
0.0
30
0.0
70
128
71
308
72
940
73
1197
74
942
0
VERTEX
8
Meshes
62
250
10
0.0
20
0.0
30
0.0
70
128
71
309
72
944
73
1196
74
943
0
VERTEX
8
Meshes
62
250
10
0.0
20
0.0
30
0.0
70
128
71
309
72
943
73
1197
74
941
0
VERTEX
8
Meshes
62
250
10
0.0
20
0.0
30
0.0
70
128
71
309
72
941
73
1286
74
828
0
VERTEX
8
Meshes
62
250
10
0.0
20
0.0
30
0.0
70
128
71
309
72
828
73
1285
74
944
0
VERTEX
8
Meshes
62
250
10
0.0
20
0.0
30
0.0
70
128
71
310
72
945
73
1212
74
906
0
VERTEX
8
Meshes
62
250
10
0.0
20
0.0
30
0.0
70
128
71
310
72
906
73
1213
74
942
0
VERTEX
8
Meshes
62
250
10
0.0
20
0.0
30
0.0
70
128
71
310
72
942
73
1197
74
943
0
VERTEX
8
Meshes
62
250
10
0.0
20
0.0
30
0.0
70
128
71
310
72
943
73
1196
74
945
0
VERTEX
8
Meshes
62
250
10
0.0
20
0.0
30
0.0
70
128
71
311
72
947
73
1195
74
946
0
VERTEX
8
Meshes
62
250
10
0.0
20
0.0
30
0.0
70
128
71
311
72
946
73
1196
74
944
0
VERTEX
8
Meshes
62
250
10
0.0
20
0.0
30
0.0
70
128
71
311
72
944
73
1285
74
826
0
VERTEX
8
Meshes
62
250
10
0.0
20
0.0
30
0.0
70
128
71
311
72
826
73
1284
74
947
0
VERTEX
8
Meshes
62
250
10
0.0
20
0.0
30
0.0
70
128
71
312
72
948
73
1211
74
908
0
VERTEX
8
Meshes
62
250
10
0.0
20
0.0
30
0.0
70
128
71
312
72
908
73
1212
74
945
0
VERTEX
8
Meshes
62
250
10
0.0
20
0.0
30
0.0
70
128
71
312
72
945
73
1196
74
946
0
VERTEX
8
Meshes
62
250
10
0.0
20
0.0
30
0.0
70
128
71
312
72
946
73
1195
74
948
0
VERTEX
8
Meshes
62
250
10
0.0
20
0.0
30
0.0
70
128
71
313
72
950
73
1194
74
949
0
VERTEX
8
Meshes
62
250
10
0.0
20
0.0
30
0.0
70
128
71
313
72
949
73
1195
74
947
0
VERTEX
8
Meshes
62
250
10
0.0
20
0.0
30
0.0
70
128
71
313
72
947
73
1284
74
824
0
VERTEX
8
Meshes
62
250
10
0.0
20
0.0
30
0.0
70
128
71
313
72
824
73
1283
74
950
0
VERTEX
8
Meshes
62
250
10
0.0
20
0.0
30
0.0
70
128
71
314
72
951
73
1210
74
910
0
VERTEX
8
Meshes
62
250
10
0.0
20
0.0
30
0.0
70
128
71
314
72
910
73
1211
74
948
0
VERTEX
8
Meshes
62
250
10
0.0
20
0.0
30
0.0
70
128
71
314
72
948
73
1195
74
949
0
VERTEX
8
Meshes
62
250
10
0.0
20
0.0
30
0.0
70
128
71
314
72
949
73
1194
74
951
0
VERTEX
8
Meshes
62
250
10
0.0
20
0.0
30
0.0
70
128
71
315
72
953
73
1193
74
952
0
VERTEX
8
Meshes
62
250
10
0.0
20
0.0
30
0.0
70
128
71
315
72
952
73
1194
74
950
0
VERTEX
8
Meshes
62
250
10
0.0
20
0.0
30
0.0
70
128
71
315
72
950
73
1283
74
822
0
VERTEX
8
Meshes
62
250
10
0.0
20
0.0
30
0.0
70
128
71
315
72
822
73
1282
74
953
0
VERTEX
8
Meshes
62
250
10
0.0
20
0.0
30
0.0
70
128
71
316
72
954
73
1209
74
912
0
VERTEX
8
Meshes
62
250
10
0.0
20
0.0
30
0.0
70
128
71
316
72
912
73
1210
74
951
0
VERTEX
8
Meshes
62
250
10
0.0
20
0.0
30
0.0
70
128
71
316
72
951
73
1194
74
952
0
VERTEX
8
Meshes
62
250
10
0.0
20
0.0
30
0.0
70
128
71
316
72
952
73
1193
74
954
0
VERTEX
8
Meshes
62
250
10
0.0
20
0.0
30
0.0
70
128
71
317
72
956
73
1192
74
955
0
VERTEX
8
Meshes
62
250
10
0.0
20
0.0
30
0.0
70
128
71
317
72
955
73
1193
74
953
0
VERTEX
8
Meshes
62
250
10
0.0
20
0.0
30
0.0
70
128
71
317
72
953
73
1282
74
820
0
VERTEX
8
Meshes
62
250
10
0.0
20
0.0
30
0.0
70
128
71
317
72
820
73
1281
74
956
0
VERTEX
8
Meshes
62
250
10
0.0
20
0.0
30
0.0
70
128
71
318
72
957
73
1208
74
914
0
VERTEX
8
Meshes
62
250
10
0.0
20
0.0
30
0.0
70
128
71
318
72
914
73
1209
74
954
0
VERTEX
8
Meshes
62
250
10
0.0
20
0.0
30
0.0
70
128
71
318
72
954
73
1193
74
955
0
VERTEX
8
Meshes
62
250
10
0.0
20
0.0
30
0.0
70
128
71
318
72
955
73
1192
74
957
0
VERTEX
8
Meshes
62
250
10
0.0
20
0.0
30
0.0
70
128
71
319
72
959
73
1191
74
958
0
VERTEX
8
Meshes
62
250
10
0.0
20
0.0
30
0.0
70
128
71
319
72
958
73
1192
74
956
0
VERTEX
8
Meshes
62
250
10
0.0
20
0.0
30
0.0
70
128
71
319
72
956
73
1281
74
818
0
VERTEX
8
Meshes
62
250
10
0.0
20
0.0
30
0.0
70
128
71
319
72
818
73
1280
74
959
0
VERTEX
8
Meshes
62
250
10
0.0
20
0.0
30
0.0
70
128
71
320
72
960
73
1207
74
916
0
VERTEX
8
Meshes
62
250
10
0.0
20
0.0
30
0.0
70
128
71
320
72
916
73
1208
74
957
0
VERTEX
8
Meshes
62
250
10
0.0
20
0.0
30
0.0
70
128
71
320
72
957
73
1192
74
958
0
VERTEX
8
Meshes
62
250
10
0.0
20
0.0
30
0.0
70
128
71
320
72
958
73
1191
74
960
0
VERTEX
8
Meshes
62
250
10
0.0
20
0.0
30
0.0
70
128
71
321
72
962
73
1190
74
961
0
VERTEX
8
Meshes
62
250
10
0.0
20
0.0
30
0.0
70
128
71
321
72
961
73
1191
74
959
0
VERTEX
8
Meshes
62
250
10
0.0
20
0.0
30
0.0
70
128
71
321
72
959
73
1280
74
816
0
VERTEX
8
Meshes
62
250
10
0.0
20
0.0
30
0.0
70
128
71
321
72
816
73
1279
74
962
0
VERTEX
8
Meshes
62
250
10
0.0
20
0.0
30
0.0
70
128
71
322
72
963
73
1206
74
918
0
VERTEX
8
Meshes
62
250
10
0.0
20
0.0
30
0.0
70
128
71
322
72
918
73
1207
74
960
0
VERTEX
8
Meshes
62
250
10
0.0
20
0.0
30
0.0
70
128
71
322
72
960
73
1191
74
961
0
VERTEX
8
Meshes
62
250
10
0.0
20
0.0
30
0.0
70
128
71
322
72
961
73
1190
74
963
0
VERTEX
8
Meshes
62
250
10
0.0
20
0.0
30
0.0
70
128
71
323
72
965
73
1189
74
964
0
VERTEX
8
Meshes
62
250
10
0.0
20
0.0
30
0.0
70
128
71
323
72
964
73
1190
74
962
0
VERTEX
8
Meshes
62
250
10
0.0
20
0.0
30
0.0
70
128
71
323
72
962
73
1279
74
814
0
VERTEX
8
Meshes
62
250
10
0.0
20
0.0
30
0.0
70
128
71
323
72
814
73
1278
74
965
0
VERTEX
8
Meshes
62
250
10
0.0
20
0.0
30
0.0
70
128
71
324
72
966
73
1205
74
920
0
VERTEX
8
Meshes
62
250
10
0.0
20
0.0
30
0.0
70
128
71
324
72
920
73
1206
74
963
0
VERTEX
8
Meshes
62
250
10
0.0
20
0.0
30
0.0
70
128
71
324
72
963
73
1190
74
964
0
VERTEX
8
Meshes
62
250
10
0.0
20
0.0
30
0.0
70
128
71
324
72
964
73
1189
74
966
0
VERTEX
8
Meshes
62
250
10
0.0
20
0.0
30
0.0
70
128
71
325
72
968
73
1188
74
967
0
VERTEX
8
Meshes
62
250
10
0.0
20
0.0
30
0.0
70
128
71
325
72
967
73
1189
74
965
0
VERTEX
8
Meshes
62
250
10
0.0
20
0.0
30
0.0
70
128
71
325
72
965
73
1278
74
812
0
VERTEX
8
Meshes
62
250
10
0.0
20
0.0
30
0.0
70
128
71
325
72
812
73
1277
74
968
0
VERTEX
8
Meshes
62
250
10
0.0
20
0.0
30
0.0
70
128
71
326
72
969
73
1204
74
922
0
VERTEX
8
Meshes
62
250
10
0.0
20
0.0
30
0.0
70
128
71
326
72
922
73
1205
74
966
0
VERTEX
8
Meshes
62
250
10
0.0
20
0.0
30
0.0
70
128
71
326
72
966
73
1189
74
967
0
VERTEX
8
Meshes
62
250
10
0.0
20
0.0
30
0.0
70
128
71
326
72
967
73
1188
74
969
0
VERTEX
8
Meshes
62
250
10
0.0
20
0.0
30
0.0
70
128
71
327
72
971
73
1187
74
970
0
VERTEX
8
Meshes
62
250
10
0.0
20
0.0
30
0.0
70
128
71
327
72
970
73
1188
74
968
0
VERTEX
8
Meshes
62
250
10
0.0
20
0.0
30
0.0
70
128
71
327
72
968
73
1277
74
810
0
VERTEX
8
Meshes
62
250
10
0.0
20
0.0
30
0.0
70
128
71
327
72
810
73
1276
74
971
0
VERTEX
8
Meshes
62
250
10
0.0
20
0.0
30
0.0
70
128
71
328
72
972
73
1203
74
924
0
VERTEX
8
Meshes
62
250
10
0.0
20
0.0
30
0.0
70
128
71
328
72
924
73
1204
74
969
0
VERTEX
8
Meshes
62
250
10
0.0
20
0.0
30
0.0
70
128
71
328
72
969
73
1188
74
970
0
VERTEX
8
Meshes
62
250
10
0.0
20
0.0
30
0.0
70
128
71
328
72
970
73
1187
74
972
0
VERTEX
8
Meshes
62
250
10
0.0
20
0.0
30
0.0
70
128
71
329
72
930
73
1201
74
973
0
VERTEX
8
Meshes
62
250
10
0.0
20
0.0
30
0.0
70
128
71
329
72
973
73
1186
74
974
0
VERTEX
8
Meshes
62
250
10
0.0
20
0.0
30
0.0
70
128
71
329
72
974
73
1275
74
806
0
VERTEX
8
Meshes
62
250
10
0.0
20
0.0
30
0.0
70
128
71
329
72
806
73
1290
74
930
0
VERTEX
8
Meshes
62
250
10
0.0
20
0.0
30
0.0
70
128
71
330
72
974
73
1186
74
976
0
VERTEX
8
Meshes
62
250
10
0.0
20
0.0
30
0.0
70
128
71
330
72
976
73
1187
74
971
0
VERTEX
8
Meshes
62
250
10
0.0
20
0.0
30
0.0
70
128
71
330
72
971
73
1276
74
808
0
VERTEX
8
Meshes
62
250
10
0.0
20
0.0
30
0.0
70
128
71
330
72
808
73
1275
74
974
0
VERTEX
8
Meshes
62
250
10
0.0
20
0.0
30
0.0
70
128
71
331
72
932
73
1217
74
928
0
VERTEX
8
Meshes
62
250
10
0.0
20
0.0
30
0.0
70
128
71
331
72
928
73
1202
74
975
0
VERTEX
8
Meshes
62
250
10
0.0
20
0.0
30
0.0
70
128
71
331
72
975
73
1186
74
973
0
VERTEX
8
Meshes
62
250
10
0.0
20
0.0
30
0.0
70
128
71
331
72
973
73
1201
74
932
0
VERTEX
8
Meshes
62
250
10
0.0
20
0.0
30
0.0
70
128
71
332
72
975
73
1202
74
926
0
VERTEX
8
Meshes
62
250
10
0.0
20
0.0
30
0.0
70
128
71
332
72
926
73
1203
74
972
0
VERTEX
8
Meshes
62
250
10
0.0
20
0.0
30
0.0
70
128
71
332
72
972
73
1187
74
976
0
VERTEX
8
Meshes
62
250
10
0.0
20
0.0
30
0.0
70
128
71
332
72
976
73
1186
74
975
0
SEQEND
0
ENDBLK
0
ENDSEC
0
SECTION
2
ENTITIES
0
INSERT
8
1025
2
Circle
10
-0.645742
20
-0.062272
30
0.878625
41
0.721093
42
0.721093
43
0.721093
50
-0.000000
0
ENDSEC
0
EOF
